<svg width="166" height="166" viewBox="0 0 166 166" fill="none" xmlns="http://www.w3.org/2000/svg">
<g opacity="0.5" filter="url(#filter0_i_1_56)">
<path d="M0.410652 28.4106C9.41794 19.4034 20.1111 12.2584 31.8797 7.38368C43.6483 2.50897 56.2618 -2.12587e-06 69 0C81.7382 2.12587e-06 94.3517 2.50898 106.12 7.38369C117.889 12.2584 128.582 19.4034 137.589 28.4107C146.597 37.4179 153.742 48.1111 158.616 59.8797C163.491 71.6483 166 84.2618 166 97C166 109.738 163.491 122.352 158.616 134.12C153.742 145.889 146.597 156.582 137.589 165.589L87.5191 115.519C89.9511 113.087 91.8802 110.2 93.1964 107.022C94.5126 103.845 95.19 100.439 95.19 97C95.19 93.5607 94.5126 90.155 93.1964 86.9775C91.8802 83.8 89.9511 80.9128 87.5191 78.4809C85.0872 76.0489 82.2 74.1198 79.0225 72.8036C75.845 71.4874 72.4393 70.81 69 70.81C65.5607 70.81 62.155 71.4874 58.9775 72.8036C55.8 74.1198 52.9128 76.0489 50.4809 78.4809L0.410652 28.4106Z" fill="url(#paint0_linear_1_56)"/>
<path d="M0.410652 28.4106C9.41794 19.4034 20.1111 12.2584 31.8797 7.38368C43.6483 2.50897 56.2618 -2.12587e-06 69 0C81.7382 2.12587e-06 94.3517 2.50898 106.12 7.38369C117.889 12.2584 128.582 19.4034 137.589 28.4107C146.597 37.4179 153.742 48.1111 158.616 59.8797C163.491 71.6483 166 84.2618 166 97C166 109.738 163.491 122.352 158.616 134.12C153.742 145.889 146.597 156.582 137.589 165.589L87.5191 115.519C89.9511 113.087 91.8802 110.2 93.1964 107.022C94.5126 103.845 95.19 100.439 95.19 97C95.19 93.5607 94.5126 90.155 93.1964 86.9775C91.8802 83.8 89.9511 80.9128 87.5191 78.4809C85.0872 76.0489 82.2 74.1198 79.0225 72.8036C75.845 71.4874 72.4393 70.81 69 70.81C65.5607 70.81 62.155 71.4874 58.9775 72.8036C55.8 74.1198 52.9128 76.0489 50.4809 78.4809L0.410652 28.4106Z" fill="#006ADA" fill-opacity="0.5"/>
</g>
<defs>
<filter id="filter0_i_1_56" x="-19.5893" y="0" width="185.589" height="205.589" filterUnits="userSpaceOnUse" color-interpolation-filters="sRGB">
<feFlood flood-opacity="0" result="BackgroundImageFix"/>
<feBlend mode="normal" in="SourceGraphic" in2="BackgroundImageFix" result="shape"/>
<feColorMatrix in="SourceAlpha" type="matrix" values="0 0 0 0 0 0 0 0 0 0 0 0 0 0 0 0 0 0 127 0" result="hardAlpha"/>
<feOffset dx="-20" dy="40"/>
<feGaussianBlur stdDeviation="40"/>
<feComposite in2="hardAlpha" operator="arithmetic" k2="-1" k3="1"/>
<feColorMatrix type="matrix" values="0 0 0 0 1 0 0 0 0 1 0 0 0 0 1 0 0 0 0.5 0"/>
<feBlend mode="lighten" in2="shape" result="effect1_innerShadow_1_56"/>
</filter>
<linearGradient id="paint0_linear_1_56" x1="96.3514" y1="-39.9515" x2="24.6008" y2="27.3821" gradientUnits="userSpaceOnUse">
<stop stop-color="white"/>
<stop offset="0.669545" stop-color="#006ADA"/>
<stop offset="1" stop-color="#006ADA"/>
</linearGradient>
</defs>
</svg>
