<svg width="172" height="172" viewBox="0 0 172 172" fill="none" xmlns="http://www.w3.org/2000/svg">
<g filter="url(#filter0_i_1_58)">
<path d="M172 86C172 103.009 166.956 119.636 157.506 133.779C148.057 147.922 134.625 158.945 118.911 165.454C103.196 171.963 85.9046 173.666 69.2223 170.348C52.5399 167.029 37.2162 158.839 25.1888 146.811C13.1615 134.784 4.97083 119.46 1.6525 102.778C-1.66583 86.0954 0.0372544 68.8037 6.54639 53.0893C13.0555 37.3748 24.0784 23.9435 38.221 14.4937C52.3636 5.04385 68.9908 4.17588e-05 86 4.19617e-05L86 62.7692C81.4054 62.7692 76.914 64.1317 73.0937 66.6843C69.2734 69.237 66.2959 72.8651 64.5376 77.11C62.7793 81.3549 62.3192 86.0258 63.2156 90.5321C64.112 95.0385 66.3245 99.1778 69.5734 102.427C72.8223 105.676 76.9616 107.888 81.4679 108.784C85.9743 109.681 90.6452 109.221 94.8901 107.462C99.1349 105.704 102.763 102.727 105.316 98.9064C107.868 95.0861 109.231 90.5947 109.231 86H172Z" fill="url(#paint0_linear_1_58)"/>
<path d="M172 86C172 103.009 166.956 119.636 157.506 133.779C148.057 147.922 134.625 158.945 118.911 165.454C103.196 171.963 85.9046 173.666 69.2223 170.348C52.5399 167.029 37.2162 158.839 25.1888 146.811C13.1615 134.784 4.97083 119.46 1.6525 102.778C-1.66583 86.0954 0.0372544 68.8037 6.54639 53.0893C13.0555 37.3748 24.0784 23.9435 38.221 14.4937C52.3636 5.04385 68.9908 4.17588e-05 86 4.19617e-05L86 62.7692C81.4054 62.7692 76.914 64.1317 73.0937 66.6843C69.2734 69.237 66.2959 72.8651 64.5376 77.11C62.7793 81.3549 62.3192 86.0258 63.2156 90.5321C64.112 95.0385 66.3245 99.1778 69.5734 102.427C72.8223 105.676 76.9616 107.888 81.4679 108.784C85.9743 109.681 90.6452 109.221 94.8901 107.462C99.1349 105.704 102.763 102.727 105.316 98.9064C107.868 95.0861 109.231 90.5947 109.231 86H172Z" fill="#006ADA" fill-opacity="0.2"/>
</g>
<defs>
<filter id="filter0_i_1_58" x="-20" y="4.19617e-05" width="192" height="212" filterUnits="userSpaceOnUse" color-interpolation-filters="sRGB">
<feFlood flood-opacity="0" result="BackgroundImageFix"/>
<feBlend mode="normal" in="SourceGraphic" in2="BackgroundImageFix" result="shape"/>
<feColorMatrix in="SourceAlpha" type="matrix" values="0 0 0 0 0 0 0 0 0 0 0 0 0 0 0 0 0 0 127 0" result="hardAlpha"/>
<feOffset dx="-20" dy="40"/>
<feGaussianBlur stdDeviation="40"/>
<feComposite in2="hardAlpha" operator="arithmetic" k2="-1" k3="1"/>
<feColorMatrix type="matrix" values="0 0 0 0 1 0 0 0 0 1 0 0 0 0 1 0 0 0 0.5 0"/>
<feBlend mode="lighten" in2="shape" result="effect1_innerShadow_1_58"/>
</filter>
<linearGradient id="paint0_linear_1_58" x1="-7.34459" y1="-66.5013" x2="193.308" y2="42.8987" gradientUnits="userSpaceOnUse">
<stop stop-color="white"/>
<stop offset="0.468395" stop-color="#006ADA"/>
<stop offset="1" stop-color="#006ADA"/>
</linearGradient>
</defs>
</svg>
