<svg width="64" height="65" viewBox="0 0 64 65" fill="none" xmlns="http://www.w3.org/2000/svg">
<g clip-path="url(#clip0_701_2585)">
<path fill-rule="evenodd" clip-rule="evenodd" d="M0.180856 3.96882C0.548206 2.74826 1.36289 1.70329 2.41875 1.09873L3.46391 0.5L32.0301 0.500001L60.5964 0.500003L61.6872 1.11113C62.4054 1.51312 62.9872 2.09506 63.389 2.81344L64 3.90462L64 32.4791L64 61.0535L63.3915 62.1405C62.0067 64.6145 58.5014 65.2657 56.3443 63.4501C54.6813 62.0503 54.7744 63.1053 54.64 44.152L54.5184 27.0074L53.8535 25.8758C52.6795 23.8783 50.0103 22.9748 47.8857 23.8559C47.2529 24.1183 41.0021 30.2036 27.0462 44.1435C9.01402 62.1551 7.00928 64.0829 6.04994 64.3348C2.46737 65.2752 -0.756605 62.0503 0.183529 58.4667C0.435398 57.5071 2.36258 55.5018 20.369 37.4644C34.305 23.5045 40.3885 17.2519 40.6508 16.6189C41.5316 14.4937 40.6285 11.8237 38.6315 10.6494L37.5003 9.98428L20.3605 9.86269C4.77333 9.75204 3.15174 9.7034 2.45959 9.32428C0.5431 8.27468 -0.428152 5.99213 0.180856 3.96882Z" fill="#60E878"/>
</g>
<defs>
<clipPath id="clip0_701_2585">
<rect width="64" height="64" fill="white" transform="translate(0 0.5)"/>
</clipPath>
</defs>
</svg>
