<svg width="32" height="32" viewBox="0 0 32 32" fill="none" xmlns="http://www.w3.org/2000/svg">
<g clip-path="url(#clip0_357_628)">
<path d="M14.6329 0.415276C11.883 0.698301 9.5298 1.52912 7.33626 2.98534C3.40521 5.59649 0.851392 9.90123 0.427276 14.6305C0.367991 15.3061 0.367991 16.6939 0.427276 17.3695C0.814909 21.7153 2.98109 25.6777 6.43786 28.3664C8.563 30.0235 11.0119 31.0597 13.8029 31.4843C14.3729 31.5756 14.642 31.5847 16.001 31.5847C17.3873 31.5847 17.6199 31.5756 18.2128 31.4843C21.7608 30.9274 24.8116 29.357 27.2469 26.828C31.1278 22.8018 32.5552 16.9815 30.9818 11.5994C30.2841 9.20736 28.989 6.97967 27.2469 5.17195C24.8208 2.6521 21.7471 1.0635 18.2356 0.520267C17.7066 0.438099 17.36 0.41984 16.2062 0.410709C15.4401 0.401581 14.7332 0.406145 14.6329 0.415276ZM12.5853 8.23503C14.0172 8.88325 14.6922 12.6995 13.8713 15.475C13.4289 16.9815 12.5944 17.7803 11.8556 17.4151C11.167 17.0728 10.6425 16.0319 10.3598 14.457C10.2139 13.6171 10.2139 12.0376 10.3598 11.1977C10.5741 10.0017 10.9253 9.12062 11.395 8.61391C11.81 8.16655 12.1748 8.04786 12.5853 8.23503ZM20.1646 8.26698C20.8852 8.62761 21.4643 9.91036 21.6787 11.645C21.7425 12.1654 21.7471 13.4847 21.6787 14.0142C21.5647 14.9729 21.3412 15.7763 21.0083 16.4245C20.5477 17.3147 19.9457 17.6799 19.3666 17.4151C18.7281 17.1275 18.1489 15.9909 17.8844 14.5164C17.7932 14.0005 17.7795 13.7769 17.7841 12.8045C17.7841 11.855 17.8023 11.604 17.8844 11.1383C18.1124 9.90123 18.491 9.00194 18.9972 8.50892C19.3802 8.1346 19.7496 8.06156 20.1646 8.26698ZM7.35906 18.3966C7.44115 18.5974 7.54148 18.8577 7.58708 18.9718L7.67373 19.1818L7.08088 19.4237C6.75709 19.5561 6.49259 19.6839 6.49259 19.7022C6.49259 19.798 6.9167 20.5786 7.20857 21.0214C7.66461 21.7062 8.034 22.1627 8.5858 22.7105C10.2002 24.3082 12.2888 25.3262 14.5143 25.6092C15.4264 25.7279 16.9176 25.6868 17.7567 25.527C20.5386 24.9884 22.9373 23.3952 24.4742 21.0671C24.8071 20.5604 25.2996 19.6246 25.2631 19.5652C25.2494 19.547 25.0351 19.442 24.7797 19.3324C24.5152 19.2228 24.3282 19.1179 24.3374 19.0859C24.5289 18.6248 24.798 18.0223 24.8299 17.9903C24.8527 17.9629 25.5094 18.2231 26.4397 18.6203L28.0085 19.2913L27.7577 19.8711C27.6208 20.1906 27.5023 20.4599 27.4886 20.4691C27.4795 20.4782 27.2697 20.4006 27.028 20.3002C26.7817 20.1952 26.5628 20.1084 26.5355 20.1084C26.5127 20.1084 26.3759 20.3367 26.239 20.6197C26.1022 20.8982 25.8286 21.3775 25.628 21.6788C24.4559 23.4865 22.8917 24.8742 20.9718 25.8192C19.8864 26.3487 18.8284 26.6865 17.588 26.8965C16.8811 27.0152 14.8518 27.0152 14.1312 26.8965C11.5409 26.4674 9.42947 25.3901 7.60988 23.5595C6.71149 22.6557 6.11408 21.8431 5.53947 20.743L5.23848 20.1632L4.85997 20.3139L4.48146 20.4691L4.43585 20.3686C4.30816 20.0765 3.9935 19.2639 4.00718 19.2502C4.05734 19.2 7.1584 17.9812 7.18577 18.004C7.19945 18.0177 7.28153 18.1957 7.35906 18.3966Z" fill="#12121C"/>
</g>
<defs>
<clipPath id="clip0_357_628">
<rect width="32" height="32" fill="white"/>
</clipPath>
</defs>
</svg>
