<svg width="24" height="24" viewBox="0 0 24 24" fill="none" xmlns="http://www.w3.org/2000/svg">
<path d="M11.8955 4.11823C9.69972 3.67692 4.92679 4.23171 3.4013 9.98136C1.49444 17.1684 6.69497 22.8424 12.4156 21.8967C18.1361 20.9511 23.1633 13.0075 20.043 7.14436C16.9227 1.28124 8.77518 4.87476 6.52162 8.46829C4.26805 12.0618 4.61475 18.3032 8.77518 19.8163C12.9356 21.3293 17.6161 19.438 18.8295 13.9531C20.043 8.46829 19.0029 5.44216 15.1892 5.44216C11.3754 5.44216 3.92135 11.6836 9.81529 18.1141C15.7092 24.5446 21.6032 13.3857 18.8295 10.927C16.0559 8.46829 11.7221 8.84656 11.0287 13.1966C10.3353 17.5467 14.3224 19.2489 16.576 16.601C18.8295 13.9531 20.7364 6.7661 16.576 9.98136C12.4156 13.1966 13.2823 18.6815 15.1892 16.601" stroke="#60E878" stroke-linecap="round"/>
</svg>
