<svg width="371" height="143" viewBox="0 0 371 143" fill="none" xmlns="http://www.w3.org/2000/svg">
<path fill-rule="evenodd" clip-rule="evenodd" d="M100.14 7.80322C64.4579 1.63659 26.9134 1.22395 3.25062 2.74134C2.69947 2.77668 2.22402 2.35853 2.18868 1.80738C2.15333 1.25623 2.57148 0.780779 3.12263 0.745436C26.9058 -0.779668 64.6117 -0.366485 100.481 5.83243C118.417 8.93207 135.924 13.4835 151.014 19.9804C166.096 26.4739 178.83 34.9399 187.136 45.9077C192.46 52.9385 193.022 60.253 189.956 67.482C188.379 71.2009 185.849 74.884 182.547 78.5027C249.461 65.037 320.825 53.0082 369.849 45.5229C370.395 45.4395 370.905 45.8146 370.989 46.3605C371.072 46.9065 370.697 47.4166 370.151 47.5C320.452 55.0883 247.788 67.3476 180.101 81.0365C177.591 83.5009 174.737 85.9317 171.599 88.3198C154.025 101.691 127.109 114.025 99.8762 123.572C72.6323 133.123 44.9611 139.923 25.8232 142.182C21.0355 142.747 16.7647 143.03 13.1577 142.997C9.56586 142.965 6.56831 142.62 4.36074 141.891C2.18516 141.173 0.496881 139.978 0.0896922 138.063C-0.30417 136.209 0.614215 134.138 2.41229 131.938C5.38624 128.298 11.6659 124.569 20.3619 120.776C29.1111 116.961 40.4769 113.012 53.8041 109.002C80.4622 100.982 115.057 92.6923 152.459 84.7272C161.212 82.863 170.12 81.0164 179.118 79.1949C183.279 75.0368 186.354 70.8529 188.115 66.7011C190.91 60.1116 190.42 53.5583 185.541 47.1152C177.521 36.5248 165.129 28.2353 150.223 21.8173C135.324 15.4026 117.98 10.8864 100.14 7.80322ZM176.375 81.7925C168.451 83.4056 160.603 85.0377 152.875 86.6833C115.494 94.6442 80.9608 102.92 54.3803 110.917C41.0882 114.916 29.8072 118.839 21.1614 122.61C12.4624 126.404 6.59891 129.975 3.96096 133.203C2.25161 135.295 1.85072 136.728 2.04599 137.647C2.22794 138.503 3.03722 139.348 4.98785 139.992C6.9065 140.626 9.66382 140.966 13.1757 140.998C16.6725 141.029 20.8545 140.754 25.5887 140.196C44.5383 137.959 72.0613 131.203 99.2145 121.684C126.379 112.161 153.063 99.9106 170.388 86.7281C172.539 85.0914 174.539 83.445 176.375 81.7925Z" fill="#60E878"/>
</svg>
