<svg width="56" height="56" viewBox="0 0 56 56" fill="none" xmlns="http://www.w3.org/2000/svg">
<circle cx="28" cy="28" r="27.5" stroke="white"/>
<path d="M37.0307 17.3556L28.0011 26.3861L18.9716 17.3556C18.7544 17.1569 18.469 17.0496 18.1747 17.0561C17.8804 17.0626 17.5999 17.1824 17.3918 17.3906C17.1836 17.5988 17.0638 17.8793 17.0573 18.1736C17.0507 18.468 17.158 18.7535 17.3567 18.9707L26.3817 28.0011L17.3545 37.0293C17.2442 37.1345 17.156 37.2606 17.0952 37.4002C17.0343 37.5399 17.002 37.6904 17.0001 37.8427C16.9982 37.9951 17.0268 38.1463 17.0842 38.2874C17.1415 38.4286 17.2266 38.5568 17.3342 38.6646C17.4419 38.7724 17.57 38.8576 17.711 38.9152C17.8521 38.9728 18.0032 39.0016 18.1555 38.9999C18.3079 38.9983 18.4583 38.9662 18.5981 38.9055C18.7379 38.8448 18.8641 38.7568 18.9693 38.6467L28.0011 29.6185L37.0307 38.649C37.2478 38.8477 37.5333 38.955 37.8276 38.9485C38.1219 38.942 38.4024 38.8221 38.6105 38.614C38.8187 38.4058 38.9385 38.1253 38.945 37.831C38.9516 37.5366 38.8443 37.2511 38.6455 37.0339L29.616 28.0034L38.6455 18.9707C38.7558 18.8655 38.844 18.7394 38.9048 18.5998C38.9657 18.4601 38.998 18.3096 38.9999 18.1573C39.0018 18.0049 38.9732 17.8537 38.9158 17.7126C38.8585 17.5715 38.7734 17.4432 38.6658 17.3354C38.5581 17.2276 38.43 17.1424 38.289 17.0848C38.1479 17.0272 37.9968 16.9984 37.8445 17.0001C37.6921 17.0017 37.5417 17.0339 37.4019 17.0945C37.2621 17.1552 37.1359 17.2432 37.0307 17.3533V17.3556Z" fill="white"/>
</svg>
