<svg width="32" height="32" viewBox="0 0 32 32" fill="none" xmlns="http://www.w3.org/2000/svg">
<g clip-path="url(#clip0_357_626)">
<path d="M24.915 19.8954C23.7124 20.0784 22.4836 19.6862 21.6209 18.8235L19.7646 16.9673C19.2418 16.4444 19.2418 15.5816 19.7646 15.0326L21.6209 13.1764C22.5097 12.2875 23.7385 11.9215 24.9673 12.1045C26.8235 12.3921 28.7581 11.8169 30.196 10.379C32.6797 7.89536 32.5751 3.81693 29.8823 1.46399C27.5816 -0.522937 24.1045 -0.496793 21.8561 1.54242C20.2352 2.98033 19.5816 5.07183 19.8954 7.03262C20.0784 8.26138 19.7124 9.49014 18.8235 10.3529L16.9673 12.2091C16.4444 12.732 15.5816 12.732 15.0326 12.2091L13.1764 10.3529C12.2875 9.46399 11.9215 8.23523 12.1045 7.00648C12.3921 5.15027 11.8169 3.21563 10.379 1.77772C7.92151 -0.705943 3.84308 -0.601368 1.49014 2.09144C-0.522937 4.3921 -0.496793 7.89536 1.54242 10.1437C2.98033 11.7646 5.07183 12.3921 7.03262 12.1045C8.26138 11.9215 9.49014 12.2875 10.3529 13.1764L12.2091 15.0326C12.732 15.5555 12.732 16.4182 12.2091 16.9673L10.3529 18.8235C9.46399 19.7124 8.23523 20.0784 7.00648 19.8954C5.15027 19.6078 3.21563 20.1829 1.77772 21.6209C-0.705943 24.1045 -0.601368 28.1829 2.09144 30.5359C4.36595 32.5228 7.79079 32.5228 10.0653 30.5359C11.7385 29.0718 12.4182 26.9542 12.1045 24.9411C11.9215 23.7385 12.3137 22.5097 13.1764 21.647L15.0326 19.7908C15.5555 19.2679 16.4182 19.2679 16.9673 19.7908L18.8235 21.647C19.7124 22.5359 20.0784 23.7646 19.8954 24.9934C19.6078 26.8496 20.1829 28.7843 21.6209 30.2222C24.1045 32.7058 28.1829 32.6012 30.5359 29.9084C32.4967 27.6339 32.5228 24.2091 30.5359 21.9346C29.0457 20.2352 26.928 19.5816 24.915 19.8954Z" fill="#12121C"/>
</g>
<defs>
<clipPath id="clip0_357_626">
<rect width="32" height="32" fill="white"/>
</clipPath>
</defs>
</svg>
