<svg width="266" height="108" viewBox="0 0 266 108" fill="none" xmlns="http://www.w3.org/2000/svg">
<path fill-rule="evenodd" clip-rule="evenodd" d="M7.62166 24.6861C10.6432 25.7846 14.9161 26.7289 20.6265 27.428C63.4516 32.6708 98.4757 31.443 119.244 27.1794C124.432 26.1142 128.703 24.8651 131.971 23.4942C132.515 23.2659 133.029 23.0354 133.512 22.8033C130.462 21.4144 127.31 19.8933 124.084 18.3365C121.149 16.9199 118.152 15.4738 115.115 14.0705C108.95 11.222 102.498 8.49016 95.6927 6.34807C95.0658 6.36224 94.4363 6.37844 93.8046 6.39659C77.1746 6.87446 59.1017 8.70383 46.0783 10.451C45.5309 10.5245 45.0276 10.1402 44.9542 9.59286C44.8808 9.04548 45.265 8.54221 45.8123 8.46877C57.7351 6.86925 73.8826 5.19964 89.3181 4.55423C82.9059 2.97116 76.1838 2 69.1026 2C43.4809 2 20.0158 7.43452 8.74385 13.4802C5.9239 14.9927 3.9643 16.4933 2.90492 17.878C2.38127 18.5625 2.10972 19.1769 2.02768 19.7164C1.94836 20.238 2.03646 20.7458 2.33291 21.2652C2.9594 22.3629 4.55757 23.572 7.62166 24.6861ZM95.9773 4.34131C87.6192 1.73697 78.6918 0 69.1026 0C43.2924 0 19.4645 5.46072 7.79853 11.7178C4.88399 13.281 2.63131 14.9441 1.31646 16.6628C0.653009 17.53 0.196958 18.4521 0.0504142 19.4157C-0.0988545 20.3971 0.0834562 21.3587 0.595903 22.2566C1.58721 23.9935 3.76078 25.4104 6.93827 26.5657C10.1583 27.7364 14.5968 28.7047 20.3835 29.4132C63.3381 34.6718 98.5951 33.4602 119.646 29.1385C124.912 28.0574 129.318 26.776 132.745 25.3385C133.876 24.8639 134.913 24.3672 135.846 23.8481C141.6 26.3748 147.147 28.4199 152.526 29.4042C162.217 31.1776 174.078 31.7496 186.357 32.0866C189.413 32.1705 192.495 32.2398 195.579 32.3092C204.915 32.5192 214.264 32.7295 222.942 33.3447C234.501 34.1641 244.728 35.6956 252.042 38.8329C255.688 40.3973 258.55 42.336 260.497 44.7286C262.429 47.103 263.5 49.973 263.5 53.5C263.5 58.0007 260.577 61.5079 255.077 64.7599C249.578 68.0116 241.789 70.8343 232.607 74.0525C231.907 74.2979 231.199 74.5454 230.484 74.7955C213.102 80.8741 191.449 88.4462 172.288 102.761L173.109 96.1935C173.177 95.6455 172.788 95.1457 172.24 95.0772C171.692 95.0087 171.193 95.3974 171.124 95.9455L170.008 104.876C169.939 105.424 170.328 105.924 170.876 105.992L179.806 107.109C180.355 107.177 180.854 106.788 180.923 106.24C180.991 105.692 180.603 105.193 180.055 105.124L173.554 104.311C192.443 90.2198 213.811 82.7461 231.21 76.6601C231.903 76.418 232.589 76.178 233.268 75.9399C242.398 72.7401 250.391 69.8539 256.095 66.4815C261.798 63.1095 265.5 59.0776 265.5 53.5C265.5 49.527 264.279 46.208 262.048 43.4664C259.832 40.743 256.662 38.6386 252.83 36.9949C245.186 33.716 234.67 32.1711 223.083 31.3497C214.352 30.7307 204.934 30.5189 195.585 30.3087C192.511 30.2395 189.444 30.1706 186.412 30.0874C174.127 29.7502 162.408 29.1794 152.886 27.4369C148.104 26.5618 143.129 24.8003 137.887 22.5535C138.798 21.8863 139.547 21.1864 140.116 20.4532C140.839 19.5215 141.294 18.5073 141.388 17.4249C141.482 16.3374 141.204 15.2676 140.606 14.2441C139.437 12.2412 137.009 10.3523 133.448 8.56608C129.618 6.64418 123.823 5.49718 116.991 4.87775C110.741 4.31112 103.529 4.17895 95.9773 4.34131ZM101.687 6.27688C106.64 8.08668 111.389 10.1457 115.954 12.255C119.076 13.6973 122.081 15.1485 125.008 16.5613C128.584 18.2878 132.041 19.957 135.446 21.4826C135.536 21.5232 135.627 21.5638 135.718 21.6042C136.989 20.8136 137.925 20.0147 138.536 19.2268C139.078 18.5295 139.342 17.8717 139.395 17.2524C139.448 16.6383 139.302 15.9768 138.879 15.2526C138.008 13.76 136.008 12.088 132.552 10.3537C129.073 8.60868 123.594 7.48466 116.81 6.86958C112.229 6.45426 107.105 6.27481 101.687 6.27688Z" fill="#60E878"/>
</svg>
