<svg width="316" height="37" viewBox="0 0 316 37" fill="none" xmlns="http://www.w3.org/2000/svg">
<path fill-rule="evenodd" clip-rule="evenodd" d="M100.023 6.81297C116.625 2.89916 132.265 0.000123084 143.912 0C144.464 -5.8412e-06 144.912 0.447705 144.912 0.999989C144.912 1.55227 144.464 1.99999 143.912 2C132.519 2.00012 117.077 4.84734 100.482 8.75961C90.5383 11.104 80.2185 13.821 70.149 16.5189C74.1551 17.4483 78.2793 18.4307 82.5097 19.4383C109.852 25.9511 141.632 33.5208 174.63 34.6701C239.216 36.9196 293.367 27.1288 314.746 21.5183C315.28 21.3781 315.827 21.6975 315.967 22.2317C316.107 22.7659 315.788 23.3126 315.254 23.4528C293.705 29.1081 239.358 38.9258 174.561 36.6689C141.342 35.5119 109.324 27.8837 81.9778 21.3686C76.4624 20.0546 71.1371 18.7859 66.0303 17.6246C65.238 17.8376 64.4478 18.0501 63.66 18.262C59.1786 19.4674 54.7757 20.6517 50.5087 21.7788C34.7845 25.9326 20.8549 29.3262 11.7834 30.0752C9.50787 30.263 7.50159 30.2881 5.82852 30.1068C4.17362 29.9275 2.74284 29.5363 1.70352 28.8096C0.604525 28.0411 -0.00334239 26.9303 1.38242e-05 25.5365C0.00318461 24.2196 0.549938 22.7289 1.52321 21.0791C6.19977 13.1522 14.5441 10.0458 25.3592 9.73506C36.1568 9.42488 49.6619 11.8879 65.0228 15.3461C65.3443 15.4184 65.6665 15.4912 65.9897 15.5645C77.2043 12.5504 88.8555 9.44587 100.023 6.81297ZM61.8281 16.6836C47.6221 13.5568 35.2993 11.4503 25.4166 11.7342C14.9179 12.0358 7.41902 15.0216 3.24578 22.0954C2.34729 23.6184 2.00193 24.7429 2.00001 25.5413C1.99827 26.2626 2.27233 26.7668 2.84963 27.1705C3.4866 27.6159 4.52648 27.954 6.04396 28.1185C7.54328 28.2809 9.41111 28.2642 11.6188 28.0819C20.48 27.3504 34.2284 24.0109 49.9979 19.8452C53.8391 18.8305 57.7972 17.7676 61.8281 16.6836Z" fill="#60E878"/>
</svg>
