<svg width="665" height="65" viewBox="0 0 665 65" fill="none" xmlns="http://www.w3.org/2000/svg">
<path fill-rule="evenodd" clip-rule="evenodd" d="M659.562 8.32989C657.536 9.47708 654.758 10.7709 651.2 12.2219C623.582 23.4844 589.414 25.7995 559.561 23.4737C544.624 22.3101 530.738 19.9824 519.253 17.0161C516.885 16.4043 514.615 15.7644 512.456 15.1006C481.782 18.8649 448.137 23.1691 413.212 27.6369C404.885 28.7021 396.486 29.7766 388.037 30.8553C335.559 37.5551 281.168 44.4163 230.379 50.2141C249.348 51.7661 267.283 53.406 283.112 55.0055C283.661 55.0611 284.062 55.5515 284.006 56.101C283.951 56.6505 283.46 57.0509 282.911 56.9954C264.278 55.1125 242.727 53.1739 220.007 51.3887C192.416 54.4879 166.023 57.2414 141.742 59.4469C105.97 62.6961 74.7565 64.7579 51.0312 64.9804C39.1706 65.0917 29.1563 64.7437 21.3681 63.8488C17.474 63.4013 14.1168 62.815 11.3535 62.0737C8.6023 61.3358 6.37796 60.4283 4.79514 59.3053C2.44429 57.6373 0.872852 56.0029 0.272415 54.3629C-0.0386276 53.5134 -0.0904781 52.6567 0.15394 51.826C0.394937 51.0069 0.90066 50.2913 1.57564 49.6686C2.90232 48.4449 5.02012 47.4547 7.70556 46.6276C10.4167 45.7926 13.8162 45.0919 17.8049 44.5087C33.7419 42.1787 59.5371 41.6656 89.793 42.3107C129.412 43.1555 176.795 45.9899 219.974 49.3799C273.609 43.3535 331.777 36.0218 387.783 28.8714C396.234 27.7925 404.636 26.7177 412.966 25.6521C446.284 21.3898 478.448 17.2751 507.982 13.6357C501.766 11.4656 496.721 9.09383 493.234 6.65079C492.782 6.33388 492.672 5.71031 492.989 5.25799C493.306 4.80568 493.929 4.69591 494.382 5.01282C498.371 7.8078 504.655 10.5817 512.637 13.0633C547.964 8.72977 579.342 5.11459 604.17 2.79477C629.933 0.387573 648.769 -0.638885 657.628 0.411371C659.821 0.671447 661.565 1.07364 662.648 1.7135C663.201 2.03984 663.712 2.50438 663.919 3.16873C664.136 3.86236 663.948 4.53253 663.604 5.09509C662.96 6.14661 661.536 7.21206 659.562 8.32989ZM517.506 14.4824C550.932 10.4021 580.637 7.00225 604.356 4.7861C630.183 2.37297 648.788 1.37731 657.392 2.39746C659.564 2.65499 660.938 3.02617 661.631 3.43571C661.967 3.63407 662.01 3.76322 662.01 3.7641C662.011 3.76591 662.011 3.76732 662.011 3.77042C662.011 3.77383 662.011 3.78424 662.008 3.80357C662 3.84397 661.975 3.92514 661.898 4.05054C661.549 4.62064 660.548 5.47306 658.577 6.58954C656.657 7.67667 653.967 8.93361 650.445 10.37C623.224 21.4708 589.401 23.7924 559.716 21.4798C544.883 20.3242 531.113 18.0138 519.754 15.0797C518.993 14.8832 518.244 14.6841 517.506 14.4824ZM209.315 50.5667C169.092 47.5428 126.136 45.0862 89.7503 44.3103C59.4952 43.6652 33.8494 44.1842 18.0942 46.4877C14.16 47.0628 10.8707 47.7455 8.29424 48.539C5.6921 49.3404 3.92346 50.2239 2.9317 51.1387C2.44746 51.5854 2.18597 52.0053 2.07261 52.3905C1.96267 52.7642 1.96932 53.1805 2.15049 53.6753C2.53448 54.7241 3.68233 56.0634 5.95247 57.6741C7.25777 58.6003 9.22295 59.4315 11.8716 60.142C14.5082 60.8493 17.7612 61.4211 21.5964 61.8618C29.2671 62.7432 39.1887 63.0914 51.0125 62.9805C74.6559 62.7587 105.805 60.7028 141.561 57.4551C162.739 55.5315 185.525 53.1906 209.315 50.5667Z" fill="#60E878"/>
</svg>
