<svg width="456" height="31" viewBox="0 0 456 31" fill="none" xmlns="http://www.w3.org/2000/svg">
<path fill-rule="evenodd" clip-rule="evenodd" d="M417.511 0.952711C417.537 1.50438 417.111 1.97277 416.56 1.9989C368.761 4.26276 300.47 7.11961 235.302 9.14003C236.678 9.19763 238.055 9.25543 239.432 9.31341C282.134 11.1114 325.376 13.0838 361.777 14.7442C370.298 15.1328 378.444 15.5044 386.12 15.8526C400.299 16.4958 412.876 17.0594 423.255 17.504C428.755 17.6032 433.63 17.7038 437.798 17.803C443.256 17.933 447.507 18.0606 450.364 18.1794C451.79 18.2386 452.879 18.2962 453.6 18.3514C453.955 18.3786 454.246 18.4071 454.449 18.4388C454.532 18.4517 454.678 18.476 454.815 18.5266C454.856 18.5425 454.941 18.582 454.991 18.6099C455.064 18.6564 455.229 18.7998 455.315 18.9064C455.42 19.094 455.498 19.5505 455.45 19.801C455.371 19.982 455.175 20.2311 455.078 20.31C454.905 20.4358 454.727 20.4779 454.686 20.4878L454.682 20.4887C454.611 20.5058 454.543 20.516 454.491 20.5226C454.384 20.5362 454.26 20.5449 454.131 20.5511C453.867 20.5637 453.507 20.5693 453.063 20.5692C452.171 20.569 450.888 20.5459 449.248 20.5022C445.964 20.4148 441.217 20.2439 435.226 20.0041C431.646 19.8608 427.62 19.6928 423.194 19.5033C414.3 19.343 403.771 19.1867 391.954 19.0468C353.688 18.5938 301.926 18.3125 248.459 18.625C194.99 18.9375 139.826 19.8436 94.754 21.7647C72.2171 22.7253 52.2136 23.9393 36.2115 25.4584C20.1757 26.9808 8.25344 28.8021 1.81611 30.9487C1.29219 31.1234 0.72584 30.8403 0.551134 30.3164C0.376429 29.7924 0.659527 29.2261 1.18345 29.0514C7.86633 26.8229 20.0049 24.988 36.0225 23.4674C52.0737 21.9436 72.1159 20.7278 94.6689 19.7666C139.777 17.8439 194.969 16.9376 248.447 16.625C288.968 16.3882 328.51 16.4923 361.943 16.7538C361.857 16.7499 361.77 16.7459 361.684 16.742C325.283 15.0816 282.046 13.1094 239.347 11.3116C228.418 10.8515 217.525 10.4028 206.791 9.97364C202.484 10.0914 198.208 10.2044 193.969 10.3122C155.864 11.281 120.774 11.8282 93.9972 11.6328C80.6104 11.5351 69.2897 11.2517 60.7043 10.7414C56.4124 10.4863 52.7914 10.1738 49.9314 9.79725C47.0999 9.42446 44.9257 8.97867 43.5852 8.42405C43.1803 8.2565 42.7882 8.05736 42.5023 7.80372C42.3563 7.6743 42.1795 7.47991 42.0758 7.20933C41.9594 6.90582 41.9601 6.56755 42.098 6.25516C42.2212 5.97596 42.4215 5.78958 42.5811 5.6723C42.7458 5.55116 42.9284 5.4589 43.1026 5.38603C43.4501 5.24065 43.8845 5.12352 44.3714 5.02369C46.3075 4.62674 49.7976 4.36505 54.5499 4.20663C64.0998 3.88827 79.0482 3.98068 97.6452 4.36742C127.116 4.9803 165.801 6.33356 206.804 7.97255C279.89 5.97303 361.653 2.5972 416.465 0.00114039C417.017 -0.024988 417.485 0.401045 417.511 0.952711ZM175.297 8.75717C146.216 7.67801 119.389 6.82003 97.6036 6.36699C79.0088 5.9803 64.1076 5.88912 54.6165 6.20552C50.2672 6.35051 47.1161 6.5798 45.2702 6.89079C46.4053 7.21991 48.0445 7.53156 50.1924 7.81436C52.9863 8.1822 56.5548 8.49126 60.823 8.74495C69.3576 9.25223 80.6385 9.53525 94.0118 9.63286C116.335 9.79579 144.455 9.44193 175.297 8.75717Z" fill="#60E878"/>
</svg>
