<svg width="60" height="60" viewBox="0 0 60 60" fill="none" xmlns="http://www.w3.org/2000/svg">
<path d="M32 26V20.899C33.237 19.636 34 17.907 34 16C34 12.134 30.866 9.00001 27 9.00001C27 9.00001 23 9.00001 20 9.00001C16 9.00001 12.656 6.81201 9.382 3.85901C9.382 3.85901 6 7.35701 6 13C6 17.418 10.477 21 16 21" stroke="#60E878" stroke-width="2" stroke-miterlimit="10"/>
<path d="M10 19.401V27C10 33.075 14.925 38 21 38C27.075 38 32 33.075 32 27V25" stroke="#60E878" stroke-width="2" stroke-miterlimit="10"/>
<path d="M18.2832 33.4531C19.1192 33.8051 20.0372 34.0001 21.0002 34.0001C23.6962 34.0001 26.0362 32.4761 27.2062 30.2421" stroke="#60E878" stroke-width="2" stroke-miterlimit="10"/>
<path d="M17 37.25V40.438C17 41.356 16.375 42.156 15.485 42.378L9.545 43.863C6.874 44.532 5 46.931 5 49.685V58" stroke="#60E878" stroke-width="2" stroke-miterlimit="10"/>
<path d="M25 37.25V40.438C25 41.356 25.625 42.156 26.515 42.378L32.455 43.863C32.7 43.924 32.933 43.998 33.164 44.088" stroke="#60E878" stroke-width="2" stroke-miterlimit="10"/>
<path d="M13.334 42.917C15.313 44.829 18.031 46 21 46C23.969 46 26.683 44.828 28.662 42.915" stroke="#60E878" stroke-width="2" stroke-miterlimit="10"/>
<path d="M44 57C50.0751 57 55 52.0751 55 46C55 39.9249 50.0751 35 44 35C37.9249 35 33 39.9249 33 46C33 52.0751 37.9249 57 44 57Z" stroke="#60E878" stroke-width="2" stroke-miterlimit="10"/>
<path d="M44 39V53" stroke="#60E878" stroke-width="2" stroke-miterlimit="10"/>
<path d="M37 46H51" stroke="#60E878" stroke-width="2" stroke-miterlimit="10"/>
<path d="M45.851 31.113C45.244 31.038 44.627 31 44 31" stroke="#60E878" stroke-width="2" stroke-miterlimit="10"/>
<path d="M56.5205 37.737C54.6055 34.841 51.7115 32.648 48.3105 31.629" stroke="#60E878" stroke-width="2" stroke-miterlimit="10"/>
<path d="M46 23H52" stroke="#60E878" stroke-width="2" stroke-miterlimit="10"/>
<path d="M44.3594 15.8639L49.7124 12.7729" stroke="#60E878" stroke-width="2" stroke-miterlimit="10"/>
<path d="M39.1074 10.6913L42.2274 5.28625" stroke="#60E878" stroke-width="2" stroke-miterlimit="10"/>
</svg>
