<svg width="64" height="64" viewBox="0 0 64 64" fill="none" xmlns="http://www.w3.org/2000/svg">
<path d="M60.243 1.13842L60.243 1.13843C61.2315 1.43593 62.0626 2.09332 62.5335 2.91564L62.5336 2.91582L63 3.73005V32.0301V60.3353L62.5164 61.1985L62.5163 61.1988C62.2045 61.7558 61.7556 62.2046 61.1983 62.5163L61.198 62.5165L60.3345 63H32.0209H3.70736L2.84793 62.5189L2.8479 62.5189C0.915741 61.4374 0.408024 58.6599 1.81494 56.9882C1.92716 56.8549 2.01331 56.7497 2.08261 56.6651C2.2859 56.4168 2.34415 56.3457 2.48995 56.2617C2.68087 56.1516 3.08159 56.0142 4.20436 55.9151C6.21637 55.7374 10.0096 55.7113 17.7363 55.6582C18.5633 55.6525 19.4353 55.6465 20.3551 55.64L37.4997 55.5184L37.768 55.5165L37.9993 55.3806L39.1308 54.7157L39.1309 54.7157C41.5538 53.2916 42.6422 50.0935 41.5678 47.5027C41.4991 47.3369 41.3906 47.1874 41.3288 47.1043C41.2488 46.9966 41.1483 46.8724 41.0325 46.7354C40.7997 46.46 40.4745 46.097 40.0582 45.6465C39.224 44.7436 37.9958 43.4594 36.3459 41.7646C33.0445 38.3734 28.0344 33.3179 21.064 26.3395C12.0549 17.3202 7.0784 12.3192 4.32175 9.45261C2.93995 8.01571 2.13633 7.13605 1.66561 6.56409C1.17994 5.97395 1.13639 5.81117 1.13242 5.79605C0.386456 2.95421 2.93548 0.404784 5.77941 1.15077L60.243 1.13842ZM60.243 1.13842C58.6942 0.672255 56.8868 1.41716 56.0528 2.93994L56.0528 2.94C56.0526 2.94029 56.0524 2.94065 56.0522 2.94106C56.0439 2.95577 55.9918 3.04852 55.94 3.47671C55.8862 3.92113 55.842 4.63671 55.8054 5.85448C55.7324 8.2804 55.6927 12.5684 55.6373 20.3676L55.5157 37.5074L55.5138 37.7757L55.3778 38.0071L54.7126 39.1383L54.7126 39.1384L60.243 1.13842ZM9.43733 4.33931C12.3047 7.09516 17.3072 12.0703 26.3291 21.0768C33.3094 28.0451 38.3664 33.0538 41.7586 36.3543C43.4539 38.0037 44.7385 39.2315 45.6416 40.0655C46.0922 40.4817 46.4554 40.8068 46.7308 41.0395C46.8679 41.1553 46.9921 41.2558 47.0998 41.3357C47.183 41.3975 47.3324 41.5059 47.4982 41.5746L9.43733 4.33931ZM9.43733 4.33931C8.00002 2.95791 7.1201 2.15451 6.54798 1.68393M9.43733 4.33931L6.54798 1.68393M6.54798 1.68393C5.95767 1.19839 5.79479 1.15481 5.77952 1.1508L6.54798 1.68393ZM60.5311 0.18103L60.5312 0.180856L60.5311 0.18103Z" stroke="#60E878" stroke-width="2"/>
</svg>
