<svg width="96" height="96" viewBox="0 0 96 96" fill="none" xmlns="http://www.w3.org/2000/svg">
<g clip-path="url(#clip0_383_811)">
<path d="M2.05272 47.4257C2.05047 55.4915 4.17429 63.3673 8.21269 70.309L1.6665 94.027L26.1264 87.6627C32.8917 91.3174 40.4717 93.2325 48.1745 93.2329H48.1948C73.6232 93.2329 94.3225 72.6997 94.3334 47.4618C94.3383 35.2322 89.5432 23.7323 80.8312 15.0804C72.1207 6.4292 60.5361 1.66232 48.1929 1.65674C22.7614 1.65674 2.06359 22.1888 2.0531 47.4257" fill="url(#paint0_linear_383_811)"/>
<path d="M0.405122 47.4106C0.402497 55.7667 2.60243 63.9241 6.78482 71.1144L0.00390625 95.6826L25.3409 89.0902C32.322 92.8674 40.1821 94.8588 48.1801 94.8618H48.2008C74.5415 94.8618 95.9844 73.59 95.9957 47.4486C96.0002 34.7795 91.0326 22.8662 82.0094 13.9044C72.985 4.94363 60.986 0.0052093 48.2008 0C21.8555 0 0.415996 21.2688 0.405497 47.4106H0.405122ZM15.4938 69.8761L14.5478 68.3859C10.5709 62.1109 8.4718 54.8595 8.4748 47.4136C8.48343 25.6852 26.3034 8.00744 48.2158 8.00744C58.8274 8.01191 68.8 12.1168 76.3009 19.5647C83.8013 27.0132 87.9286 36.9146 87.926 47.4456C87.9162 69.174 70.0959 86.854 48.2008 86.854H48.185C41.0558 86.8502 34.0637 84.9503 27.966 81.36L26.5149 80.5061L11.4794 84.4179L15.4938 69.8757V69.8761Z" fill="url(#paint1_linear_383_811)"/>
<path d="M36.2552 27.5899C35.3606 25.6166 34.419 25.5768 33.5682 25.5422C32.8715 25.5125 32.0751 25.5147 31.2794 25.5147C30.483 25.5147 29.189 25.812 28.0952 26.9971C27.0003 28.1833 23.915 31.0499 23.915 36.8803C23.915 42.711 28.1945 48.3456 28.7911 49.137C29.3884 49.927 37.0528 62.2745 49.1912 67.0246C59.2794 70.9722 61.3323 70.1871 63.5218 69.9891C65.7116 69.7919 70.5876 67.1232 71.5824 64.356C72.578 61.5891 72.578 59.2174 72.2795 58.7218C71.981 58.228 71.1846 57.9314 69.9903 57.3391C68.7957 56.7463 62.9244 53.8793 61.8299 53.4838C60.735 53.0886 59.9389 52.8914 59.1425 54.078C58.3461 55.2628 56.0591 57.9314 55.3621 58.7218C54.6658 59.5139 53.9687 59.6125 52.7748 59.0198C51.5798 58.4252 47.7337 57.1753 43.1708 53.1385C39.6206 49.9973 37.2238 46.1182 36.5271 44.9316C35.8304 43.7469 36.4525 43.1046 37.0513 42.5141C37.5879 41.9832 38.2459 41.1303 38.8436 40.4386C39.4391 39.7465 39.6378 39.2527 40.036 38.4624C40.4346 37.6713 40.2351 36.9792 39.937 36.3865C39.6378 35.7938 37.3171 29.9333 36.2552 27.5902" fill="white"/>
</g>
<defs>
<linearGradient id="paint0_linear_383_811" x1="48" y1="94.027" x2="48" y2="1.65674" gradientUnits="userSpaceOnUse">
<stop stop-color="#1FAF38"/>
<stop offset="1" stop-color="#60D669"/>
</linearGradient>
<linearGradient id="paint1_linear_383_811" x1="47.9998" y1="95.6826" x2="47.9998" y2="0" gradientUnits="userSpaceOnUse">
<stop stop-color="#F9F9F9"/>
<stop offset="1" stop-color="white"/>
</linearGradient>
<clipPath id="clip0_383_811">
<rect width="96" height="96" fill="white"/>
</clipPath>
</defs>
</svg>
