<svg width="58" height="59" viewBox="0 0 58 59" fill="none" xmlns="http://www.w3.org/2000/svg">
<path d="M13.675 43.706L12.078 47.611C12.028 47.73 12 47.862 12 48C12 48.552 12.448 49 13 49C13.065 49 13.128 48.994 13.188 48.982L55.188 40.982C55.652 40.895 56 40.489 56 40C56 39.685 55.854 39.404 55.627 39.221L50.624 35.219C50.453 35.082 50.236 35 50 35C49.933 35 49.868 35.007 49.805 35.019L32.878 38.405" stroke="#60E878" stroke-width="2" stroke-miterlimit="10"/>
<path d="M12.0293 48.2428L13.0293 52.2428C13.1383 52.6778 13.5313 52.9998 13.9993 52.9998C14.0643 52.9998 14.1273 52.9938 14.1873 52.9818L56.1883 44.9818C56.6503 44.8938 56.9993 44.4878 56.9993 43.9998C56.9993 43.9158 56.9893 43.8348 56.9693 43.7568L55.9693 39.7568" stroke="#60E878" stroke-width="2" stroke-miterlimit="10"/>
<path d="M1.33008 49.4219C4.53208 52.1469 10.5941 57.9999 20.0001 57.9999C22.6671 57.9999 28.0001 57.4529 28.0001 54.9999C28.0001 52.9059 26.3071 51.7569 25.0001 50.9229" stroke="#60E878" stroke-width="2" stroke-miterlimit="10"/>
<path d="M20.0781 51.8604L22.5761 54.6633" stroke="#60E878" stroke-width="2" stroke-miterlimit="10"/>
<path d="M27.6367 56.106C30.5057 55.692 32.9997 54.663 32.9997 53C32.9997 50.953 30.4887 49.877 30.4887 49.877" stroke="#60E878" stroke-width="2" stroke-miterlimit="10"/>
<path d="M20.8319 40.2881L17.7559 48.1121" stroke="#60E878" stroke-width="2" stroke-miterlimit="10"/>
<path d="M41.8047 23.0518L42.4037 24.9228" stroke="#60E878" stroke-width="2" stroke-miterlimit="10"/>
<path d="M41.147 21L40.516 19.032L41.656 16.769C41.874 16.396 42 15.963 42 15.5C42 14.119 40.881 13 39.5 13C38.119 13 37 14.119 37 15.5C37 15.618 37.008 15.733 37.024 15.847" stroke="#60E878" stroke-width="2" stroke-miterlimit="10"/>
<path d="M50 18C50 12.477 45.523 8 40 8C34.477 8 30 12.477 30 18C30 23.523 34.477 28 40 28L45 31L46 25.986C48.425 24.162 50 21.268 50 18Z" stroke="#60E878" stroke-width="2" stroke-miterlimit="10"/>
<path d="M37.6971 4.617C35.8631 2.407 33.0951 1 29.9991 1C26.0031 1 22.5541 3.344 20.9531 6.732" stroke="#60E878" stroke-width="2" stroke-miterlimit="10"/>
<path d="M48.7902 50.4629L36.1582 52.8699" stroke="#60E878" stroke-width="2" stroke-miterlimit="10"/>
<path d="M56.8109 48.9355L51.2539 49.9935" stroke="#60E878" stroke-width="2" stroke-miterlimit="10"/>
<path d="M2.23242 37.341C7.92042 34.778 14.0004 33 17.0004 33C20.0004 33 24.8264 33.025 27.0004 34C29.2294 35 33.0004 37.167 33.0004 39C33.0004 40.412 31.5944 41 30.0004 41C25.1564 41 25.6254 39 22.0004 39C18.0044 44.158 10.8974 44.036 10.0784 44.004" stroke="#60E878" stroke-width="2" stroke-miterlimit="10"/>
<path d="M29 10H13C11.895 10 11 10.895 11 12V22C11 23.105 11.895 24 13 24H18L24 28V24H28" stroke="#60E878" stroke-width="2" stroke-miterlimit="10"/>
</svg>
