<svg width="60" height="60" viewBox="0 0 60 60" fill="none" xmlns="http://www.w3.org/2000/svg">
<g clip-path="url(#clip0_355_392)">
<path d="M10.7016 46.432L7.43359 50.572C9.92559 52.332 13.5796 53.981 16.9596 54.667L18.3186 49.231" stroke="#60E878" stroke-width="2" stroke-miterlimit="10"/>
<path d="M20 59L26 35C22.844 35 19.125 33.766 17 32L2 51C5.083 54.875 13.5 59 20 59Z" stroke="#60E878" stroke-width="2" stroke-miterlimit="10"/>
<path d="M17 46C18.6569 46 20 44.6569 20 43C20 41.3431 18.6569 40 17 40C15.3431 40 14 41.3431 14 43C14 44.6569 15.3431 46 17 46Z" stroke="#60E878" stroke-width="2" stroke-miterlimit="10"/>
<path d="M25.1914 51.445C26.5954 51.767 28.2254 52 30.0014 52C32.8774 52 35.3704 51.3881 37.1444 50.7761L35.4774 45.3" stroke="#60E878" stroke-width="2" stroke-miterlimit="10"/>
<path d="M21.1484 54.4192C23.2844 55.1952 26.3744 56.0002 30.0004 56.0002C37.0004 56.0002 42.0004 53.0002 42.0004 53.0002L35.0004 30.0002C35.0004 30.0002 32.7194 31.0002 30.0004 31.0002C27.2814 31.0002 25.0004 30.0002 25.0004 30.0002L23.5464 34.7762" stroke="#60E878" stroke-width="2" stroke-miterlimit="10"/>
<path d="M29.1758 38.115C29.4378 38.04 29.7148 38 30.0008 38C31.6578 38 33.0008 39.343 33.0008 41C33.0008 42.657 31.6578 44 30.0008 44C29.7158 44 29.4408 43.96 29.1798 43.886" stroke="#60E878" stroke-width="2" stroke-miterlimit="10"/>
<path d="M45.2578 53.0001C48.4288 51.9631 51.7228 50.1701 53.3758 47.5571L49.3638 42.3651" stroke="#60E878" stroke-width="2" stroke-miterlimit="10"/>
<path d="M33.05 30.617L32 27C34.625 27 38.646 26.187 41 25L58 47C55.792 54.25 46.375 57.458 41 58L39.848 54.033" stroke="#60E878" stroke-width="2" stroke-miterlimit="10"/>
<path d="M41.2402 37.57C41.7342 37.212 42.3422 37 43.0002 37C44.6572 37 46.0002 38.343 46.0002 40C46.0002 41.657 44.6572 43 43.0002 43C42.7282 43 42.4652 42.964 42.2142 42.896" stroke="#60E878" stroke-width="2" stroke-miterlimit="10"/>
<path d="M15.2363 8.27405L38.8683 1.90405L42.0813 13.8271" stroke="#60E878" stroke-width="2" stroke-miterlimit="10"/>
<path d="M11.2012 9.3611L12.8072 8.9281" stroke="#60E878" stroke-width="2" stroke-miterlimit="10"/>
<path d="M39.6875 20.3151L40.0885 21.8011" stroke="#60E878" stroke-width="2" stroke-miterlimit="10"/>
<path d="M14.3283 29.777L10.0273 13.82L36.0473 6.80701L38.9983 17.759" stroke="#60E878" stroke-width="2" stroke-miterlimit="10"/>
<path d="M14.2715 17.333L23.8045 14.764" stroke="#60E878" stroke-width="2" stroke-miterlimit="10"/>
<path d="M15.2578 21.067L23.8038 18.764" stroke="#60E878" stroke-width="2" stroke-miterlimit="10"/>
<path d="M27.418 16.646L32.001 18L33.23 12.229" stroke="#60E878" stroke-width="2" stroke-miterlimit="10"/>
<path d="M53 10V15" stroke="#60E878" stroke-width="2" stroke-miterlimit="10"/>
<path d="M53 19V24" stroke="#60E878" stroke-width="2" stroke-miterlimit="10"/>
<path d="M60 17H55" stroke="#60E878" stroke-width="2" stroke-miterlimit="10"/>
<path d="M51 17H46" stroke="#60E878" stroke-width="2" stroke-miterlimit="10"/>
<path d="M6 27H1" stroke="#60E878" stroke-width="2" stroke-miterlimit="10"/>
<path d="M6.58283 22.5831L3.42383 19.4241" stroke="#60E878" stroke-width="2" stroke-miterlimit="10"/>
<path d="M6.58283 31.417L3.42383 34.576" stroke="#60E878" stroke-width="2" stroke-miterlimit="10"/>
</g>
<defs>
<clipPath id="clip0_355_392">
<rect width="60" height="60" fill="white"/>
</clipPath>
</defs>
</svg>
