<svg width="96" height="96" viewBox="0 0 96 96" fill="none" xmlns="http://www.w3.org/2000/svg">
<g clip-path="url(#clip0_383_806)">
<path d="M48 0C35.2725 0 23.055 5.06025 14.0625 14.0588C5.06072 23.0608 0.00249352 35.2694 0 48C0 60.7253 5.0625 72.9427 14.0625 81.9412C23.055 90.9398 35.2725 96 48 96C60.7275 96 72.945 90.9398 81.9375 81.9412C90.9375 72.9427 96 60.7253 96 48C96 35.2747 90.9375 23.0573 81.9375 14.0588C72.945 5.06025 60.7275 0 48 0Z" fill="url(#paint0_linear_383_806)"/>
<path d="M21.7274 47.4932C35.7224 41.3972 45.0524 37.3779 49.7174 35.4362C63.0524 29.8914 65.8199 28.9284 67.6274 28.8958C68.0249 28.8894 68.9099 28.9877 69.4874 29.4545C69.9674 29.8483 70.1024 30.3808 70.1699 30.7547C70.2299 31.1282 70.3124 31.9794 70.2449 32.6439C69.5249 40.2339 66.3974 58.6524 64.8074 67.1537C64.1399 70.7507 62.8124 71.9567 61.5299 72.0744C58.7399 72.3309 56.6249 70.2324 53.9249 68.4632C49.7024 65.6934 47.3174 63.9699 43.2149 61.2677C38.4749 58.1447 41.5499 56.4279 44.2499 53.6229C44.9549 52.8887 57.2399 41.7174 57.4724 40.7042C57.5024 40.5774 57.5324 40.1049 57.2474 39.8559C56.9699 39.6062 56.5574 39.6917 56.2574 39.7592C55.8299 39.8552 49.0874 44.3162 36.0074 53.1414C34.0949 54.4569 32.3624 55.0982 30.8024 55.0644C29.0924 55.0277 25.7924 54.0954 23.3399 53.2989C20.3399 52.3217 17.9474 51.8049 18.1574 50.1452C18.2624 49.2812 19.4549 48.3969 21.7274 47.4932Z" fill="white"/>
</g>
<defs>
<linearGradient id="paint0_linear_383_806" x1="48" y1="0" x2="48" y2="96" gradientUnits="userSpaceOnUse">
<stop stop-color="#2AABEE"/>
<stop offset="1" stop-color="#229ED9"/>
</linearGradient>
<clipPath id="clip0_383_806">
<rect width="96" height="96" fill="white"/>
</clipPath>
</defs>
</svg>
