<svg width="141" height="40" viewBox="0 0 141 40" fill="none" xmlns="http://www.w3.org/2000/svg">
<path fill-rule="evenodd" clip-rule="evenodd" d="M15.9825 39.8653C10.0329 39.049 4.83411 35.3279 2.06446 29.9038C-1.72022 22.4914 -0.189671 13.0566 5.74109 7.24234C9.24695 3.80505 13.5175 2.07088 18.4757 2.07088C23.5268 2.07088 27.1649 3.57436 31.4822 7.44592C33.3001 9.07633 34.0618 9.44851 35.608 9.46266C37.1822 9.47701 38.3818 8.88474 40.2285 7.18162C43.6706 4.00706 47.2448 2.39945 51.6482 2.04515C55.0338 1.77279 59.1131 2.74864 62.0856 4.54215C62.9772 5.07999 64.4705 6.22542 65.4041 7.08749C67.3784 8.91087 68.4473 9.44989 70.0885 9.44989C71.7297 9.44989 72.7986 8.91087 74.773 7.08749C75.7066 6.22542 77.1999 5.07999 78.0914 4.54215C81.0639 2.74864 85.1432 1.77279 88.5288 2.04515C92.9323 2.39945 96.5065 4.00706 99.9486 7.18162C101.795 8.88474 102.995 9.47701 104.569 9.46266C106.115 9.44851 106.877 9.07633 108.695 7.44592C113.012 3.57436 116.65 2.07088 121.701 2.07088C134.288 2.07088 143.016 14.3454 139.32 26.8489C138.38 30.0305 136.689 32.7427 134.204 35.0572C130.607 38.4058 126.774 39.9146 121.802 39.938C116.664 39.9623 112.869 38.3923 108.595 34.4739C106.87 32.8921 106.049 32.5146 104.363 32.5287C103.03 32.5397 101.587 33.2021 100.555 34.2763C99.3318 35.5502 97.0881 37.1989 95.4371 38.0368C91.0728 40.252 86.3344 40.5975 81.5684 39.0482C79.1806 38.2718 76.9044 36.8896 74.773 34.9214C72.7986 33.098 71.7297 32.559 70.0885 32.559C68.4473 32.559 67.3784 33.098 65.4041 34.9214C63.2726 36.8896 60.9965 38.2718 58.6086 39.0482C53.8426 40.5975 49.1043 40.252 44.7399 38.0368C43.0889 37.1989 40.8452 35.5502 39.6219 34.2763C38.5905 33.2021 37.1471 32.5397 35.8136 32.5287C34.1281 32.5146 33.3071 32.8921 31.5818 34.4739C28.5762 37.2297 25.9541 38.7157 22.7487 39.4801C20.7956 39.9458 17.8089 40.1158 15.9825 39.8653Z" fill="#60E878"/>
</svg>
