<svg width="493" height="165" viewBox="0 0 493 165" fill="none" xmlns="http://www.w3.org/2000/svg">
<path fill-rule="evenodd" clip-rule="evenodd" d="M489.73 11.2889C491.803 17.0641 490.486 24.9931 485.388 35.3159C473.629 59.1283 446.359 78.186 410.089 93.2047C373.779 108.24 328.256 119.305 279.71 127.013C268.437 128.802 256.999 130.411 245.472 131.847C246.327 134.606 247.755 137.153 249.692 139.502C254.71 145.59 263.211 150.437 274.295 154.11C285.359 157.776 298.889 160.236 313.84 161.621C343.739 164.393 379.193 162.856 411.683 158.172C444.196 153.485 473.623 145.661 491.522 135.925C492.007 135.661 492.615 135.84 492.879 136.325C493.142 136.811 492.963 137.418 492.478 137.682C474.264 147.589 444.557 155.453 411.968 160.152C379.357 164.853 343.741 166.402 313.655 163.613C298.613 162.219 284.921 159.738 273.666 156.008C262.429 152.285 253.514 147.283 248.149 140.774C245.96 138.12 244.374 135.227 243.458 132.096C156.303 142.791 64.3657 143.621 0.908706 137.799C0.358731 137.749 -0.0462092 137.262 0.0042471 136.712C0.0547034 136.162 0.541449 135.757 1.09142 135.807C64.3487 141.611 156.036 140.79 242.98 130.14C242.171 126.038 242.466 121.55 244.009 116.675C246.992 107.246 254.623 96.3934 267.814 83.9663C279.796 72.6786 301.868 58.7923 327.527 45.6059C353.208 32.4079 382.571 19.866 409.192 11.2891C422.503 7.00077 435.145 3.69824 446.309 1.80298C457.457 -0.0895063 467.204 -0.591731 474.692 0.774207C482.18 2.1403 487.628 5.42776 489.73 11.2889ZM244.971 129.894C244.191 126.086 244.455 121.894 245.915 117.278C248.749 108.323 256.098 97.7518 269.186 85.422C280.954 74.3349 302.819 60.5523 328.441 47.3847C354.041 34.2286 383.303 21.7314 409.806 13.1928C423.057 8.92344 435.602 5.64921 446.644 3.77477C457.702 1.89755 467.181 1.43714 474.333 2.74174C481.483 4.04618 486.089 7.06244 487.848 11.9643C489.638 16.9521 488.624 24.2454 483.595 34.4303C472.168 57.5708 445.473 76.3883 409.324 91.3568C373.214 106.309 327.861 117.343 279.396 125.037C268.063 126.837 256.561 128.453 244.971 129.894Z" fill="#60E878"/>
</svg>
