<svg width="508" height="44" viewBox="0 0 508 44" fill="none" xmlns="http://www.w3.org/2000/svg">
<path fill-rule="evenodd" clip-rule="evenodd" d="M178.07 38.2621C118.249 46.1852 61.2219 43.5652 1.48912 10.0846C1.00735 9.81461 0.397894 9.98626 0.127861 10.468C-0.142173 10.9498 0.0294719 11.5592 0.51124 11.8293C60.7517 45.5944 118.261 48.2011 178.333 40.2448C206.008 36.5792 234.251 30.6682 263.546 24.5279C276.789 27.1546 289.301 29.3999 300.814 30.7866C373.58 39.5513 424.7 41.0927 457.883 38.7722C474.467 37.6124 486.62 35.485 494.769 32.7881C498.84 31.4405 501.964 29.9343 504.148 28.2979C506.326 26.6654 507.67 24.8245 507.947 22.7991C508.228 20.7537 507.387 18.7837 505.773 16.9846C504.165 15.1916 501.72 13.4831 498.565 11.8889C492.248 8.6968 482.856 5.84922 470.896 3.74178C446.959 -0.476234 412.532 -1.7646 371.35 3.23876C335.954 7.5392 302.586 14.3179 270.599 21.0073C268.237 21.5013 265.883 21.9948 263.536 22.4867C257.838 21.3546 251.999 20.1515 246.039 18.9148C244.578 18.6118 243.11 18.3068 241.636 18.0003C222.986 14.1246 203.225 10.0182 182.989 6.81273C139.327 -0.103432 93.3214 -2.84922 51.1971 10.0005C50.6689 10.1616 50.3713 10.7205 50.5324 11.2487C50.6936 11.777 51.2524 12.0746 51.7807 11.9134C93.4649 -0.802025 139.106 1.88657 182.676 8.7881C202.863 11.9858 222.579 16.0828 241.237 19.9601C242.709 20.266 244.174 20.5705 245.632 20.8731C250.006 21.7805 254.318 22.6708 258.561 23.5289C230.893 29.3215 204.225 34.798 178.07 38.2621ZM268.571 23.4751C269.383 23.3051 270.195 23.1351 271.009 22.965C302.995 16.2757 336.289 9.51327 371.591 5.22416C412.615 0.240036 446.84 1.53363 470.549 5.71143C482.412 7.80189 491.591 10.6057 497.663 13.6739C500.703 15.2099 502.906 16.7839 504.284 18.32C505.657 19.85 506.14 21.2559 505.966 22.5275C505.789 23.819 504.898 25.2362 502.949 26.6974C501.004 28.1547 498.104 29.5777 494.14 30.8894C486.219 33.5111 474.254 35.6224 457.743 36.777C424.736 39.0853 373.754 37.5579 301.053 28.801C290.954 27.5846 280.072 25.7021 268.571 23.4751Z" fill="#60E878"/>
</svg>
