<svg width="173" height="46" viewBox="0 0 173 46" fill="none" xmlns="http://www.w3.org/2000/svg">
<path fill-rule="evenodd" clip-rule="evenodd" d="M31.9296 43.4968C22.0996 42.3492 12.0611 38.5103 1.58946 30.8703C1.1433 30.5448 0.517736 30.6426 0.192223 31.0888C-0.13329 31.535 -0.0354853 32.1605 0.410676 32.486C11.1288 40.3058 21.4882 44.2914 31.6977 45.4833C41.9 46.6743 51.8902 45.0685 61.8633 41.7972C65.2657 40.6811 68.6698 39.37 72.0829 37.9079C82.7914 40.9554 94.2319 43.2556 107.097 41.3283C132.103 37.5822 148.867 32.1683 159.141 26.5116C164.276 23.6843 167.844 20.767 169.996 17.9171C172.153 15.0598 172.934 12.1971 172.307 9.58039C171.683 6.97508 169.719 4.85483 166.897 3.34958C164.074 1.84364 160.313 0.90498 155.883 0.670872C147.016 0.20229 135.295 2.54542 122.542 9.11096C115.742 12.6119 109.104 16.3126 102.614 19.9306C98.7024 22.1112 94.8448 24.2617 91.0381 26.3204C84.5728 29.8168 78.2312 33.0619 71.9503 35.7872C69.3728 35.0443 66.8235 34.2585 64.2894 33.4774C63.3133 33.1765 62.3395 32.8763 61.3671 32.5795C47.3472 28.3004 33.6223 24.7307 18.4657 30.7488C17.9524 30.9526 17.7015 31.5339 17.9053 32.0472C18.1092 32.5605 18.6905 32.8114 19.2038 32.6076C33.6517 26.8709 46.7596 30.2121 60.7833 34.4924C61.7702 34.7936 62.7615 35.0995 63.7579 35.4069C65.4994 35.9442 67.2563 36.4863 69.0321 37.0167C66.4274 38.0802 63.8315 39.0467 61.2399 39.8968C51.4573 43.1056 41.7666 44.6452 31.9296 43.4968ZM74.9782 36.6335C80.607 34.0918 86.2662 31.1748 91.9895 28.0796C95.8452 25.9944 99.7219 23.8331 103.64 21.6487C110.103 18.0455 116.678 14.3796 123.458 10.8891C135.956 4.45467 147.327 2.22148 155.778 2.66808C160.006 2.89157 163.461 3.78339 165.956 5.11428C168.453 6.44587 169.912 8.16881 170.362 10.0465C170.81 11.9129 170.317 14.173 168.4 16.7119C166.477 19.2582 163.17 22.0105 158.177 24.7596C148.195 30.2555 131.692 35.6215 106.801 39.3504C95.2397 41.0823 84.8691 39.303 74.9782 36.6335Z" fill="#60E878"/>
</svg>
