<svg width="739" height="85" viewBox="0 0 739 85" fill="none" xmlns="http://www.w3.org/2000/svg">
<g clip-path="url(#clip0_357_590)">
<path d="M734.579 30.0235L733.932 29.5879C733.592 30.0581 733.145 30.4402 732.628 30.7022C732.11 30.9643 731.537 31.0986 730.957 31.094C730.379 31.0976 729.808 30.9628 729.293 30.7008C728.778 30.4387 728.332 30.0571 727.995 29.5879L727.347 30.0609C727.72 30.5747 728.198 31.0027 728.75 31.3162C729.302 31.6296 729.914 31.8213 730.546 31.8782C730.546 34.9319 729.333 37.8604 727.174 40.0197C725.015 42.179 722.086 43.392 719.033 43.392C715.979 43.392 713.05 42.179 710.891 40.0197C708.732 37.8604 707.519 34.9319 707.519 31.8782C708.151 31.8213 708.763 31.6296 709.315 31.3162C709.867 31.0027 710.345 30.5747 710.718 30.0609L710.07 29.5879C709.73 30.0535 709.284 30.4322 708.769 30.6932C708.254 30.9542 707.685 31.0903 707.108 31.0903C706.531 31.0903 705.962 30.9542 705.447 30.6932C704.932 30.4322 704.487 30.0535 704.146 29.5879L703.486 30.0609C703.862 30.5765 704.345 31.0055 704.901 31.319C705.457 31.6325 706.074 31.8231 706.71 31.8782C706.71 35.1464 708.008 38.2808 710.319 40.5918C712.63 42.9028 715.764 44.2011 719.033 44.2011C722.301 44.2011 725.435 42.9028 727.746 40.5918C730.057 38.2808 731.356 35.1464 731.356 31.8782C731.995 31.8211 732.615 31.6257 733.171 31.3055C733.728 30.9852 734.208 30.5478 734.579 30.0235Z" fill="#60E878"/>
<path d="M717.663 26.3269C718.375 23.2264 718.375 20.0047 717.663 16.9043C716.966 14.8505 715.808 15.6595 715.086 18.8585C714.38 21.9555 714.38 25.1717 715.086 28.2687C715.833 30.335 716.991 29.4637 717.663 26.3269Z" fill="#60E878"/>
<path d="M722.891 26.3269C723.604 23.2264 723.604 20.0047 722.891 16.9043C722.194 14.8505 721.036 15.6595 720.327 18.8585C719.615 21.9549 719.615 25.1724 720.327 28.2687C721.011 30.335 722.169 29.4637 722.891 26.3269Z" fill="#60E878"/>
<path d="M717.115 9.13692C715.825 9.13923 714.538 9.26006 713.269 9.4979C710.805 8.99251 708.265 8.99251 705.801 9.4979C703.343 8.93937 700.791 8.93937 698.332 9.4979C695.882 8.87566 693.315 8.87566 690.864 9.4979C688.417 8.82226 685.829 8.84813 683.396 9.57258C680.963 8.79533 678.344 8.82151 675.927 9.64726C673.51 8.76333 670.852 8.79877 668.459 9.74684C667.275 9.24294 665.999 8.99258 664.713 9.01187C663.426 9.03117 662.158 9.3197 660.99 9.85887C659.826 9.27647 658.537 8.98682 657.236 9.01501C655.935 9.04321 654.66 9.38841 653.522 10.0207C652.431 9.36613 651.185 9.01384 649.912 9C643.178 9.13692 638 18.3106 638 29.5879C638 40.8653 643.178 50.0514 649.539 50.0514C650.812 50.0326 652.058 49.6761 653.148 49.0183C654.284 49.6579 655.56 50.0073 656.862 50.0355C658.165 50.0637 659.455 49.7699 660.617 49.1801C661.783 49.7269 663.051 50.0197 664.339 50.039C665.627 50.0583 666.904 49.8037 668.085 49.2921C669.321 49.7872 670.638 50.0448 671.969 50.0514C673.208 50.0438 674.438 49.8249 675.603 49.4042C676.851 49.8264 678.158 50.0449 679.475 50.0514C680.745 50.0689 682.009 49.8841 683.221 49.5037C684.475 49.89 685.78 50.0872 687.092 50.0888C688.329 50.0608 689.556 49.8639 690.739 49.5037C693.188 50.1439 695.76 50.1439 698.208 49.5037C699.472 49.8055 700.767 49.9601 702.067 49.9643C703.298 49.9658 704.526 49.828 705.726 49.5535C708.189 50.0709 710.732 50.0709 713.195 49.5535C714.462 49.8016 715.75 49.9267 717.041 49.9269C719.77 49.9943 722.485 49.5149 725.025 48.5171C727.566 47.5193 729.882 46.0232 731.836 44.1169C733.79 42.2106 735.342 39.9326 736.403 37.4172C737.463 34.9017 738.009 32.1995 738.009 29.4697C738.009 26.7399 737.463 24.0377 736.403 21.5222C735.342 19.0067 733.79 16.7288 731.836 14.8225C729.882 12.9162 727.566 11.4201 725.025 10.4223C722.485 9.42449 719.77 8.94513 717.041 9.01245L717.115 9.13692ZM709.647 9.93355C710.182 9.93355 710.705 9.93355 711.24 10.0082L710.556 10.2323L710.182 10.3568L709.323 10.7053C708.776 10.4563 708.228 10.2323 707.668 10.0331C708.313 9.96555 708.961 9.93231 709.61 9.93355H709.647ZM707.705 11.4397L707.033 11.8131L706.66 12.0247L705.988 12.4479L705.676 12.6595C705.44 12.8089 705.216 12.9707 704.992 13.145C704.241 12.4945 703.437 11.9074 702.589 11.3899C703.616 10.9544 704.678 10.6087 705.763 10.3568C706.614 10.5544 707.446 10.8208 708.253 11.1534L708.079 11.253L707.705 11.4397ZM703.971 13.9292L703.623 14.2403L703.361 14.4768L703.025 14.788C702.938 14.8752 702.851 14.9498 702.776 15.037L702.452 15.3606L702.204 15.622C702.104 15.734 701.992 15.8461 701.892 15.9705L701.668 16.2195C701.558 16.3425 701.454 16.4713 701.357 16.6053C701.282 16.68 701.22 16.7672 701.145 16.8543L700.822 17.2775L700.66 17.5016L700.548 17.6385C699.843 16.4041 699.008 15.2483 698.059 14.1906C699.199 13.2136 700.452 12.3777 701.793 11.7011C702.735 12.2216 703.623 12.8346 704.444 13.5308L704.295 13.6553L703.971 13.9292ZM699.714 18.9081L699.527 19.2317L699.341 19.5429L699.154 19.8914L698.98 20.2026C698.98 20.3147 698.868 20.4391 698.805 20.5512L698.656 20.8748C698.595 20.9916 698.541 21.1122 698.494 21.2358L698.345 21.5469L698.195 21.9204C698.195 22.0199 698.108 22.132 698.071 22.244L697.934 22.6174L697.747 22.9908C697.747 23.1153 697.66 23.2522 697.623 23.3767C697.584 23.4786 697.551 23.5824 697.523 23.6879C697.523 23.8248 697.436 23.9617 697.399 24.0862C697.376 24.1956 697.347 24.3036 697.312 24.4098C697.312 24.5468 697.312 24.6837 697.212 24.8206L697.137 25.1318C697.137 25.2687 697.137 25.4056 697.05 25.5426C697.036 25.6515 697.015 25.7595 696.988 25.8662C696.988 26.0031 696.988 26.14 696.988 26.2769C696.988 26.4139 696.988 26.4886 696.926 26.6006C696.864 26.7126 696.926 26.8869 696.926 27.0238V27.335C696.926 27.4843 696.926 27.6462 696.926 27.7955C696.932 27.8909 696.932 27.9865 696.926 28.0818C696.926 28.2561 696.926 28.4303 696.926 28.5922C696.926 28.754 696.926 28.754 696.926 28.8287C696.926 28.9033 696.926 29.339 696.926 29.5879C696.926 29.8369 696.926 30.0983 696.926 30.3472C696.926 30.5962 696.926 30.4966 696.926 30.5837C696.926 30.6709 696.926 30.9198 696.926 31.0941C696.932 31.1894 696.932 31.285 696.926 31.3804C696.926 31.5297 696.926 31.6916 696.926 31.8409V32.1521C696.926 32.289 696.926 32.4384 696.926 32.5753C696.926 32.7122 696.926 32.7869 696.988 32.8989C697.05 33.011 696.988 33.1728 696.988 33.3222C697.016 33.4243 697.037 33.5283 697.05 33.6333C697.05 33.7703 697.05 33.9072 697.137 34.0441L697.212 34.3553C697.212 34.4922 697.274 34.6291 697.312 34.7661C697.347 34.8723 697.376 34.9803 697.399 35.0897C697.399 35.2142 697.474 35.3511 697.523 35.488C697.551 35.5935 697.584 35.6973 697.623 35.7992C697.657 35.9301 697.698 36.0589 697.747 36.1851L697.859 36.5087C697.859 36.6332 697.947 36.7576 697.996 36.8946L698.121 37.2057L698.27 37.5792L698.42 37.8903C698.466 38.0139 698.52 38.1345 698.581 38.2513L698.731 38.5749C698.793 38.687 698.855 38.8114 698.905 38.9235L699.079 39.2471L699.266 39.5832L699.453 39.8944L699.639 40.2304L699.839 40.5416L699.975 40.7657C699.259 42.0812 698.38 43.3021 697.361 44.4003C695.704 42.887 694.323 41.0969 693.279 39.1102C695.674 32.9879 695.674 26.188 693.279 20.0657C694.325 18.0773 695.711 16.287 697.374 14.7756C698.388 15.8689 699.265 17.081 699.988 18.3853C699.988 18.3853 699.901 18.5222 699.851 18.5969L699.714 18.9081ZM701.145 42.222L701.357 42.4834L701.668 42.8568L701.892 43.1058C701.992 43.2303 702.104 43.3423 702.204 43.4543L702.452 43.7157C702.554 43.8297 702.662 43.9378 702.776 44.0393C702.853 44.1284 702.936 44.2116 703.025 44.2883L703.361 44.5995L703.623 44.8484L703.971 45.1472L704.245 45.3712L704.394 45.4957C703.573 46.1919 702.685 46.8049 701.743 47.3254C700.403 46.6488 699.149 45.8129 698.009 44.836C698.959 43.7783 699.793 42.6225 700.498 41.3881L700.61 41.525C700.61 41.6121 700.722 41.6743 700.772 41.749L701.145 42.222ZM706.037 46.6782L706.709 47.1014L707.083 47.313L707.755 47.6864L708.116 47.8731L708.303 47.9727C707.496 48.3053 706.663 48.5717 705.813 48.7693C704.726 48.5231 703.663 48.1772 702.639 47.7362C703.487 47.2187 704.291 46.6316 705.042 45.9811L705.726 46.479L706.037 46.6782ZM698.245 48.7693C697.108 48.4759 696.006 48.0585 694.959 47.5246C695.848 46.9191 696.681 46.236 697.449 45.4832C698.498 46.3673 699.637 47.1391 700.847 47.786C700.011 48.1922 699.141 48.5214 698.245 48.7693ZM690.777 48.7693C689.598 48.4333 688.465 47.9525 687.404 47.3379C688.316 46.6323 689.151 45.8311 689.893 44.948C690.944 45.9915 692.119 46.9027 693.391 47.6615C692.54 48.0989 691.648 48.4492 690.727 48.7071L690.777 48.7693ZM683.308 48.6947C682.042 48.311 680.839 47.745 679.736 47.0143C680.669 46.159 681.504 45.203 682.225 44.1638C683.278 45.3962 684.492 46.4806 685.835 47.3877C685.015 47.9029 684.138 48.3206 683.221 48.6324L683.308 48.6947ZM651.841 29.5879C651.699 24.1965 653.306 18.9038 656.422 14.5017C657.596 16.3631 658.486 18.3895 659.061 20.5138C657.053 26.3966 657.053 32.7792 659.061 38.6621C658.486 40.7864 657.596 42.8128 656.422 44.6742C653.301 40.2745 651.694 34.9801 651.841 29.5879ZM655.949 45.3588C655.183 46.4364 654.23 47.3681 653.136 48.1096C648.58 45.4085 645.319 38.1517 645.319 29.5879C645.319 21.0242 648.58 13.7798 653.136 11.0663C654.234 11.809 655.187 12.7453 655.949 13.8296C652.59 18.3859 650.839 23.9287 650.97 29.5879C650.841 35.2508 652.591 40.7969 655.949 45.3588ZM656.932 13.8794C657.966 12.642 659.236 11.6223 660.667 10.8796C661.718 11.4708 662.665 12.2321 663.467 13.1325C661.781 14.9446 660.447 17.0552 659.534 19.3562C658.921 17.4205 658.045 15.5778 656.932 13.8794ZM659.422 21.9453C659.998 24.4519 660.286 27.016 660.281 29.5879C660.291 32.1594 660.007 34.7236 659.434 37.2306C657.99 32.2378 657.99 26.9381 659.434 21.9453H659.422ZM659.509 39.857C660.42 42.1592 661.754 44.2702 663.442 46.0807C662.638 46.9534 661.696 47.6892 660.654 48.259C659.221 47.5202 657.95 46.4999 656.92 45.2592C658.027 43.584 658.902 41.7668 659.521 39.857H659.509ZM659.882 38.6123C661.476 32.6931 661.476 26.4579 659.882 20.5387C660.765 18.0109 662.154 15.6899 663.965 13.7176C665.06 15.1191 665.956 16.6646 666.629 18.3106C664.933 21.8281 664.052 25.6829 664.052 29.5879C664.052 33.493 664.933 37.3478 666.629 40.8653C665.954 42.509 665.053 44.0507 663.953 45.4459C662.148 43.4733 660.767 41.1518 659.895 38.6247L659.882 38.6123ZM664.513 13.1699C665.571 12.1293 666.806 11.2862 668.16 10.6804C669.172 11.1573 670.108 11.7824 670.936 12.5351C669.405 13.9237 668.114 15.5555 667.114 17.3646C666.44 15.8625 665.569 14.4561 664.525 13.1823L664.513 13.1699ZM667.002 19.3064C669.309 25.9582 669.309 33.1928 667.002 39.8446C665.566 36.6116 664.824 33.1132 664.824 29.5755C664.824 26.0378 665.566 22.5394 667.002 19.3064ZM667.077 41.7117C668.073 43.523 669.365 45.1553 670.898 46.5413C670.07 47.2939 669.135 47.919 668.123 48.3959C666.768 47.7901 665.533 46.947 664.476 45.9064C665.539 44.6439 666.431 43.2459 667.127 41.749L667.077 41.7117ZM667.475 40.7781C670.217 33.5614 670.217 25.5896 667.475 18.3729C668.477 16.4049 669.836 14.6406 671.483 13.1699C672.533 14.2613 673.433 15.4878 674.16 16.817C671.792 20.6605 670.538 25.0861 670.538 29.6004C670.538 34.1147 671.792 38.5403 674.16 42.3838C673.433 43.713 672.533 44.9395 671.483 46.0309C669.848 44.5473 668.505 42.7698 667.525 40.7906L667.475 40.7781ZM685.897 11.8504C684.554 12.7575 683.34 13.842 682.288 15.0743C681.566 14.0351 680.731 13.0791 679.798 12.2239C680.877 11.5056 682.05 10.9401 683.284 10.5435C684.203 10.875 685.081 11.3137 685.897 11.8504ZM690.727 10.4688C691.637 10.749 692.517 11.1201 693.353 11.5766C692.081 12.3354 690.907 13.2467 689.856 14.2901C689.113 13.407 688.279 12.6059 687.366 11.9002C688.423 11.2866 689.552 10.8058 690.727 10.4688ZM698.195 10.4688C699.08 10.7082 699.943 11.0247 700.772 11.4148C699.559 12.0616 698.42 12.8379 697.374 13.73C696.613 12.97 695.779 12.2863 694.884 11.6886C695.953 11.1371 697.081 10.7071 698.245 10.4066L698.195 10.4688ZM696.764 14.203C695.202 15.6452 693.879 17.3257 692.843 19.1819C692.182 17.6862 691.347 16.274 690.354 14.9747C691.463 13.856 692.719 12.8929 694.088 12.1118C695.071 12.7015 695.985 13.3987 696.814 14.1906L696.764 14.203ZM692.768 38.1393C691.538 35.4564 690.901 32.5395 690.901 29.5879C690.901 26.6363 691.538 23.7195 692.768 21.0366C694.711 26.5721 694.711 32.6038 692.768 38.1393ZM689.756 43.6908C687.919 41.6891 686.509 39.3344 685.611 36.7701C686.839 32.0607 686.839 27.1152 685.611 22.4058C686.506 19.8438 687.917 17.4926 689.756 15.4975C690.823 16.8863 691.702 18.4097 692.37 20.0284C690.87 22.9916 690.088 26.2665 690.088 29.5879C690.088 32.9094 690.87 36.1843 692.37 39.1475C691.715 40.7662 690.853 42.2934 689.806 43.6908H689.756ZM682.188 42.7697C679.779 39.559 678.313 35.7396 677.956 31.7413C677.956 31.0318 678.031 30.3099 678.031 29.5879C678.031 28.866 678.031 28.1441 677.956 27.447C678.309 23.4477 679.775 19.6271 682.188 16.4186C683.333 18.2653 684.201 20.2699 684.765 22.3685C683.188 27.0523 683.188 32.1236 684.765 36.8074C684.217 38.9072 683.366 40.9158 682.238 42.7697H682.188ZM684.429 29.5879C684.43 27.6625 684.685 25.7456 685.188 23.8871C685.985 27.6459 685.985 31.53 685.188 35.2888C684.684 33.4305 684.429 31.5135 684.429 29.5879ZM689.296 14.8627C687.599 16.6818 686.242 18.7895 685.288 21.0864C684.696 19.1932 683.859 17.3854 682.798 15.7091C683.909 14.3844 685.209 13.231 686.657 12.2861C687.636 13.0368 688.522 13.9018 689.296 14.8627ZM681.765 15.7091C679.754 18.2979 678.35 21.3053 677.657 24.5094C677.238 21.846 676.398 19.2662 675.168 16.8667C676.23 15.2691 677.551 13.8599 679.076 12.6969C680.098 13.5814 681.002 14.5938 681.765 15.7091ZM674.645 41.5499C672.518 37.9222 671.397 33.7931 671.397 29.5879C671.397 25.3828 672.518 21.2536 674.645 17.626C676.125 20.6992 676.996 24.0301 677.209 27.4346C677.209 28.1316 677.11 28.866 677.11 29.5879C677.11 30.3099 677.11 31.0443 677.209 31.7413C676.998 35.1461 676.127 38.4773 674.645 41.5499ZM674.707 16.0826C673.99 14.8377 673.125 13.6842 672.131 12.6471C673.207 11.7961 674.407 11.1159 675.691 10.6306C676.666 11.019 677.587 11.5338 678.429 12.1616C677 13.276 675.746 14.5976 674.707 16.0826ZM674.707 43.0933C675.745 44.5759 677.004 45.8899 678.442 46.9894C677.604 47.6305 676.683 48.154 675.703 48.5453C674.418 48.0649 673.216 47.3844 672.143 46.5288C673.139 45.4958 674 44.3416 674.707 43.0933ZM675.143 42.3092C676.374 39.9104 677.215 37.3303 677.632 34.6665C678.325 37.8705 679.729 40.878 681.74 43.4668C680.985 44.5806 680.089 45.5929 679.076 46.479C677.542 45.3181 676.212 43.9087 675.143 42.3092ZM682.761 43.417C683.821 41.7407 684.658 39.9329 685.25 38.0397C686.205 40.3366 687.562 42.4444 689.258 44.2634C688.468 45.196 687.569 46.0316 686.582 46.7529C685.169 45.8313 683.898 44.7074 682.811 43.417H682.761ZM690.366 44.2634C691.359 42.9641 692.195 41.5519 692.856 40.0562C693.891 41.9125 695.215 43.5929 696.776 45.0351C695.967 45.8451 695.074 46.567 694.113 47.1885C692.739 46.3846 691.479 45.4009 690.366 44.2634ZM702.104 9.93355C702.707 9.93536 703.309 9.9686 703.909 10.0331C703.158 10.2793 702.422 10.5702 701.706 10.9045C701.119 10.5941 700.512 10.3238 699.888 10.0954C700.622 9.99196 701.363 9.9379 702.104 9.93355ZM694.636 9.93355C695.298 9.93377 695.96 9.9837 696.615 10.0829C695.787 10.3599 694.983 10.7055 694.212 11.1161C693.575 10.7478 692.914 10.4234 692.233 10.1452C693.014 10.0089 693.805 9.93812 694.598 9.93355H694.636ZM687.167 9.93355C687.885 9.94011 688.6 10.0025 689.308 10.1203C688.407 10.4595 687.536 10.876 686.707 11.365C686.044 10.8875 685.34 10.4709 684.603 10.1203C685.425 9.97664 686.258 9.9141 687.092 9.93355H687.167ZM679.699 9.93355C680.473 9.93435 681.245 10.0178 682.001 10.1825C680.973 10.5743 679.992 11.0794 679.076 11.6886C678.378 11.1461 677.628 10.6749 676.836 10.2821C677.73 10.0519 678.65 9.93484 679.574 9.93355H679.699ZM672.23 9.93355C673.071 9.93124 673.908 10.0401 674.72 10.2572C673.607 10.7293 672.561 11.3444 671.608 12.0869C670.891 11.4223 670.097 10.8456 669.243 10.3692C670.158 10.0861 671.11 9.93927 672.068 9.93355H672.23ZM664.762 9.93355C665.641 9.93229 666.515 10.0709 667.351 10.3443C666.203 10.9366 665.147 11.6912 664.214 12.5848C663.48 11.7812 662.643 11.0781 661.725 10.4937C662.632 10.1465 663.592 9.95701 664.563 9.93355H664.762ZM657.293 9.93355C658.22 9.93794 659.137 10.1196 659.994 10.4688C658.754 11.2016 657.64 12.1306 656.696 13.2197C655.994 12.2496 655.155 11.386 654.206 10.6555C655.099 10.2283 656.068 9.98293 657.057 9.93355H657.293ZM649.825 49.2423C643.9 49.2423 639.083 40.4296 639.083 29.5879C639.083 18.7463 643.9 9.93355 649.825 9.93355C650.807 9.94454 651.773 10.1786 652.651 10.6182C648.057 13.6678 644.809 21.0117 644.809 29.5879C644.809 38.1642 648.057 45.5206 652.651 48.5577C651.689 49.0489 650.618 49.2846 649.539 49.2423H649.825ZM657.293 49.2423C656.203 49.2389 655.127 48.9922 654.144 48.5204C655.093 47.7899 655.932 46.9263 656.634 45.9562C657.574 47.0488 658.689 47.9783 659.932 48.7071C659.02 49.0788 658.042 49.2609 657.057 49.2423H657.293ZM664.762 49.2423C663.732 49.2393 662.712 49.0495 661.75 48.6822C662.671 48.1017 663.508 47.3982 664.239 46.5911C665.168 47.4887 666.225 48.2437 667.376 48.8316C666.469 49.1295 665.517 49.2684 664.563 49.2423H664.762ZM672.23 49.2423C671.255 49.2416 670.286 49.0947 669.355 48.8067C670.17 48.3229 670.926 47.7465 671.608 47.0889C672.515 47.8206 673.51 48.4353 674.57 48.9187C673.754 49.1369 672.913 49.2458 672.068 49.2423H672.23ZM677.01 48.8938C677.744 48.4955 678.436 48.0243 679.076 47.4873C679.952 48.0868 680.886 48.5957 681.865 49.0058C681.107 49.1603 680.335 49.2395 679.562 49.2423C678.646 49.239 677.735 49.1219 676.848 48.8938H677.01ZM684.69 48.9685C685.425 48.6421 686.129 48.2505 686.794 47.7984C687.622 48.29 688.493 48.7065 689.395 49.0432C687.783 49.3318 686.131 49.3064 684.528 48.9685H684.69ZM692.358 49.0307C693.039 48.7525 693.7 48.4281 694.337 48.0598C695.104 48.4681 695.903 48.8137 696.727 49.093C695.223 49.3199 693.693 49.2989 692.196 49.0307H692.358ZM700.05 49.0307C700.617 48.808 701.17 48.5503 701.706 48.259C702.422 48.5932 703.158 48.8842 703.909 49.1303C702.572 49.2817 701.221 49.265 699.888 49.0805L700.05 49.0307ZM707.743 49.0307C708.303 48.8316 708.85 48.6075 709.398 48.3586L710.257 48.7071L710.63 48.8316L711.315 49.0556C710.076 49.2128 708.825 49.2378 707.581 49.1303L707.743 49.0307ZM717.277 49.1428C716.024 49.1382 714.774 49.0173 713.543 48.7818C712.183 48.5113 710.855 48.094 709.585 47.537C706.094 46.0309 703.112 43.5502 700.996 40.3923C698.821 37.1624 697.66 33.3572 697.66 29.4635C697.66 25.5697 698.821 21.7645 700.996 18.5347C701.295 18.0866 701.618 17.6509 701.942 17.2899C702.51 16.585 703.126 15.9196 703.784 15.2984C704.236 14.8278 704.714 14.3832 705.216 13.9665C705.539 13.7176 705.863 13.4935 706.199 13.257C706.535 13.0205 707.108 12.6844 707.581 12.423C708.17 12.0921 708.777 11.7929 709.398 11.5268C710.354 11.1148 711.34 10.7777 712.348 10.5186L713.356 10.2945C714.587 10.059 715.837 9.93815 717.091 9.93355C719.672 9.93355 722.227 10.4419 724.612 11.4297C726.997 12.4174 729.163 13.8651 730.988 15.6902C732.813 17.5153 734.261 19.682 735.249 22.0665C736.237 24.4511 736.745 27.0069 736.745 29.5879C736.745 32.169 736.237 34.7248 735.249 37.1094C734.261 39.4939 732.813 41.6606 730.988 43.4857C729.163 45.3108 726.997 46.7585 724.612 47.7462C722.227 48.734 719.672 49.2423 717.091 49.2423L717.277 49.1428Z" fill="#60E878"/>
<path fill-rule="evenodd" clip-rule="evenodd" d="M463.253 15.8005C459.683 20.7479 451.251 26.824 436.214 33.9521C429.211 37.2719 422.524 40.2721 416.088 42.9788C434.51 49.7784 465.655 50.8056 506.34 37.0252C543.632 24.3941 568.398 26.0154 589.277 31.5033C597.36 33.6279 604.864 36.3335 612.263 39.0015C614.4 39.7721 616.529 40.5396 618.66 41.2891C628.181 44.6374 637.783 47.6358 648.563 49.004C648.837 49.0388 649.031 49.289 648.996 49.563C648.961 49.8369 648.711 50.0308 648.437 49.996C637.55 48.6142 627.869 45.5875 618.328 42.2324C616.181 41.4775 614.042 40.7063 611.899 39.9335C604.507 37.2681 597.059 34.5826 589.023 32.4705C568.335 27.0328 543.769 25.4035 506.661 37.9724C465.133 52.038 433.338 50.7881 414.748 43.5399C393.987 52.1867 375.822 57.7657 358.046 61.1712C361.911 62.0772 365.615 63.0252 369.136 64.0165C375.584 65.8321 380.404 67.5325 383.726 69.1188C385.387 69.9117 386.69 70.6838 387.638 71.4385C388.579 72.1873 389.217 72.9549 389.47 73.7521C389.734 74.5861 389.555 75.3815 389.016 76.0912C388.495 76.7774 387.64 77.3848 386.531 77.9332C384.306 79.0325 380.872 79.9822 376.41 80.7948C358.549 84.0473 323.518 85.2172 280.551 84.1861C194.598 82.1236 76.6764 71.2472 0.368827 50.4803C0.102376 50.4078 -0.0548416 50.133 0.0176725 49.8665C0.0901865 49.6001 0.364972 49.4429 0.631424 49.5154C76.8239 70.251 194.652 81.1246 280.575 83.1864C323.544 84.2175 358.482 83.0431 376.231 79.8109C380.671 79.0023 383.992 78.072 386.088 77.0367C387.138 76.5178 387.834 75.9943 388.22 75.4864C388.588 75.0019 388.671 74.5402 388.517 74.0543C388.351 73.5316 387.89 72.9168 387.016 72.221C386.148 71.5311 384.919 70.7966 383.296 70.0212C380.049 68.4709 375.291 66.7886 368.865 64.9791C364.684 63.8022 360.245 62.6864 355.583 61.6295C346.048 63.3525 336.596 64.4598 326.883 65.0902C299.532 66.8654 270.117 64.8568 231.009 62.1864C220.714 61.4834 209.747 60.7346 197.969 59.9968C169.028 58.184 148.258 56.4153 134.286 54.7684C127.302 53.945 122.008 53.1512 118.239 52.3958C116.355 52.0182 114.843 51.6485 113.687 51.2868C112.546 50.9299 111.703 50.566 111.196 50.179C110.943 49.986 110.718 49.7457 110.624 49.4443C110.52 49.1088 110.604 48.7903 110.794 48.5326C110.969 48.295 111.234 48.1038 111.53 47.9433C111.833 47.7792 112.208 47.627 112.643 47.4838C114.373 46.9149 117.278 46.4198 121.151 45.9982C128.918 45.1528 140.729 44.5883 155.199 44.3806C208.619 43.6139 298.531 47.708 355.605 60.6094C373.762 57.3125 392.237 51.7692 413.427 43.0055C411.68 42.2725 410.058 41.4848 408.566 40.651C399.982 35.8544 395.546 29.4463 396.242 23.0626C396.938 16.6885 402.72 10.6564 413.826 6.53129C422.628 3.26198 432.188 1.50257 440.637 1.14896C449.065 0.796236 456.468 1.83893 460.909 4.24809C463.136 5.45618 464.687 7.04737 465.174 9.04475C465.662 11.0469 465.047 13.316 463.253 15.8005ZM414.737 42.4608C412.668 41.6369 410.772 40.7379 409.054 39.7781C400.616 35.0634 396.604 28.966 397.236 23.1711C397.87 17.3667 403.194 11.5472 414.174 7.46872C422.872 4.23814 432.328 2.49759 440.679 2.14808C449.051 1.79769 456.233 2.84874 460.432 5.12706C462.525 6.26272 463.808 7.66372 464.202 9.28158C464.595 10.8946 464.14 12.8638 462.443 15.2153C459.033 19.9398 450.81 25.9263 435.786 33.0484C428.445 36.5284 421.454 39.6557 414.737 42.4608ZM353.033 61.0619C295.997 48.6014 207.897 44.6244 155.213 45.3805C140.753 45.5881 128.979 46.152 121.26 46.9923C117.39 47.4136 114.576 47.9006 112.956 48.4337C112.553 48.566 112.239 48.6967 112.006 48.8228C111.766 48.9525 111.648 49.0587 111.599 49.1253C111.59 49.138 111.585 49.1473 111.582 49.1533C111.593 49.1799 111.64 49.2603 111.803 49.3843C112.162 49.6583 112.861 49.9806 113.986 50.3324C115.095 50.6796 116.569 51.0413 118.435 51.4153C122.167 52.1631 127.43 52.9533 134.404 53.7753C148.348 55.4191 169.098 57.1864 198.032 58.9988C209.832 59.738 220.813 60.4877 231.116 61.1911C270.211 63.8603 299.54 65.8627 326.819 64.0923C335.685 63.5168 344.335 62.5425 353.033 61.0619Z" fill="#60E878"/>
</g>
<defs>
<clipPath id="clip0_357_590">
<rect width="739" height="85" fill="white"/>
</clipPath>
</defs>
</svg>
