<svg width="48" height="48" viewBox="0 0 48 48" fill="none" xmlns="http://www.w3.org/2000/svg">
<path fill-rule="evenodd" clip-rule="evenodd" d="M23.4528 0C10.5002 0 0 10.5002 0 23.4528C0 36.4055 10.5002 46.9056 23.4528 46.9056C36.4055 46.9056 46.9056 36.4055 46.9056 23.4528C46.9056 10.5002 36.4055 0 23.4528 0ZM25.6047 31.5985C25.3619 31.8545 24.8878 31.9062 24.8878 31.9062H23.3179C23.3179 31.9062 19.8542 32.1105 16.8029 28.993C13.4754 25.5918 10.5372 18.8437 10.5372 18.8437C10.5372 18.8437 10.3676 18.401 10.5513 18.1879C10.7582 17.947 11.3222 17.9319 11.3222 17.9319L15.0749 17.9079C15.0749 17.9079 15.4282 17.9647 15.6813 18.1475C15.8907 18.2989 16.0076 18.5801 16.0076 18.5801C16.0076 18.5801 16.614 20.0858 17.417 21.4478C18.9857 24.1075 19.7154 24.6889 20.2473 24.4039C21.0233 23.989 20.7908 20.6445 20.7908 20.6445C20.7908 20.6445 20.8049 19.4313 20.4002 18.8903C20.0867 18.4716 19.4957 18.3493 19.2349 18.3153C19.0229 18.2875 19.3698 17.8058 19.8195 17.5901C20.4953 17.266 21.6875 17.2471 23.0969 17.261C24.1953 17.2723 24.5114 17.3392 24.9405 17.4413C25.9364 17.6772 25.9053 18.4332 25.8382 20.0648C25.8181 20.5528 25.7948 21.1191 25.7948 21.7732C25.7948 21.9202 25.7905 22.0769 25.786 22.2381C25.7627 23.074 25.736 24.0312 26.2972 24.3875C26.585 24.5691 27.2877 24.414 29.0465 21.4831C29.8803 20.0934 30.5047 18.4603 30.5047 18.4603C30.5047 18.4603 30.6422 18.169 30.8542 18.0441C31.0713 17.9167 31.3642 17.9558 31.3642 17.9558L35.3135 17.9319C35.3135 17.9319 36.5007 17.7919 36.6921 18.319C36.8938 18.8701 36.2488 20.159 34.6352 22.2701C33.1045 24.2732 32.3596 25.0107 32.428 25.6629C32.478 26.1395 32.9622 26.5706 33.8913 27.4166C35.831 29.1844 36.351 30.1145 36.4759 30.3379C36.4862 30.3564 36.4939 30.3701 36.4994 30.379C37.3691 31.7952 35.5345 31.9062 35.5345 31.9062L32.0259 31.9541C32.0259 31.9541 31.273 32.1004 30.2812 31.432C29.7616 31.0822 29.2539 30.5108 28.7704 29.9666C28.0319 29.1355 27.3497 28.3677 26.7674 28.5491C25.7897 28.8543 25.8193 30.9213 25.8193 30.9213C25.8193 30.9213 25.827 31.3639 25.6047 31.5985Z" fill="white"/>
</svg>
