<svg width="67" height="66" viewBox="0 0 67 66" fill="none" xmlns="http://www.w3.org/2000/svg">
<path fill-rule="evenodd" clip-rule="evenodd" d="M58.8851 0.236227C59.307 0.592705 59.3599 1.22365 59.0035 1.64548L46.8344 16.0455C46.478 16.4673 45.847 16.5203 45.4252 16.1638C45.0034 15.8073 44.9504 15.1764 45.3069 14.7546L57.4759 0.354562C57.8323 -0.0672702 58.4633 -0.12025 58.8851 0.236227ZM9.79502 14.4272C10.3323 14.555 10.6643 15.0941 10.5365 15.6314L1.97308 51.6314C1.84528 52.1687 1.30611 52.5007 0.768813 52.3729C0.23152 52.2451 -0.100435 51.7059 0.0273722 51.1686L8.59075 15.1686C8.71856 14.6313 9.25773 14.2994 9.79502 14.4272ZM36.3371 26.2256C36.7648 26.575 36.8283 27.205 36.4789 27.6327L10.338 59.6327C9.98865 60.0604 9.35868 60.1239 8.93096 59.7745C8.50325 59.4251 8.43976 58.7951 8.78916 58.3674L34.93 26.3674C35.2794 25.9397 35.9094 25.8762 36.3371 26.2256ZM66.4944 51.2923C66.5539 51.8414 66.157 52.3347 65.6079 52.3942C41.7088 54.9838 31.3768 58.95 20.9308 65.835C20.4697 66.1389 19.8495 66.0115 19.5456 65.5503C19.2416 65.0892 19.3691 64.469 19.8302 64.1651C30.6236 57.0511 41.2917 53.0173 65.3925 50.4058C65.9416 50.3463 66.4349 50.7432 66.4944 51.2923Z" fill="#60E878"/>
</svg>
