<svg width="81" height="81" viewBox="0 0 81 81" fill="none" xmlns="http://www.w3.org/2000/svg">
<g clip-path="url(#clip0_372_1402)">
<path d="M59.4355 42.2065C57.2492 43.2737 54.6696 43.2587 52.5077 42.1269L47.8564 39.6919C46.5462 39.0059 46.0312 37.3591 46.7015 35.999L49.1365 31.3477C50.3026 29.1203 52.4296 27.6881 54.8843 27.3039C58.5992 26.7447 61.9487 24.4919 63.8351 20.8888C67.0932 14.6652 64.4589 6.94262 57.9141 4.05882C52.3364 1.63956 45.7148 3.76523 42.6404 8.99996C40.4048 12.7123 40.4058 17.0948 42.1752 20.6503C43.258 22.8866 43.2929 25.4506 42.1112 27.628L39.6762 32.2793C38.9902 33.5896 37.3434 34.1046 35.9833 33.4343L31.332 30.9992C29.1046 29.8331 27.6724 27.7061 27.2882 25.2514C26.729 21.5365 24.4762 18.187 20.8731 16.3007C14.6994 13.0269 6.97682 15.6612 4.09301 22.206C1.62385 27.7993 3.76513 34.4708 8.99986 37.5452C12.7122 39.7809 17.0791 39.73 20.6502 38.0105C22.8865 36.9276 25.4505 36.8927 27.6279 38.0744L32.2792 40.5095C33.5895 41.1954 34.1045 42.8423 33.4342 44.2024L30.9991 48.8537C29.833 51.0811 27.706 52.5133 25.2513 52.8975C21.5364 53.4566 18.1869 55.7095 16.3006 59.3126C13.0424 65.5361 15.6768 73.2587 22.2215 76.1425C27.7493 78.5774 34.2867 76.5329 37.4422 71.3823C39.7621 67.5888 39.7954 63.1408 37.9948 59.4855C36.9275 57.2992 36.9425 54.7196 38.0743 52.5577L40.5094 47.9064C41.1953 46.5962 42.8421 46.0812 44.2023 46.7515L48.8536 49.1865C51.081 50.3526 52.5132 52.4796 52.8974 54.9344C53.4565 58.6492 55.7094 61.9987 59.3125 63.8851C65.536 67.1432 73.2586 64.5089 76.1424 57.9641C78.5274 52.4519 76.5328 45.8989 71.3822 42.7434C67.5232 40.3893 63.0908 40.4059 59.4355 42.2065Z" fill="#60E878"/>
</g>
<defs>
<clipPath id="clip0_372_1402">
<rect width="64" height="64" fill="white" transform="translate(0 19.1033) rotate(-17.3669)"/>
</clipPath>
</defs>
</svg>
