<svg width="509" height="206" viewBox="0 0 509 206" fill="none" xmlns="http://www.w3.org/2000/svg">
<path fill-rule="evenodd" clip-rule="evenodd" d="M308.016 42.3347C312.692 44.2382 319.279 45.8643 328.048 47.0662C393.697 56.0634 441.665 51.3017 471.362 42.0955C485.422 37.7366 495.309 32.4054 501.052 27.134C496.198 21.3554 488.136 16.611 477.952 12.8623C470.433 10.0947 461.817 7.89116 452.596 6.21203C450.795 6.33061 448.973 6.46118 447.135 6.60259C418.878 8.77734 387.063 13.5028 367.059 16.5071C366.513 16.5891 366.004 16.2128 365.922 15.6667C365.84 15.1205 366.216 14.6113 366.762 14.5293C386.086 11.627 416.514 7.10573 444.116 4.83667C430.659 2.90844 416.295 2 402.41 2C363.097 2 327.047 11.3308 309.673 21.7626C305.331 24.3696 302.242 26.9949 300.54 29.4861C298.861 31.9432 298.588 34.1597 299.615 36.174C300.691 38.2848 303.309 40.4188 308.016 42.3347ZM452.711 4.20022C436.828 1.32666 419.241 0 402.41 0C362.88 0 326.432 9.36674 308.643 20.0479C304.195 22.7191 300.826 25.523 298.889 28.3576C296.928 31.2262 296.38 34.2321 297.833 37.0823C299.237 39.836 302.401 42.2086 307.262 44.1871C312.153 46.178 318.921 47.834 327.776 49.0476C393.624 58.0721 441.902 53.3222 471.954 44.0058C486.05 39.6358 496.213 34.2373 502.283 28.7182C506.145 34.1144 507.332 40.4013 504.956 47.7491C501.521 58.368 491.371 67.2713 475.862 74.7789C460.383 82.2718 439.759 88.2802 415.712 93.2179C367.625 103.092 306.078 108.641 245.153 113.324C234.113 114.172 223.094 114.993 212.18 115.805C162.892 119.473 115.743 122.981 78.5358 128.231C55.8177 131.437 36.7363 135.301 23.1113 140.272C16.3007 142.757 10.7933 145.54 6.86885 148.699C2.9381 151.864 0.521019 155.47 0.0789463 159.586C-0.604104 165.947 3.15428 171.344 9.95175 175.87C16.7528 180.397 26.8084 184.211 39.2836 187.421C64.254 193.846 99.2484 197.934 138.183 200.302C215.061 204.979 307.52 202.965 369.072 198.898L364.739 203.862C364.376 204.278 364.418 204.909 364.835 205.273C365.251 205.636 365.882 205.593 366.245 205.177L372.164 198.397C372.527 197.981 372.484 197.349 372.068 196.986L365.288 191.067C364.872 190.704 364.241 190.747 363.877 191.163C363.514 191.579 363.557 192.211 363.973 192.574L368.932 196.903C307.443 200.965 215.076 202.976 138.304 198.306C99.4035 195.939 64.5629 191.86 39.782 185.484C27.3815 182.293 17.5823 178.547 11.0601 174.205C4.53418 169.86 1.50062 165.079 2.06751 159.8C2.43425 156.385 4.44624 153.217 8.12304 150.257C11.8061 147.292 17.0848 144.6 23.7969 142.151C37.2174 137.254 56.1283 133.413 78.8152 130.212C115.95 124.972 163.014 121.469 212.299 117.801C223.22 116.989 234.251 116.168 245.306 115.318C306.218 110.637 367.885 105.08 416.115 95.1771C440.226 90.226 461.037 84.1775 476.734 76.579C492.4 68.9952 503.169 59.7726 506.859 48.3647C509.473 40.2813 508.091 33.2608 503.736 27.3149C506.497 24.473 508.229 21.5638 508.796 18.7117C509.393 15.7091 508.678 12.8601 506.686 10.3847C505.039 8.33753 502.158 6.89003 498.518 5.85736C494.846 4.81602 490.248 4.15462 484.989 3.79092C475.898 3.16225 464.72 3.41635 452.711 4.20022ZM460.495 5.76607C466.992 7.21266 473.104 8.94676 478.643 10.9854C488.901 14.7614 497.298 19.6207 502.485 25.7309C504.965 23.1292 506.378 20.618 506.834 18.3219C507.312 15.9195 506.761 13.6685 505.128 11.6384C503.875 10.0812 501.487 8.77853 497.972 7.78145C494.487 6.79304 490.042 6.14511 484.851 5.78616C477.831 5.30066 469.516 5.34792 460.495 5.76607Z" fill="#60E878"/>
</svg>
