<svg width="525" height="48" viewBox="0 0 525 48" fill="none" xmlns="http://www.w3.org/2000/svg">
<path fill-rule="evenodd" clip-rule="evenodd" d="M524.445 0.671772C524.626 1.1935 524.35 1.7633 523.828 1.94446C505.708 8.23598 479.852 12.371 450.475 15.0474C421.08 17.7255 388.089 18.9488 355.663 19.3904C312.286 19.9812 269.836 19.1722 238.373 18.5725C222.829 18.2763 209.967 18.0312 200.999 18.0312C184.396 18.0312 159.151 17.5872 132.154 17.1123L130.162 17.0773C102.413 16.5894 72.9956 16.0797 49.2983 15.9918C37.449 15.9478 27.0381 16.0093 18.9847 16.2313C11.5612 16.4359 6.24407 16.7761 3.62762 17.2688C4.31973 17.4816 5.23632 17.7135 6.39788 17.964C11.3904 19.0409 20.5945 20.3965 34.9712 22.0842C89.8479 28.5262 206.745 30.6601 317.908 30.9081C384.652 30.1319 455.729 29.7202 514.352 29.5774C514.902 29.5761 515.349 30.0184 515.355 30.568C515.36 31.1175 514.921 31.5682 514.371 31.5773C465.418 32.3831 392.979 33.0758 317.907 32.9083C267.78 33.4913 220.1 34.2799 181.982 35.3145C159.764 35.9176 140.802 36.604 126.499 37.3816C119.347 37.7704 113.367 38.1817 108.732 38.6159C104.366 39.0249 101.252 39.4494 99.4754 39.8792C101.042 40.2913 103.763 40.7443 107.811 41.2232C117.719 42.3958 135.108 43.6788 161.408 45.0788C161.959 45.1082 162.383 45.5791 162.353 46.1306C162.324 46.6821 161.853 47.1053 161.302 47.076C135.001 45.676 117.555 44.3903 107.575 43.2093C102.629 42.624 99.3982 42.0528 97.8513 41.4658C97.4686 41.3205 97.0772 41.1349 96.7903 40.8746C96.6407 40.7388 96.4642 40.5333 96.3716 40.2465C96.2696 39.9308 96.299 39.6066 96.4298 39.3252C96.6468 38.8584 97.0955 38.605 97.3771 38.4688C97.7147 38.3056 98.137 38.1637 98.613 38.0353C100.504 37.5254 103.898 37.0599 108.545 36.6246C113.217 36.1869 119.226 35.774 126.39 35.3845C140.72 34.6055 159.703 33.9185 181.928 33.3153C196.213 32.9275 211.841 32.5743 228.436 32.2536C148.374 31.2026 74.9583 28.792 34.738 24.0705C20.3648 22.3832 11.0734 21.0185 5.97618 19.9191C4.69965 19.6437 3.66663 19.381 2.87355 19.1284C2.11627 18.8873 1.46406 18.6219 1.04446 18.2973C0.842425 18.141 0.535732 17.8515 0.446482 17.4005C0.340257 16.8637 0.597432 16.4463 0.845087 16.208C1.0714 15.9903 1.35442 15.8472 1.60018 15.7468C1.86146 15.64 2.1656 15.548 2.49759 15.4663C5.0608 14.8353 10.8966 14.4535 18.9295 14.2321C27.0142 14.0092 37.4495 13.9478 49.3058 13.9918C73.0197 14.0798 102.451 14.5898 130.198 15.0776L132.173 15.1124C159.183 15.5874 184.414 16.0312 200.999 16.0312C210.037 16.0312 222.942 16.2773 238.517 16.5744C269.956 17.174 312.275 17.9811 355.636 17.3906C388.036 16.9493 420.97 15.7272 450.293 13.0557C479.635 10.3825 505.291 6.26359 523.172 0.0551105C523.694 -0.126045 524.263 0.150044 524.445 0.671772ZM98.1173 40.3436C98.1172 40.3435 98.1192 40.3418 98.1238 40.3385C98.1198 40.342 98.1175 40.3436 98.1173 40.3436ZM2.25205 16.7015C2.25239 16.7015 2.25624 16.7046 2.26256 16.7109C2.25487 16.7047 2.25171 16.7016 2.25205 16.7015Z" fill="#60E878"/>
</svg>
