<svg width="60" height="60" viewBox="0 0 60 60" fill="none" xmlns="http://www.w3.org/2000/svg">
<path d="M57 11H5" stroke="#60E878" stroke-width="2" stroke-miterlimit="10"/>
<path d="M14 16V34" stroke="#60E878" stroke-width="2" stroke-miterlimit="10"/>
<path d="M9.49414 20.506L14.0001 16L18.5061 20.506" stroke="#60E878" stroke-width="2" stroke-miterlimit="10"/>
<path d="M14 42V40" stroke="#60E878" stroke-width="2" stroke-miterlimit="10"/>
<path d="M14 38V36" stroke="#60E878" stroke-width="2" stroke-miterlimit="10"/>
<path d="M48 41V23" stroke="#60E878" stroke-width="2" stroke-miterlimit="10"/>
<path d="M52.5061 36.494L48.0001 41L43.4941 36.494" stroke="#60E878" stroke-width="2" stroke-miterlimit="10"/>
<path d="M48 15V17" stroke="#60E878" stroke-width="2" stroke-miterlimit="10"/>
<path d="M48 19V21" stroke="#60E878" stroke-width="2" stroke-miterlimit="10"/>
<path d="M31 30C32.6569 30 34 28.6569 34 27C34 25.3431 32.6569 24 31 24C29.3431 24 28 25.3431 28 27C28 28.6569 29.3431 30 31 30Z" stroke="#60E878" stroke-width="2" stroke-miterlimit="10"/>
<path d="M31 30V42" stroke="#60E878" stroke-width="2" stroke-miterlimit="10"/>
<path d="M34 27H48" stroke="#60E878" stroke-width="2" stroke-miterlimit="10"/>
<path d="M28 27H14" stroke="#60E878" stroke-width="2" stroke-miterlimit="10"/>
<path d="M19 42H43V58H19V42Z" stroke="#60E878" stroke-width="2" stroke-miterlimit="10"/>
<path d="M24 53H22V55H24V53Z" fill="#60E878"/>
<path d="M28 53H26V55H28V53Z" fill="#60E878"/>
<path d="M32 53H30V55H32V53Z" fill="#60E878"/>
<path d="M19 50H36" stroke="#60E878" stroke-width="2" stroke-miterlimit="10"/>
<path d="M39 50H43" stroke="#60E878" stroke-width="2" stroke-miterlimit="10"/>
<path d="M24 45H22V47H24V45Z" fill="#60E878"/>
<path d="M28 45H26V47H28V45Z" fill="#60E878"/>
<path d="M32 45H30V47H32V45Z" fill="#60E878"/>
<path d="M15 47H9C6.791 47 5 45.209 5 43V7C5 4.791 6.791 3 9 3H53C55.209 3 57 4.791 57 7V43C57 45.209 55.209 47 53 47H47" stroke="#60E878" stroke-width="2" stroke-miterlimit="10"/>
<path d="M54 6H52V8H54V6Z" fill="#60E878"/>
<path d="M50 6H48V8H50V6Z" fill="#60E878"/>
<path d="M46 6H44V8H46V6Z" fill="#60E878"/>
</svg>
