<svg width="60" height="60" viewBox="0 0 60 60" fill="none" xmlns="http://www.w3.org/2000/svg">
<path d="M30 10C31.6569 10 33 8.65685 33 7C33 5.34315 31.6569 4 30 4C28.3431 4 27 5.34315 27 7C27 8.65685 28.3431 10 30 10Z" stroke="#60E878" stroke-width="2" stroke-miterlimit="10"/>
<path d="M47.8199 53.938C47.2549 54.092 46.6769 54.238 46.0859 54.375" stroke="#60E878" stroke-width="2" stroke-miterlimit="10"/>
<path d="M55.7286 50.694C54.7286 51.259 53.6636 52.062 50.1406 53.237" stroke="#60E878" stroke-width="2" stroke-miterlimit="10"/>
<path d="M23.3164 55.437C25.0874 57.03 27.4314 58 30.0014 58C32.5674 58 34.9064 57.0339 36.6774 55.4459" stroke="#60E878" stroke-width="2" stroke-miterlimit="10"/>
<path d="M23.3008 8.59697L19.5488 1.42297" stroke="#60E878" stroke-width="2" stroke-miterlimit="10"/>
<path d="M14.6897 16.438L7.34375 13.647" stroke="#60E878" stroke-width="2" stroke-miterlimit="10"/>
<path d="M15.4004 9.39899L17.6024 11.601" stroke="#60E878" stroke-width="2" stroke-miterlimit="10"/>
<path d="M12.4004 6.39899L13.6024 7.60099" stroke="#60E878" stroke-width="2" stroke-miterlimit="10"/>
<path d="M36.7012 8.59697L40.4532 1.42297" stroke="#60E878" stroke-width="2" stroke-miterlimit="10"/>
<path d="M45.3145 16.438L52.6595 13.647" stroke="#60E878" stroke-width="2" stroke-miterlimit="10"/>
<path d="M44.6024 9.39899L42.4004 11.601" stroke="#60E878" stroke-width="2" stroke-miterlimit="10"/>
<path d="M47.6024 6.39899L46.4004 7.60099" stroke="#60E878" stroke-width="2" stroke-miterlimit="10"/>
<path d="M30.0009 52C20.6189 52 12.0779 50.103 5.66992 47C11.7439 43.187 16.0009 34.326 16.0009 24C16.0009 16.268 22.2689 10 30.0009 10C37.7329 10 44.0009 16.268 44.0009 24C44.0009 34.326 48.2579 43.187 54.3319 47C47.9239 50.103 39.3829 52 30.0009 52V52Z" stroke="#60E878" stroke-width="2" stroke-miterlimit="10"/>
<path d="M10.7363 32.8702C10.9063 32.2992 11.0603 31.7162 11.1973 31.1222" stroke="#60E878" stroke-width="2" stroke-miterlimit="10"/>
<path d="M3.54297 43.613C6.21697 41.934 8.42697 38.94 9.91697 35.228" stroke="#60E878" stroke-width="2" stroke-miterlimit="10"/>
</svg>
