<svg width="24" height="24" viewBox="0 0 24 24" fill="none" xmlns="http://www.w3.org/2000/svg">
<path fill-rule="evenodd" clip-rule="evenodd" d="M5.17076 19.1632C6.86068 20.6234 8.94361 21.4055 11.1182 21.4055C11.3933 21.4055 11.6728 21.392 11.9523 21.3694L13.6859 21.2111C18.7862 20.7455 22.5678 16.0665 22.118 10.7862C21.6682 5.50598 17.1487 1.59099 12.0483 2.05663L10.3148 2.21486C7.84319 2.4409 5.60743 3.64794 4.01357 5.619C2.41972 7.59005 1.66428 10.081 1.88261 12.6398C2.10095 15.1985 3.26686 17.5131 5.17076 19.1632ZM12.1357 3.05572C12.3802 3.0286 12.6291 3.01955 12.8737 3.01955C13.462 3.01955 14.0385 3.08412 14.5963 3.20721C14.9925 4.1116 15.0625 4.83433 14.8665 6.1463C13.8054 5.91598 12.6613 5.84786 11.4952 5.95359C10.2083 6.07322 8.98138 6.39728 7.89527 6.89526C7.54149 5.65048 7.53251 4.93042 7.79391 3.9006C8.61041 3.53124 9.4884 3.2979 10.4021 3.21395L12.1357 3.05572ZM15.8082 6.40058C16.3459 6.57594 16.8546 6.79673 17.3248 7.06117C19.006 8.00602 20.0059 9.39841 20.1413 10.9807C20.2767 12.5494 19.5605 13.7022 18.0147 14.4029C16.6217 15.0358 14.6218 15.289 12.6611 15.4653C11.6087 15.5602 10.4821 15.6461 9.40353 15.6461C8.49962 15.6461 7.63064 15.5873 6.87519 15.4291C4.99314 15.0313 3.96695 14.0412 3.83595 12.4771C3.70058 10.8948 4.44729 9.34416 5.94508 8.10547C6.27597 7.83163 6.63534 7.58034 7.01868 7.3533C6.69994 6.29039 6.56964 5.46621 6.69173 4.50645C5.97181 4.97815 5.31904 5.56838 4.75592 6.26547C3.328 8.03309 2.65116 10.2618 2.84766 12.5539C3.04416 14.8459 4.08781 16.9209 5.7952 18.3992C7.30608 19.7102 9.17504 20.411 11.1226 20.411C11.3715 20.411 11.6204 20.3974 11.8693 20.3748L13.6029 20.2166C18.1705 19.7961 21.5591 15.6099 21.1573 10.8767C20.8638 7.45818 18.6698 4.67796 15.7526 3.55534C16.0062 4.45165 15.9816 5.28899 15.8082 6.40058ZM11.5782 6.94816C11.91 6.91651 12.2419 6.90295 12.5694 6.90295C14.1589 6.90295 15.6567 7.26009 16.8575 7.93368C18.2461 8.71578 19.0671 9.82337 19.1719 11.0621C19.3728 13.3948 17.006 14.0548 12.5738 14.4617C8.04984 14.8776 4.9975 14.6832 4.801 12.3821C4.6962 11.148 5.31627 9.90474 6.54769 8.88305C7.83587 7.81614 9.62186 7.12899 11.5782 6.94816ZM8.89522 9.50233C8.88649 9.50685 8.88212 9.5159 8.88649 9.52494V9.54302C8.88649 9.54603 8.886 9.55005 8.8852 9.55675C8.88358 9.57015 8.88067 9.59426 8.87776 9.64248C8.87776 9.64926 8.87666 9.65943 8.87557 9.6696C8.87448 9.67977 8.87339 9.68995 8.87339 9.69673C8.87339 9.70419 8.87207 9.71577 8.87088 9.72618C8.8699 9.73467 8.86902 9.74239 8.86902 9.74645C8.86902 9.76002 8.86902 9.7781 8.86466 9.79166C8.86466 9.80026 8.8629 9.81068 8.86162 9.8183C8.86107 9.82152 8.86062 9.82424 8.86041 9.82611C8.86033 9.82681 8.86029 9.82738 8.86029 9.82783V9.85495C8.86029 9.85947 8.86029 9.87756 8.85592 9.89112C8.85156 9.93181 8.84282 10.0313 8.84282 10.0584C8.84282 10.0629 8.84282 10.0765 8.83846 10.09C8.83846 10.0991 8.83846 10.1126 8.83409 10.1172C8.83409 10.1187 8.8336 10.1222 8.83296 10.1269C8.83166 10.1362 8.82972 10.1503 8.82972 10.1624C8.82972 10.1804 8.82536 10.1985 8.82536 10.1985C8.82536 10.2031 8.82536 10.2076 8.82099 10.2166C8.82099 10.2211 8.82099 10.2347 8.81662 10.2437C8.81662 10.2528 8.81225 10.2799 8.80789 10.3025C8.79479 10.3839 8.77732 10.4698 8.75549 10.5331C8.74999 10.5473 8.74795 10.5526 8.74611 10.5579L8.74239 10.5692C8.73802 10.5783 8.73802 10.5828 8.73802 10.5873C8.73802 10.5873 8.73802 10.5918 8.73365 10.5918C8.73365 10.5918 8.72929 10.5918 8.72929 10.5964C8.72929 10.6009 8.70745 10.6551 8.70309 10.6642L8.69435 10.6823C8.69217 10.6845 8.68999 10.689 8.6878 10.6936C8.68562 10.6981 8.68344 10.7026 8.68125 10.7049C8.67689 10.7094 8.67689 10.7184 8.67689 10.7184C8.67689 10.7184 8.65505 10.7636 8.65069 10.7681C8.62885 10.7998 8.61575 10.8224 8.61575 10.8269C8.61575 10.8269 8.60702 10.8405 8.59829 10.8495C8.58082 10.8721 8.55899 10.8993 8.54152 10.9173L8.54151 10.9173L8.54149 10.9174C8.51094 10.949 8.49785 10.9625 8.49348 10.9625C8.49348 10.9625 8.48912 10.9625 8.48912 10.9671C8.48912 10.9716 8.47165 10.9851 8.46728 10.9851C8.46728 10.9851 8.46292 10.9851 8.46292 10.9897C8.46292 10.9928 8.45233 11.0003 8.43558 11.0123L8.43557 11.0123L8.43555 11.0123C8.42825 11.0175 8.41978 11.0235 8.41052 11.0304C8.38432 11.0484 8.30572 11.0982 8.30135 11.0982C8.30135 11.0982 8.29698 11.1027 8.28825 11.1027C8.26641 11.1162 8.26205 11.1162 8.25768 11.1162C8.25768 11.1162 8.25331 11.1162 8.24895 11.1208C8.24458 11.1208 8.22711 11.1298 8.20528 11.1434C8.18345 11.1524 8.16161 11.1615 8.15725 11.166C8.15288 11.1705 8.14851 11.1705 8.14415 11.1705C8.13978 11.1705 8.13541 11.1705 8.13105 11.175L8.11211 11.1817L8.11206 11.1818C8.08156 11.1926 8.02661 11.2122 8.01314 11.2157C8.00878 11.2157 8.00004 11.2202 8.00004 11.2202C8.00004 11.2202 7.99131 11.2247 7.98694 11.2247C7.98495 11.2247 7.97838 11.2266 7.96975 11.2291L7.96974 11.2291C7.95951 11.2321 7.94638 11.2359 7.93454 11.2383C7.89592 11.2503 7.87438 11.2552 7.84273 11.2625L7.84271 11.2625L7.82974 11.2654C7.82425 11.2673 7.81877 11.2684 7.81392 11.2694C7.8072 11.2707 7.80171 11.2718 7.79918 11.2745C7.79481 11.2745 7.77297 11.279 7.72494 11.2926C7.71621 11.2956 7.70359 11.2986 7.69098 11.3016L7.67254 11.3061L7.6541 11.3106L7.65406 11.3107C7.64146 11.3137 7.62886 11.3167 7.62014 11.3197C7.6144 11.3217 7.60781 11.3228 7.60186 11.3238C7.59424 11.3251 7.58766 11.3262 7.58521 11.3287L7.57872 11.3304C7.5604 11.3353 7.53023 11.3433 7.47604 11.3513C7.4542 11.3558 7.43237 11.3604 7.42364 11.3649C7.42183 11.3649 7.41777 11.3657 7.41302 11.3666C7.4063 11.3679 7.39819 11.3694 7.39307 11.3694C7.38476 11.3694 7.37821 11.3712 7.37342 11.3726C7.37065 11.3733 7.36847 11.3739 7.36687 11.3739C7.36251 11.3739 7.34942 11.3784 7.33633 11.383L7.3363 11.383C7.3101 11.3875 7.29264 11.392 7.26644 11.4011C7.24897 11.4101 7.24023 11.4146 7.24023 11.4327C7.24023 11.4463 7.24897 11.4553 7.26644 11.4598L7.27713 11.4618C7.29798 11.4656 7.31884 11.4695 7.39744 11.4734L7.44362 11.476C7.50994 11.4796 7.57626 11.4833 7.59394 11.487C7.59755 11.487 7.60266 11.4877 7.60865 11.4886L7.60867 11.4886L7.60868 11.4886C7.61716 11.4899 7.62738 11.4915 7.63761 11.4915C7.64697 11.4915 7.65758 11.4928 7.66743 11.494C7.67597 11.495 7.68393 11.496 7.69001 11.496C7.69655 11.496 7.70527 11.4971 7.714 11.4983L7.71402 11.4983C7.72276 11.4994 7.73149 11.5005 7.73804 11.5005C7.75138 11.5022 7.7628 11.5033 7.77256 11.5042L7.77258 11.5042H7.77259C7.78839 11.5057 7.79981 11.5068 7.80791 11.5096C7.80951 11.5096 7.81286 11.5102 7.81711 11.5109C7.82448 11.5123 7.83454 11.5141 7.84284 11.5141C7.85548 11.5163 7.86912 11.5174 7.88232 11.5185C7.89649 11.5196 7.91014 11.5208 7.92144 11.5231C7.92536 11.5231 7.93105 11.524 7.9373 11.525L7.93732 11.525C7.945 11.5263 7.95353 11.5276 7.96074 11.5276C7.96905 11.5276 7.97735 11.5295 7.98343 11.5308C7.98694 11.5316 7.98971 11.5322 7.99131 11.5322C7.99312 11.5322 7.99643 11.5329 8.0003 11.5338L8.00031 11.5338C8.00579 11.5351 8.0124 11.5367 8.01751 11.5367C8.02625 11.5367 8.04808 11.5412 8.06118 11.5457C8.07428 11.5502 8.09175 11.5502 8.10048 11.5502C8.10266 11.5502 8.10594 11.5514 8.10921 11.5525C8.11249 11.5536 8.11576 11.5548 8.11795 11.5548C8.12013 11.5548 8.12231 11.5559 8.1245 11.557C8.12668 11.5582 8.12886 11.5593 8.13105 11.5593C8.13285 11.5593 8.13541 11.5601 8.13841 11.561C8.14265 11.5623 8.14776 11.5638 8.15288 11.5638C8.15725 11.5638 8.16598 11.5683 8.16598 11.5683C8.17035 11.5683 8.17471 11.5683 8.17908 11.5728C8.18126 11.5728 8.18454 11.574 8.18781 11.5751C8.19109 11.5762 8.19436 11.5774 8.19655 11.5774C8.20091 11.5774 8.20965 11.5774 8.20965 11.5819C8.20965 11.5819 8.21838 11.5864 8.22275 11.5864C8.22711 11.5864 8.24458 11.5909 8.26205 11.5955C8.27951 11.6 8.29698 11.6045 8.30572 11.609C8.31445 11.6135 8.32318 11.6135 8.32318 11.6135C8.32318 11.6135 8.32755 11.6181 8.33192 11.6181C8.33628 11.6181 8.34065 11.6181 8.34065 11.6226C8.34065 11.6226 8.34502 11.6271 8.34938 11.6271C8.36248 11.6271 8.45418 11.6723 8.45855 11.6768C8.45855 11.6768 8.46292 11.6813 8.46728 11.6813C8.4702 11.6829 8.47262 11.6844 8.47505 11.6859C8.4799 11.6889 8.48475 11.6919 8.49348 11.6949C8.49785 11.6994 8.50222 11.6994 8.50658 11.6994C8.51095 11.6994 8.56335 11.7356 8.58519 11.7537C8.61575 11.7808 8.68125 11.8396 8.68125 11.8441C8.68125 11.8441 8.68125 11.8486 8.68562 11.8486C8.68871 11.8486 8.6918 11.8531 8.69797 11.8622C8.70053 11.8659 8.70362 11.8704 8.70745 11.8757C8.7112 11.8816 8.71975 11.8923 8.72831 11.9031C8.73972 11.9175 8.75112 11.9319 8.75112 11.9345C8.75112 11.9345 8.75549 11.9436 8.75985 11.9481C8.76515 11.9572 8.76903 11.9627 8.77176 11.9665C8.77577 11.9722 8.77732 11.9743 8.77732 11.9797C8.77732 11.9842 8.78169 11.9842 8.78169 11.9842C8.78169 11.9842 8.78605 11.9888 8.78605 11.9933C8.78605 11.9978 8.79042 12.0023 8.79042 12.0023C8.79042 12.0023 8.79479 12.0023 8.79479 12.0068C8.79479 12.0068 8.79916 12.0204 8.80352 12.0294L8.81544 12.0504C8.8206 12.0596 8.82433 12.0663 8.82972 12.0747C8.83409 12.0792 8.83846 12.0882 8.83846 12.0927C8.83846 12.095 8.83955 12.0973 8.84064 12.0995C8.84173 12.1018 8.84282 12.104 8.84282 12.1063C8.84282 12.1108 8.84719 12.1199 8.85156 12.1289C8.86029 12.147 8.87776 12.1877 8.88649 12.2103C8.89086 12.2193 8.89522 12.2329 8.89522 12.2374C8.89522 12.2419 8.89959 12.251 8.90396 12.2555L8.90778 12.267C8.9146 12.2873 8.92664 12.3232 8.93016 12.3414C8.93207 12.3453 8.93315 12.3493 8.93412 12.3529C8.93536 12.3575 8.93644 12.3614 8.93889 12.364C8.93889 12.3662 8.93998 12.3685 8.94107 12.3708C8.94217 12.373 8.94326 12.3753 8.94326 12.3775C8.94326 12.3821 8.94762 12.3956 8.95199 12.4001C8.95417 12.4114 8.95745 12.4216 8.96072 12.4318L8.96072 12.4318L8.96073 12.4318C8.964 12.442 8.96728 12.4521 8.96946 12.4634C8.97382 12.4725 8.97819 12.4906 8.97819 12.5041C8.98256 12.5132 8.98692 12.5358 8.98692 12.5448C8.9902 12.5516 8.99347 12.566 8.99675 12.5804L9.00002 12.5945C9.00439 12.6081 9.00876 12.6307 9.00876 12.6443C9.01312 12.6578 9.01312 12.6669 9.01312 12.6669L9.02186 12.694C9.02623 12.7076 9.03059 12.7302 9.03059 12.7437C9.03496 12.7573 9.03932 12.7754 9.03932 12.7889C9.03932 12.8025 9.04369 12.8206 9.04806 12.8341C9.05242 12.8477 9.05679 12.8658 9.05679 12.8793C9.06116 12.8929 9.06553 12.9155 9.06553 12.9291C9.06815 12.9372 9.07077 12.9502 9.07339 12.9633C9.07513 12.9719 9.07688 12.9806 9.07863 12.9878C9.08425 13.0199 9.08987 13.0444 9.09433 13.0638C9.0968 13.0746 9.0989 13.0838 9.10046 13.0918V13.0963C9.10046 13.1054 9.10919 13.1144 9.11356 13.1189H9.11793C9.13103 13.128 9.15286 13.128 9.16596 13.1144L9.17033 13.1099C9.17469 13.1054 9.17469 13.1009 9.17469 13.0963V13.0737C9.17469 13.0689 9.17524 13.0607 9.17595 13.0502C9.17724 13.0308 9.17906 13.0035 9.17906 12.9743C9.17906 12.9607 9.17906 12.9426 9.18343 12.9426V12.92C9.18343 12.902 9.18343 12.8703 9.18779 12.8251C9.18929 12.8065 9.19027 12.7917 9.19109 12.7793L9.19109 12.7792C9.19267 12.7554 9.19366 12.7405 9.19653 12.7256C9.19653 12.7121 9.19653 12.6985 9.20089 12.6985V12.6804C9.20089 12.6714 9.20089 12.6533 9.20526 12.6397C9.20526 12.633 9.20635 12.6251 9.20744 12.6171C9.20854 12.6092 9.20963 12.6013 9.20963 12.5945C9.20963 12.5878 9.21072 12.5798 9.21181 12.5719L9.21181 12.5719C9.2129 12.564 9.21399 12.5561 9.21399 12.5493C9.21604 12.5366 9.21713 12.5259 9.21816 12.5157C9.21932 12.5043 9.22041 12.4935 9.22273 12.4815C9.22273 12.4725 9.22273 12.4589 9.22709 12.4589C9.22709 12.4544 9.22709 12.4454 9.23146 12.4408C9.23146 12.4318 9.23146 12.4228 9.23583 12.4182C9.23583 12.4164 9.23658 12.4129 9.23745 12.4089C9.2387 12.4032 9.24019 12.3964 9.24019 12.3911C9.24019 12.3866 9.24129 12.3798 9.24238 12.373L9.24238 12.373L9.24238 12.373C9.24347 12.3662 9.24456 12.3595 9.24456 12.3549C9.24456 12.3504 9.24565 12.3448 9.24674 12.3391L9.24674 12.3391C9.24784 12.3335 9.24893 12.3278 9.24893 12.3233C9.24893 12.3143 9.25329 12.3052 9.25329 12.3052C9.25329 12.3036 9.25388 12.3007 9.25462 12.2971C9.25591 12.2908 9.25766 12.2822 9.25766 12.2736C9.25958 12.2676 9.26065 12.2608 9.26162 12.2546C9.26287 12.2468 9.26394 12.2399 9.26639 12.2374C9.26639 12.2329 9.26749 12.2284 9.26858 12.2238C9.26967 12.2193 9.27076 12.2148 9.27076 12.2103C9.27513 12.1831 9.2795 12.1605 9.28386 12.156C9.28386 12.1538 9.28495 12.1515 9.28605 12.1492C9.28664 12.148 9.28723 12.1468 9.28765 12.1456C9.288 12.1445 9.28823 12.1435 9.28823 12.1425C9.28823 12.1379 9.29259 12.1289 9.29259 12.1289C9.29259 12.1266 9.29369 12.1244 9.29478 12.1221C9.29587 12.1199 9.29696 12.1176 9.29696 12.1153C9.29696 12.1108 9.29696 12.1063 9.30133 12.1063C9.30133 12.1018 9.3057 12.0973 9.3057 12.0973C9.3057 12.0927 9.3057 12.0882 9.31006 12.0837C9.31443 12.0792 9.31443 12.0701 9.31443 12.0701V12.0656C9.31443 12.0656 9.3188 12.0611 9.3188 12.0566C9.3188 12.043 9.36246 11.939 9.36683 11.9345C9.36683 11.9345 9.3712 11.93 9.3712 11.9209C9.37993 11.9029 9.40613 11.8531 9.41486 11.8396L9.41923 11.8351C9.41923 11.8351 9.4236 11.8305 9.42796 11.8215C9.43233 11.817 9.4367 11.8079 9.4367 11.8034C9.44543 11.7898 9.49346 11.7266 9.51966 11.6994C9.5284 11.6904 9.55023 11.6678 9.57207 11.6497L9.58517 11.6361C9.58953 11.6316 9.5939 11.6316 9.5939 11.6316C9.5939 11.6316 9.607 11.6226 9.61137 11.6181C9.61137 11.6181 9.6201 11.6135 9.62447 11.609C9.6253 11.6082 9.62613 11.6075 9.62693 11.6069C9.62774 11.6063 9.62851 11.6058 9.62923 11.6053C9.63153 11.6038 9.6332 11.6028 9.6332 11.6C9.63757 11.5909 9.74673 11.5276 9.75547 11.5276C9.75763 11.5276 9.75872 11.5276 9.75927 11.5271C9.75983 11.5265 9.75983 11.5254 9.75983 11.5231C9.75983 11.5231 9.7642 11.5186 9.76857 11.5186C9.77075 11.5186 9.77293 11.5175 9.77512 11.5163C9.7773 11.5152 9.77949 11.5141 9.78167 11.5141C9.7904 11.5096 9.8821 11.4689 9.89084 11.4689C9.89181 11.4689 9.89256 11.4689 9.8932 11.4688C9.89377 11.4688 9.89424 11.4687 9.89468 11.4685C9.89598 11.4681 9.89704 11.467 9.89956 11.4644L9.89957 11.4643C9.89957 11.4643 9.9083 11.4598 9.91267 11.4598C9.91704 11.4598 9.93014 11.4553 9.93887 11.4508C9.9476 11.4463 9.9607 11.4417 9.96944 11.4417C9.97817 11.4417 9.98254 11.4372 9.98254 11.4372L9.9869 11.4327C9.98927 11.4327 10.0019 11.4287 10.0157 11.4244L10.0157 11.4244C10.0274 11.4207 10.04 11.4167 10.048 11.4146C10.0524 11.4101 10.0611 11.4101 10.0655 11.4101C10.0699 11.4101 10.0742 11.4101 10.0786 11.4056C10.0813 11.4056 10.0857 11.4039 10.0917 11.4015C10.0954 11.4 10.0998 11.3983 10.1048 11.3965C10.1179 11.392 10.1354 11.3875 10.1441 11.3875C10.1513 11.3856 10.1601 11.383 10.1703 11.3799L10.1703 11.3799C10.1848 11.3755 10.2023 11.3702 10.2227 11.3649C10.2282 11.363 10.2337 11.3619 10.2385 11.3609C10.2452 11.3596 10.2507 11.3585 10.2533 11.3558C10.2576 11.3536 10.2686 11.3513 10.2822 11.3485L10.2822 11.3485L10.2822 11.3485C10.2959 11.3457 10.3122 11.3423 10.3275 11.3378C10.3406 11.3332 10.3624 11.3287 10.3755 11.3287C10.3821 11.3265 10.3908 11.3242 10.3996 11.3219C10.4083 11.3197 10.417 11.3174 10.4236 11.3152C10.4367 11.3106 10.4541 11.3061 10.4585 11.3061C10.4603 11.3061 10.4629 11.3053 10.4659 11.3044C10.4701 11.3032 10.4752 11.3016 10.4803 11.3016C10.4978 11.2971 10.5153 11.2926 10.5546 11.2835C10.5611 11.2813 10.5699 11.2801 10.5786 11.279C10.5873 11.2779 10.5961 11.2767 10.6026 11.2745C10.6334 11.2678 10.6534 11.2635 10.6693 11.2602C10.6961 11.2545 10.711 11.2514 10.7467 11.2428C10.7816 11.2338 10.8035 11.2247 10.8078 11.2157C10.8166 11.2021 10.8078 11.1795 10.7947 11.175C10.7904 11.175 10.786 11.175 10.786 11.1705C10.7826 11.1669 10.7383 11.1634 10.694 11.1598L10.6594 11.1569H10.6244C10.6201 11.1569 10.5982 11.1569 10.5764 11.1524C10.5641 11.1524 10.5504 11.151 10.5385 11.1497L10.5385 11.1497C10.5292 11.1488 10.521 11.1479 10.5153 11.1479C10.5065 11.1479 10.4891 11.1479 10.476 11.1434H10.4498H10.4279C10.3974 11.1434 10.3406 11.1389 10.3362 11.1343H10.3144C10.2838 11.1343 10.2445 11.1298 10.2314 11.1253C10.2271 11.1253 10.214 11.1253 10.2052 11.1208C10.1965 11.1208 10.1878 11.1208 10.1878 11.1162H10.1659C10.1572 11.1162 10.1441 11.1162 10.1397 11.1117C10.1362 11.1117 10.1318 11.111 10.125 11.1098L10.125 11.1098H10.125C10.1151 11.108 10.1 11.1054 10.0742 11.1027C10.0699 11.1027 10.0633 11.1016 10.0568 11.1004C10.0502 11.0993 10.0437 11.0982 10.0393 11.0982C10.0349 11.0982 10.0284 11.097 10.0218 11.0959L10.0218 11.0959C10.0153 11.0948 10.0087 11.0936 10.0044 11.0936C10 11.0936 9.99455 11.0925 9.98909 11.0914C9.98363 11.0903 9.97817 11.0891 9.9738 11.0891C9.96944 11.0891 9.96399 11.088 9.95854 11.0869L9.95852 11.0869C9.95306 11.0857 9.9476 11.0846 9.94324 11.0846C9.93812 11.0846 9.9345 11.0831 9.93151 11.0818C9.93044 11.0813 9.92945 11.0809 9.9285 11.0806C9.92756 11.0803 9.92667 11.0801 9.92577 11.0801C9.92577 11.0801 9.91704 11.0801 9.91267 11.0756C9.91049 11.0756 9.90721 11.0744 9.90394 11.0733C9.90066 11.0722 9.89739 11.071 9.8952 11.071C9.89084 11.071 9.87774 11.0665 9.869 11.062C9.86027 11.0575 9.84717 11.0575 9.8428 11.0575C9.84154 11.0575 9.84028 11.0571 9.83902 11.0566C9.8381 11.0562 9.83718 11.0557 9.83625 11.0552C9.83407 11.0541 9.83189 11.053 9.8297 11.053C9.82534 11.0515 9.81952 11.0499 9.81305 11.0483L9.81304 11.0483C9.8001 11.0449 9.78458 11.0409 9.77293 11.0349C9.77024 11.0349 9.76587 11.0331 9.75984 11.0308L9.75983 11.0308C9.7561 11.0293 9.75174 11.0276 9.74673 11.0258C9.7434 11.0241 9.74006 11.023 9.73721 11.0221C9.7326 11.0207 9.72927 11.0196 9.72927 11.0168C9.72927 11.0123 9.7249 11.0168 9.7249 11.0168C9.72053 11.0168 9.71617 11.0168 9.7118 11.0123C9.70962 11.01 9.70525 11.0089 9.70088 11.0077C9.69652 11.0066 9.69215 11.0055 9.68997 11.0032C9.6856 10.9987 9.67687 10.9987 9.67687 10.9987C9.67687 10.9987 9.6725 10.9987 9.6725 10.9942C9.6725 10.9942 9.6725 10.9897 9.66813 10.9897C9.66377 10.9897 9.58953 10.958 9.5808 10.949C9.5808 10.949 9.5677 10.9399 9.55897 10.9354L9.5153 10.9083H9.51093C9.51093 10.9083 9.50656 10.9038 9.49783 10.9038C9.49346 10.9008 9.48958 10.8977 9.4857 10.8947C9.47794 10.8887 9.47017 10.8827 9.45853 10.8766C9.4367 10.8586 9.36683 10.7953 9.36683 10.7908C9.36683 10.7908 9.36683 10.7862 9.36246 10.7862C9.36246 10.7862 9.35373 10.7817 9.34936 10.7727L9.34063 10.7636C9.34063 10.7636 9.33626 10.7636 9.33626 10.7591C9.33626 10.7591 9.3319 10.7501 9.32753 10.7455C9.32316 10.741 9.3188 10.732 9.3188 10.732L9.31006 10.7229C9.30133 10.7139 9.29696 10.7049 9.29259 10.6958C9.29259 10.6936 9.2915 10.6924 9.29041 10.6913C9.28932 10.6902 9.28823 10.689 9.28823 10.6868C9.28386 10.6823 9.23583 10.6009 9.21836 10.5647C9.21399 10.5557 9.20963 10.5466 9.20526 10.5421C9.20089 10.5376 9.20089 10.5285 9.20089 10.5285C9.20089 10.5285 9.20089 10.524 9.19653 10.5195C9.19653 10.5172 9.19544 10.5161 9.19434 10.515C9.19325 10.5139 9.19216 10.5127 9.19216 10.5105C9.19216 10.5059 9.19216 10.5059 9.18779 10.5014C9.18779 10.4969 9.18343 10.4924 9.17906 10.4879C9.17701 10.4857 9.17497 10.4807 9.17248 10.4744C9.16964 10.4674 9.16624 10.4589 9.16159 10.4517C9.15093 10.4296 9.14605 10.4135 9.14225 10.401L9.13976 10.3929C9.13976 10.3907 9.13867 10.3873 9.13758 10.3839C9.13648 10.3805 9.13539 10.3771 9.13539 10.3748C9.13539 10.3703 9.13103 10.3568 9.12666 10.3477C9.12499 10.3425 9.12332 10.338 9.1219 10.3342C9.11959 10.3279 9.11793 10.3234 9.11793 10.3206C9.11793 10.3183 9.11683 10.3149 9.11574 10.3116C9.11465 10.3082 9.11356 10.3048 9.11356 10.3025C9.11356 10.2935 9.10919 10.2799 9.10483 10.2709C9.10264 10.2663 9.10155 10.2607 9.10046 10.255C9.09937 10.2494 9.09828 10.2437 9.09609 10.2392C9.09609 10.2302 9.09173 10.2166 9.08736 10.2121C9.08299 10.2031 9.08299 10.194 9.08299 10.185C9.08299 10.1831 9.08224 10.1804 9.08137 10.1773C9.08012 10.173 9.07863 10.1677 9.07863 10.1624C9.07863 10.1578 9.07426 10.1398 9.06989 10.1217L9.06988 10.1216C9.06552 10.1036 9.06116 10.0855 9.05679 10.0765C9.05243 10.0539 9.04806 10.0313 9.03932 9.99962C9.03496 9.98606 9.03059 9.96345 9.03059 9.95441C9.02623 9.92729 9.01749 9.89112 9.00876 9.85947C9.00657 9.85269 9.00548 9.84478 9.00439 9.83687C9.0033 9.82896 9.00221 9.82105 9.00002 9.81427C8.99847 9.80463 8.99637 9.79442 8.99411 9.78344L8.9941 9.78342C8.99 9.7635 8.98537 9.74103 8.98256 9.71481C8.97819 9.69673 8.97382 9.67864 8.97382 9.66508C8.97382 9.65604 8.96946 9.63344 8.96509 9.61987C8.96072 9.60631 8.95636 9.58371 8.95636 9.57014C8.95453 9.56446 8.95347 9.55878 8.95253 9.55377C8.95122 9.54681 8.95016 9.54113 8.94762 9.5385C8.94762 9.53398 8.94326 9.52946 8.93889 9.52494L8.92579 9.5159H8.91269C8.90832 9.49329 8.89959 9.49781 8.89522 9.50233ZM15.1443 9.0819C15.1399 9.07286 15.1443 9.06382 15.153 9.0593C15.1618 9.05026 15.1705 9.04574 15.1705 9.07286H15.1836L15.1967 9.0819C15.2011 9.08642 15.2054 9.09095 15.2054 9.09547C15.208 9.09809 15.209 9.10377 15.2103 9.11073C15.2113 9.11575 15.2123 9.12143 15.2142 9.12711C15.2142 9.14067 15.2185 9.16328 15.2229 9.17684C15.2273 9.1904 15.2316 9.21301 15.2316 9.22205C15.2316 9.2356 15.236 9.25367 15.2403 9.27174L15.2404 9.27178C15.2432 9.298 15.2478 9.32047 15.2519 9.34039C15.2542 9.35138 15.2563 9.36159 15.2578 9.37123C15.26 9.37802 15.2611 9.38593 15.2622 9.39384C15.2633 9.40175 15.2644 9.40966 15.2666 9.41644C15.2753 9.44809 15.284 9.48425 15.2884 9.51138C15.2884 9.52042 15.2928 9.54302 15.2971 9.55658C15.3059 9.58823 15.3102 9.61083 15.3146 9.63344C15.319 9.64248 15.3233 9.66056 15.3277 9.67865C15.3289 9.68349 15.33 9.68801 15.3311 9.6922C15.3341 9.70367 15.3364 9.71271 15.3364 9.71933C15.3364 9.72463 15.3379 9.72993 15.3392 9.73431C15.34 9.73742 15.3408 9.74006 15.3408 9.74194C15.3408 9.75098 15.3408 9.76002 15.3452 9.76906C15.3495 9.77358 15.3539 9.78714 15.3539 9.79619C15.3561 9.80071 15.3572 9.80636 15.3583 9.81201C15.3593 9.81766 15.3604 9.82331 15.3626 9.82783C15.367 9.83687 15.3714 9.85043 15.3714 9.85948C15.3714 9.86174 15.3724 9.86513 15.3735 9.86852C15.3746 9.87191 15.3757 9.8753 15.3757 9.87756C15.3757 9.88035 15.3774 9.88487 15.3797 9.89112C15.3811 9.89498 15.3828 9.8995 15.3845 9.90468C15.3888 9.91373 15.3932 9.92729 15.3932 9.93181C15.3932 9.93407 15.3943 9.93746 15.3954 9.94085C15.3965 9.94424 15.3976 9.94763 15.3976 9.94989C15.3984 9.95241 15.3992 9.95509 15.4 9.95796C15.4038 9.97049 15.4087 9.98658 15.4194 10.0087C15.424 10.0159 15.4274 10.0244 15.4303 10.0314C15.4328 10.0376 15.4348 10.0427 15.4369 10.0448C15.4412 10.0493 15.4456 10.0539 15.4456 10.0584C15.4481 10.061 15.4492 10.0621 15.4496 10.0634C15.45 10.0644 15.45 10.0655 15.45 10.0674C15.45 10.0697 15.451 10.0708 15.4521 10.072C15.4532 10.0731 15.4543 10.0742 15.4543 10.0765C15.4587 10.081 15.4587 10.0855 15.4587 10.0855C15.4587 10.0855 15.4587 10.0946 15.4631 10.0991C15.4674 10.1036 15.4718 10.1126 15.4762 10.1217C15.4936 10.1578 15.5417 10.2392 15.546 10.2437C15.546 10.246 15.5471 10.2471 15.5482 10.2483C15.5493 10.2494 15.5504 10.2505 15.5504 10.2528C15.5548 10.2618 15.5591 10.2709 15.5679 10.2799L15.5766 10.2889C15.5766 10.2889 15.581 10.298 15.5853 10.3025C15.5897 10.307 15.5941 10.3161 15.5941 10.3161C15.5941 10.3206 15.5984 10.3206 15.5984 10.3206L15.6072 10.3296C15.6115 10.3387 15.6203 10.3432 15.6203 10.3432C15.6246 10.3432 15.6246 10.3477 15.6246 10.3477C15.6246 10.3522 15.6945 10.4155 15.7163 10.4336C15.728 10.4396 15.7357 10.4457 15.7435 10.4517C15.7474 10.4547 15.7513 10.4577 15.7556 10.4607C15.7644 10.4607 15.7687 10.4653 15.7687 10.4653H15.7731L15.8168 10.4924C15.8255 10.4969 15.8386 10.5059 15.8386 10.5059C15.8473 10.515 15.9216 10.5466 15.9259 10.5466C15.9303 10.5466 15.9303 10.5512 15.9303 10.5512C15.9303 10.5557 15.9347 10.5557 15.9347 10.5557C15.9347 10.5557 15.9434 10.5557 15.9478 10.5602C15.9499 10.5625 15.9543 10.5636 15.9587 10.5647C15.963 10.5658 15.9674 10.567 15.9696 10.5692C15.974 10.5738 15.9783 10.5738 15.9827 10.5738C15.9827 10.5738 15.9871 10.5692 15.9871 10.5738C15.9871 10.5766 15.9904 10.5776 15.995 10.5791C15.9979 10.58 16.0012 10.5811 16.0045 10.5828C16.0095 10.5845 16.0139 10.5863 16.0176 10.5877C16.0237 10.5901 16.028 10.5918 16.0307 10.5918C16.0424 10.5979 16.0579 10.6019 16.0708 10.6052C16.0773 10.6069 16.0831 10.6084 16.0875 10.6099C16.0897 10.6099 16.0919 10.6111 16.094 10.6122C16.0962 10.6133 16.0984 10.6144 16.1006 10.6144C16.105 10.6144 16.1181 10.6144 16.1268 10.619C16.1355 10.6235 16.1486 10.628 16.153 10.628C16.1552 10.628 16.1585 10.6291 16.1617 10.6303C16.165 10.6314 16.1683 10.6325 16.1705 10.6325C16.1748 10.637 16.1836 10.637 16.1836 10.637C16.1854 10.637 16.1872 10.6378 16.1893 10.6387C16.1923 10.64 16.1959 10.6416 16.201 10.6416C16.2054 10.6416 16.2109 10.6427 16.2163 10.6438C16.2218 10.645 16.2272 10.6461 16.2316 10.6461C16.236 10.6461 16.2414 10.6472 16.2469 10.6484C16.2523 10.6495 16.2578 10.6506 16.2622 10.6506C16.2665 10.6506 16.2731 10.6517 16.2796 10.6529C16.2862 10.654 16.2927 10.6551 16.2971 10.6551C16.3015 10.6551 16.308 10.6563 16.3146 10.6574C16.3211 10.6585 16.3277 10.6597 16.332 10.6597C16.3578 10.6623 16.3729 10.665 16.3828 10.6667C16.3896 10.6679 16.394 10.6687 16.3975 10.6687C16.4019 10.6732 16.415 10.6732 16.4237 10.6732H16.4456C16.4456 10.6777 16.4543 10.6777 16.463 10.6777C16.4718 10.6823 16.4849 10.6823 16.4892 10.6823C16.5023 10.6868 16.5416 10.6913 16.5722 10.6913H16.594C16.5984 10.6958 16.6552 10.7003 16.6857 10.7003H16.7076H16.7338C16.7469 10.7049 16.7643 10.7049 16.7731 10.7049C16.7788 10.7049 16.787 10.7057 16.7963 10.7067C16.8082 10.7079 16.8219 10.7094 16.8342 10.7094C16.856 10.7139 16.8779 10.7139 16.8822 10.7139H16.9172C16.9282 10.7149 16.94 10.7158 16.9518 10.7168C16.9961 10.7203 17.0404 10.7239 17.0438 10.7275C17.0438 10.732 17.0482 10.732 17.0525 10.732C17.0656 10.7365 17.0744 10.7591 17.0656 10.7727C17.0613 10.7817 17.0394 10.7908 17.0045 10.7998C16.9688 10.8083 16.9538 10.8115 16.927 10.8172C16.9112 10.8205 16.8912 10.8247 16.8604 10.8314C16.8539 10.8337 16.8451 10.8348 16.8364 10.836C16.8277 10.8371 16.8189 10.8382 16.8124 10.8405C16.7731 10.8495 16.7556 10.854 16.7381 10.8586C16.733 10.8586 16.7279 10.8601 16.7237 10.8614C16.7207 10.8623 16.7181 10.8631 16.7163 10.8631C16.7119 10.8631 16.6945 10.8676 16.6814 10.8721C16.6748 10.8744 16.6661 10.8766 16.6574 10.8789C16.6486 10.8812 16.6399 10.8834 16.6333 10.8857C16.6202 10.8857 16.5984 10.8902 16.5853 10.8947C16.57 10.8993 16.5536 10.9026 16.54 10.9055C16.5264 10.9083 16.5154 10.9106 16.5111 10.9128C16.5085 10.9154 16.503 10.9165 16.4963 10.9179C16.4915 10.9189 16.486 10.92 16.4805 10.9219C16.46 10.9272 16.4426 10.9325 16.4281 10.9368C16.4179 10.9399 16.4091 10.9426 16.4019 10.9445C16.3932 10.9445 16.3757 10.949 16.3626 10.9535C16.3576 10.9552 16.3532 10.957 16.3495 10.9584C16.3435 10.9608 16.3391 10.9625 16.3364 10.9625C16.332 10.9671 16.3277 10.9671 16.3233 10.9671C16.3189 10.9671 16.3102 10.9671 16.3058 10.9716C16.2978 10.9737 16.2852 10.9776 16.2735 10.9813C16.2597 10.9857 16.2471 10.9897 16.2447 10.9897L16.2403 10.9942C16.2403 10.9942 16.236 10.9987 16.2272 10.9987C16.2185 10.9987 16.2054 11.0032 16.1967 11.0078C16.1879 11.0123 16.1748 11.0168 16.1705 11.0168C16.1661 11.0168 16.1574 11.0213 16.1574 11.0213C16.153 11.0258 16.153 11.0258 16.1486 11.0258C16.1399 11.0258 16.0482 11.0665 16.0395 11.071C16.0373 11.071 16.0351 11.0722 16.0329 11.0733C16.0307 11.0744 16.0285 11.0756 16.0264 11.0756C16.022 11.0756 16.0176 11.0801 16.0176 11.0801C16.0176 11.0824 16.0176 11.0835 16.0171 11.0841C16.0165 11.0846 16.0154 11.0846 16.0133 11.0846C16.0045 11.0846 15.8954 11.1479 15.891 11.1569C15.891 11.1597 15.8893 11.1608 15.887 11.1623C15.8856 11.1632 15.8839 11.1643 15.8823 11.166C15.8779 11.1705 15.8692 11.175 15.8692 11.175C15.8648 11.1795 15.8517 11.1886 15.8517 11.1886C15.8517 11.1886 15.8473 11.1886 15.843 11.1931L15.8299 11.2067C15.808 11.2247 15.7862 11.2474 15.7775 11.2564C15.7513 11.2835 15.7032 11.3468 15.6945 11.3604C15.6945 11.3649 15.6901 11.3739 15.6858 11.3785C15.6814 11.3875 15.677 11.392 15.677 11.392L15.6727 11.3965C15.6639 11.4101 15.6377 11.4598 15.629 11.4779C15.629 11.487 15.6246 11.4915 15.6246 11.4915C15.6203 11.496 15.5766 11.6 15.5766 11.6135C15.5766 11.6181 15.5722 11.6226 15.5722 11.6226V11.6271C15.5722 11.6271 15.5722 11.6361 15.5679 11.6407C15.5635 11.6452 15.5635 11.6497 15.5635 11.6542C15.5635 11.6542 15.5591 11.6587 15.5591 11.6633C15.5548 11.6633 15.5548 11.6678 15.5548 11.6723C15.5548 11.6746 15.5537 11.6768 15.5526 11.6791C15.5515 11.6813 15.5504 11.6836 15.5504 11.6859C15.5504 11.6859 15.546 11.6949 15.546 11.6994C15.546 11.7017 15.5449 11.704 15.5438 11.7062C15.5427 11.7085 15.5417 11.7107 15.5417 11.713C15.5373 11.7175 15.5329 11.7401 15.5286 11.7672C15.5286 11.7718 15.5275 11.7763 15.5264 11.7808C15.5253 11.7853 15.5242 11.7898 15.5242 11.7944C15.5217 11.7969 15.5207 11.8037 15.5194 11.8116C15.5184 11.8178 15.5174 11.8246 15.5155 11.8305C15.5155 11.8391 15.5137 11.8477 15.5124 11.854C15.5117 11.8577 15.5111 11.8605 15.5111 11.8622C15.5111 11.8622 15.5067 11.8712 15.5067 11.8803C15.5067 11.8848 15.5056 11.8904 15.5045 11.8961C15.5034 11.9017 15.5024 11.9074 15.5024 11.9119C15.5024 11.9164 15.5013 11.9232 15.5002 11.93C15.4991 11.9368 15.498 11.9436 15.498 11.9481C15.498 11.9534 15.4965 11.9602 15.4952 11.9659C15.4944 11.9699 15.4936 11.9733 15.4936 11.9752C15.4893 11.9797 15.4893 11.9888 15.4893 11.9978C15.4849 12.0023 15.4849 12.0114 15.4849 12.0159C15.4805 12.0159 15.4805 12.0294 15.4805 12.0385C15.4782 12.0505 15.4771 12.0612 15.476 12.0727C15.4749 12.0829 15.4738 12.0936 15.4718 12.1063C15.4718 12.1131 15.4707 12.121 15.4696 12.1289C15.4685 12.1368 15.4674 12.1447 15.4674 12.1515C15.4674 12.1583 15.4663 12.1662 15.4652 12.1741C15.4641 12.182 15.4631 12.1899 15.4631 12.1967C15.4587 12.2103 15.4587 12.2284 15.4587 12.2374V12.2555C15.4543 12.2555 15.4543 12.269 15.4543 12.2826C15.4515 12.2975 15.4505 12.3123 15.4489 12.3362C15.4481 12.3486 15.4471 12.3635 15.4456 12.3821C15.4412 12.4273 15.4412 12.4589 15.4412 12.477V12.4996C15.4369 12.4996 15.4369 12.5177 15.4369 12.5312V12.5313C15.4369 12.5605 15.435 12.5878 15.4337 12.6071C15.433 12.6177 15.4325 12.6259 15.4325 12.6307V12.6533C15.4325 12.6578 15.4325 12.6624 15.4281 12.6669L15.4238 12.6714C15.4107 12.685 15.3888 12.685 15.3757 12.6759H15.3714C15.367 12.6714 15.3583 12.6624 15.3583 12.6533V12.6488C15.3567 12.6407 15.3546 12.6315 15.3521 12.6208C15.3477 12.6014 15.342 12.5768 15.3364 12.5448C15.3347 12.5376 15.3329 12.5289 15.3312 12.5202C15.3286 12.5072 15.3259 12.4942 15.3233 12.486C15.3233 12.4725 15.319 12.4499 15.3146 12.4363C15.3146 12.4228 15.3102 12.4047 15.3059 12.3911C15.3015 12.3775 15.2971 12.3595 15.2971 12.3459C15.2971 12.3323 15.2928 12.3143 15.2884 12.3007C15.2884 12.2871 15.284 12.2645 15.2797 12.251L15.2709 12.2238C15.2709 12.2238 15.2709 12.2148 15.2666 12.2012C15.2666 12.1877 15.2622 12.1651 15.2578 12.1515C15.2567 12.147 15.2556 12.1422 15.2545 12.1374C15.2513 12.123 15.248 12.1086 15.2447 12.1018C15.2447 12.0927 15.2404 12.0701 15.236 12.0611C15.236 12.0475 15.2316 12.0294 15.2273 12.0204C15.2251 12.0091 15.2218 11.9989 15.2185 11.9888C15.2152 11.9786 15.212 11.9684 15.2098 11.9571C15.2054 11.9526 15.2011 11.939 15.2011 11.9345C15.2011 11.9323 15.2 11.93 15.1989 11.9277C15.1978 11.9255 15.1967 11.9232 15.1967 11.9209C15.1942 11.9184 15.1932 11.9144 15.1919 11.9099C15.1909 11.9063 15.1899 11.9023 15.188 11.8983C15.1844 11.8801 15.1724 11.8443 15.1656 11.8239C15.1639 11.8191 15.1626 11.8151 15.1618 11.8124C15.1574 11.8079 15.153 11.7989 15.153 11.7944C15.153 11.7898 15.1487 11.7763 15.1443 11.7672C15.1356 11.7446 15.1181 11.704 15.1094 11.6859C15.105 11.6768 15.1006 11.6678 15.1006 11.6633C15.1006 11.661 15.0995 11.6587 15.0984 11.6565C15.0973 11.6542 15.0963 11.652 15.0963 11.6497C15.0963 11.6452 15.0919 11.6361 15.0875 11.6316C15.0821 11.6232 15.0784 11.6166 15.0732 11.6074C15.07 11.6017 15.0663 11.595 15.0613 11.5864C15.057 11.5774 15.0526 11.5638 15.0526 11.5638C15.0526 11.5593 15.0482 11.5593 15.0482 11.5593C15.0482 11.5593 15.0438 11.5548 15.0438 11.5502C15.0438 11.5457 15.0395 11.5412 15.0395 11.5412C15.0395 11.5412 15.0351 11.5412 15.0351 11.5367C15.0351 11.5313 15.0336 11.5291 15.0295 11.5235C15.0268 11.5196 15.0229 11.5142 15.0176 11.505C15.0133 11.5005 15.0089 11.4915 15.0089 11.4915C15.0089 11.4889 14.9975 11.4745 14.9861 11.4601C14.9775 11.4493 14.969 11.4385 14.9652 11.4327C14.9614 11.4274 14.9583 11.4229 14.9558 11.4191C14.9496 11.4101 14.9465 11.4056 14.9434 11.4056C14.939 11.4056 14.939 11.4011 14.939 11.4011C14.939 11.3965 14.8735 11.3378 14.843 11.3106C14.8211 11.2926 14.7687 11.2564 14.7644 11.2564C14.76 11.2564 14.7556 11.2564 14.7513 11.2519C14.7425 11.2489 14.7377 11.2458 14.7328 11.2428C14.7304 11.2413 14.728 11.2398 14.7251 11.2383C14.7207 11.2383 14.7163 11.2338 14.7163 11.2338C14.712 11.2293 14.6203 11.1841 14.6072 11.1841C14.6028 11.1841 14.5984 11.1795 14.5984 11.1795C14.5984 11.175 14.5941 11.175 14.5897 11.175C14.5853 11.175 14.581 11.1705 14.581 11.1705C14.581 11.1705 14.5722 11.1705 14.5635 11.166C14.5548 11.1615 14.5373 11.1569 14.5198 11.1524C14.5024 11.1479 14.4849 11.1434 14.4805 11.1434C14.4762 11.1434 14.4674 11.1389 14.4674 11.1389C14.4674 11.1343 14.4587 11.1343 14.4543 11.1343C14.4522 11.1343 14.4489 11.1332 14.4456 11.1321C14.4423 11.1309 14.4391 11.1298 14.4369 11.1298C14.4325 11.1253 14.4281 11.1253 14.4238 11.1253C14.4238 11.1253 14.415 11.1208 14.4107 11.1208C14.4056 11.1208 14.4004 11.1192 14.3962 11.1179C14.3932 11.117 14.3907 11.1163 14.3888 11.1163C14.3867 11.1163 14.3845 11.1151 14.3823 11.114C14.3801 11.1129 14.3779 11.1117 14.3757 11.1117C14.3736 11.1117 14.3703 11.1106 14.367 11.1095C14.3637 11.1083 14.3605 11.1072 14.3583 11.1072C14.3495 11.1072 14.3321 11.1072 14.319 11.1027C14.3059 11.0982 14.284 11.0936 14.2753 11.0936C14.2702 11.0936 14.2636 11.0921 14.2581 11.0908C14.2542 11.0899 14.2509 11.0891 14.2491 11.0891C14.2475 11.0891 14.2447 11.0885 14.2412 11.0878C14.2351 11.0864 14.2268 11.0846 14.2185 11.0846C14.2113 11.0846 14.2028 11.0832 14.1951 11.082C14.1889 11.081 14.1832 11.0801 14.1792 11.0801C14.1679 11.0777 14.1543 11.0766 14.1401 11.0754C14.1269 11.0744 14.1133 11.0732 14.1006 11.071C14.0923 11.071 14.0823 11.0692 14.0749 11.0679C14.0707 11.0671 14.0673 11.0665 14.0657 11.0665C14.0576 11.0637 14.0462 11.0627 14.0304 11.0612C14.0206 11.0603 14.0092 11.0592 13.9958 11.0575C13.9893 11.0575 13.9806 11.0564 13.9718 11.0552C13.9631 11.0541 13.9544 11.053 13.9478 11.053C13.9417 11.053 13.9338 11.052 13.9252 11.0509C13.9154 11.0497 13.9048 11.0484 13.8954 11.0484C13.8852 11.0484 13.8749 11.0469 13.8665 11.0456C13.8605 11.0447 13.8554 11.0439 13.8517 11.0439C13.8341 11.0403 13.7677 11.0366 13.7014 11.0329C13.6858 11.0321 13.6702 11.0312 13.6552 11.0304C13.5766 11.0265 13.5558 11.0226 13.5349 11.0187C13.5314 11.0181 13.528 11.0174 13.5242 11.0168C13.5068 11.0123 13.498 11.0032 13.498 10.9897C13.498 10.9716 13.5068 10.9671 13.5242 10.958C13.5504 10.949 13.5679 10.9445 13.5941 10.9399C13.6072 10.9354 13.6203 10.9309 13.6247 10.9309C13.6263 10.9309 13.6284 10.9303 13.6312 10.9295C13.636 10.9282 13.6426 10.9264 13.6509 10.9264C13.656 10.9264 13.6641 10.9248 13.6708 10.9235C13.6756 10.9226 13.6796 10.9219 13.6814 10.9219C13.6902 10.9173 13.712 10.9128 13.7338 10.9083C13.788 10.9003 13.8182 10.8923 13.8365 10.8874C13.8389 10.8868 13.841 10.8862 13.843 10.8857C13.8455 10.8832 13.852 10.882 13.8597 10.8808C13.8656 10.8797 13.8722 10.8786 13.8779 10.8766C13.8867 10.8736 13.8993 10.8706 13.9119 10.8676C13.9182 10.8661 13.9245 10.8646 13.9303 10.8631C13.9362 10.8616 13.9425 10.8601 13.9488 10.8586C13.9614 10.8556 13.974 10.8525 13.9827 10.8495C14.0308 10.836 14.0526 10.8314 14.057 10.8314C14.0595 10.8288 14.065 10.8277 14.0717 10.8264C14.0766 10.8254 14.082 10.8243 14.0875 10.8224C14.0921 10.8214 14.0964 10.8204 14.1005 10.8194C14.1322 10.8122 14.1537 10.8073 14.1923 10.7953C14.2042 10.7928 14.2173 10.789 14.2275 10.7861C14.2362 10.7836 14.2427 10.7817 14.2447 10.7817C14.2491 10.7817 14.2578 10.7772 14.2578 10.7772C14.2578 10.7772 14.2666 10.7727 14.2709 10.7727C14.2844 10.7692 14.3394 10.7496 14.3699 10.7387C14.379 10.7355 14.3858 10.733 14.3888 10.732C14.3932 10.7275 14.3976 10.7275 14.4019 10.7275C14.4063 10.7275 14.4107 10.7275 14.415 10.7229C14.4194 10.7184 14.4412 10.7094 14.4631 10.7003C14.4849 10.6868 14.5024 10.6777 14.5067 10.6777C14.5111 10.6732 14.5155 10.6732 14.5155 10.6732C14.5198 10.6732 14.5242 10.6732 14.546 10.6597C14.5548 10.6597 14.5591 10.6551 14.5591 10.6551C14.5635 10.6551 14.6421 10.6054 14.6683 10.5873C14.6776 10.5805 14.6861 10.5744 14.6934 10.5692C14.7101 10.5573 14.7207 10.5498 14.7207 10.5466C14.7207 10.5421 14.7251 10.5421 14.7251 10.5421C14.7294 10.5421 14.7469 10.5286 14.7469 10.524C14.7469 10.5195 14.7513 10.5195 14.7513 10.5195C14.7556 10.5195 14.7687 10.5059 14.7993 10.4743C14.8168 10.4562 14.8386 10.4291 14.8561 10.4065C14.8648 10.3974 14.8735 10.3839 14.8735 10.3839C14.8735 10.3794 14.8866 10.3568 14.9085 10.3251C14.9128 10.3206 14.9347 10.2754 14.9347 10.2754C14.9347 10.2754 14.9347 10.2663 14.939 10.2618C14.9412 10.2596 14.9434 10.255 14.9456 10.2505C14.9478 10.246 14.95 10.2415 14.9521 10.2392L14.9609 10.2211C14.9652 10.2121 14.9871 10.1578 14.9871 10.1533C14.9871 10.1488 14.9914 10.1488 14.9914 10.1488C14.9958 10.1488 14.9958 10.1443 14.9958 10.1443C14.9958 10.1398 14.9958 10.1352 15.0002 10.1262L15.0002 10.1262C15.0045 10.1126 15.0046 10.1126 15.0133 10.09C15.0351 10.0267 15.0526 9.94085 15.0657 9.85948C15.0701 9.83687 15.0744 9.80975 15.0744 9.80071C15.0788 9.79167 15.0788 9.7781 15.0788 9.77358C15.0831 9.76454 15.0832 9.76002 15.0832 9.7555C15.0832 9.7555 15.0875 9.73742 15.0875 9.71933C15.0875 9.70728 15.0895 9.69321 15.0908 9.68384C15.0914 9.67915 15.0919 9.67563 15.0919 9.67413C15.0962 9.6696 15.0963 9.65604 15.0963 9.647C15.1006 9.63344 15.1006 9.61988 15.1006 9.61536C15.1006 9.58823 15.1094 9.48877 15.1137 9.44809C15.1181 9.43452 15.1181 9.41644 15.1181 9.41192V9.3848C15.1181 9.38314 15.1187 9.37967 15.1194 9.37527C15.1207 9.36764 15.1225 9.35723 15.1225 9.34863C15.1268 9.33507 15.1268 9.31246 15.1268 9.30342C15.1268 9.29936 15.1277 9.29164 15.1287 9.28314C15.1299 9.27274 15.1312 9.26116 15.1312 9.25369C15.1312 9.24691 15.1323 9.23674 15.1334 9.22657C15.1345 9.2164 15.1356 9.20623 15.1356 9.19944C15.1385 9.15122 15.1414 9.12711 15.143 9.11372C15.1438 9.10702 15.1443 9.103 15.1443 9.09999V9.0819Z" fill="#60E878"/>
</svg>
