<svg width="60" height="60" viewBox="0 0 60 60" fill="none" xmlns="http://www.w3.org/2000/svg">
<path d="M32 37C35.866 37 39 33.866 39 30C39 26.134 35.866 23 32 23C28.134 23 25 26.134 25 30C25 33.866 28.134 37 32 37Z" stroke="#60E878" stroke-width="2" stroke-miterlimit="10"/>
<path d="M29 30C29 28.343 30.343 27 32 27" stroke="#60E878" stroke-width="2" stroke-miterlimit="10"/>
<path d="M20 55C23.866 55 27 51.866 27 48C27 44.134 23.866 41 20 41C16.134 41 13 44.134 13 48C13 51.866 16.134 55 20 55Z" stroke="#60E878" stroke-width="2" stroke-miterlimit="10"/>
<path d="M17 48C17 46.343 18.343 45 20 45" stroke="#60E878" stroke-width="2" stroke-miterlimit="10"/>
<path d="M43 19C46.866 19 50 15.866 50 12C50 8.13401 46.866 5 43 5C39.134 5 36 8.13401 36 12C36 15.866 39.134 19 43 19Z" stroke="#60E878" stroke-width="2" stroke-miterlimit="10"/>
<path d="M40 12C40 10.343 41.343 9 43 9" stroke="#60E878" stroke-width="2" stroke-miterlimit="10"/>
<path d="M13 48H5" stroke="#60E878" stroke-width="2" stroke-miterlimit="10"/>
<path d="M55 48H30" stroke="#60E878" stroke-width="2" stroke-miterlimit="10"/>
<path d="M5 30H22" stroke="#60E878" stroke-width="2" stroke-miterlimit="10"/>
<path d="M55 30H39" stroke="#60E878" stroke-width="2" stroke-miterlimit="10"/>
<path d="M55 12H50" stroke="#60E878" stroke-width="2" stroke-miterlimit="10"/>
<path d="M5 12H33" stroke="#60E878" stroke-width="2" stroke-miterlimit="10"/>
<path d="M35 52H45" stroke="#60E878" stroke-width="2" stroke-miterlimit="10"/>
<path d="M47 52H50" stroke="#60E878" stroke-width="2" stroke-miterlimit="10"/>
<path d="M2 8H5" stroke="#60E878" stroke-width="2" stroke-miterlimit="10"/>
<path d="M7 8H20" stroke="#60E878" stroke-width="2" stroke-miterlimit="10"/>
</svg>
