<svg width="90" height="90" viewBox="0 0 90 90" fill="none" xmlns="http://www.w3.org/2000/svg">
<circle cx="45" cy="45" r="45" fill="#12121C"/>
<path d="M66.4641 46.0096C66.4828 46.0203 66.4884 46.0291 66.4913 46.0343C66.4957 46.0421 66.4999 46.0549 66.4999 46.0714C66.4999 46.0879 66.4957 46.1007 66.4913 46.1086C66.4884 46.1138 66.4828 46.1225 66.4641 46.1333L32.7141 65.6188C32.6955 65.6296 32.6851 65.6301 32.6792 65.63C32.6702 65.6298 32.657 65.6271 32.6427 65.6188C32.6284 65.6106 32.6195 65.6006 32.6148 65.5928C32.6118 65.5878 32.607 65.5785 32.607 65.557L32.607 26.5858C32.607 26.5643 32.6118 26.5551 32.6148 26.55C32.6195 26.5423 32.6284 26.5322 32.6427 26.524C32.657 26.5157 32.6702 26.513 32.6792 26.5128C32.6851 26.5127 32.6955 26.5132 32.7141 26.524L66.4641 46.0096Z" fill="#12121C" stroke="white" stroke-width="2"/>
</svg>
