<svg width="64" height="65" viewBox="0 0 64 65" fill="none" xmlns="http://www.w3.org/2000/svg">
<g clip-path="url(#clip0_915_2587)">
<path d="M49.8299 40.2908C47.4247 40.6568 44.9672 39.8725 43.2417 38.147L39.5293 34.4346C38.4835 33.3888 38.4835 31.6633 39.5293 30.5653L43.2417 26.8529C45.0195 25.0751 47.477 24.3431 49.9345 24.7091C53.6469 25.2843 57.5162 24.1339 60.392 21.2581C65.3594 16.2908 65.1502 8.13393 59.7646 3.42804C55.1633 -0.545812 48.209 -0.493525 43.7123 3.58491C40.4705 6.46072 39.1633 10.6437 39.7907 14.5653C40.1567 17.0228 39.4247 19.4803 37.6469 21.2058L33.9345 24.9182C32.8888 25.964 31.1633 25.964 30.0652 24.9182L26.3528 21.2058C24.575 19.428 23.843 16.9705 24.209 14.513C24.7842 10.8006 23.6339 6.93131 20.758 4.0555C15.843 -0.911825 7.68615 -0.702675 2.98027 4.68295C-1.04587 9.28425 -0.993586 16.2908 3.08485 20.7875C5.96066 24.0294 10.1437 25.2843 14.0652 24.7091C16.5228 24.3431 18.9803 25.0751 20.7058 26.8529L24.4182 30.5653C25.4639 31.6111 25.4639 33.3365 24.4182 34.4346L20.7058 38.147C18.928 39.9248 16.4705 40.6568 14.013 40.2908C10.3005 39.7156 6.43125 40.866 3.55543 43.7418C-1.41189 48.7091 -1.20274 56.866 4.18289 61.5718C8.7319 65.5457 15.5816 65.5457 20.1306 61.5718C23.477 58.6437 24.8365 54.4084 24.209 50.3823C23.843 47.9771 24.6273 45.5196 26.3528 43.7941L30.0652 40.0816C31.111 39.0359 32.8365 39.0359 33.9345 40.0816L37.6469 43.7941C39.4247 45.5718 40.1567 48.0294 39.7907 50.4869C39.2156 54.1993 40.3659 58.0686 43.2417 60.9444C48.209 65.9117 56.3659 65.7026 61.0718 60.3169C64.9933 55.7679 65.0456 48.9182 61.0718 44.3692C58.0914 40.9705 53.8561 39.6633 49.8299 40.2908Z" fill="#60E878"/>
</g>
<defs>
<clipPath id="clip0_915_2587">
<rect width="64" height="64" fill="white" transform="translate(0 0.5)"/>
</clipPath>
</defs>
</svg>
