<svg width="380" height="65" viewBox="0 0 380 65" fill="none" xmlns="http://www.w3.org/2000/svg">
<path fill-rule="evenodd" clip-rule="evenodd" d="M78.2023 6.08674C120.61 1.04773 171.21 -0.278549 204.869 0.0460757C205.421 0.051402 205.865 0.503414 205.859 1.05567C205.854 1.60793 205.402 2.05131 204.85 2.04598C171.239 1.72182 120.73 3.04746 78.4383 8.07277C57.2837 10.5864 38.2397 14.0197 24.4046 18.6137C17.4823 20.9122 11.9272 23.4812 8.07149 26.3281C4.21091 29.1786 2.18726 32.2032 2.00681 35.4069C1.90671 37.184 2.94806 39.035 5.48653 40.9498C8.01312 42.8556 11.845 44.6802 16.8658 46.3983C26.8934 49.8296 41.3895 52.7465 58.9229 55.1312C93.9717 59.8981 140.954 62.5124 188.108 62.938C235.26 63.3635 282.543 61.6 318.191 57.622C336.023 55.6322 350.9 53.0928 361.383 50.0117C366.631 48.4693 370.719 46.8077 373.516 45.0465C376.349 43.2627 377.634 41.5221 377.765 39.8931C378.056 36.2766 375.402 32.6664 369.578 29.159C363.815 25.6886 355.279 22.5309 344.614 19.7399C323.302 14.1627 293.756 10.116 261.59 7.8523C197.229 3.32279 122.676 5.95051 82.9656 17.5767C82.4355 17.7319 81.8801 17.428 81.7249 16.898C81.5697 16.3679 81.8736 15.8125 82.4036 15.6573C122.469 3.92713 197.316 1.324 261.73 5.85724C293.952 8.12491 323.638 12.183 345.12 17.805C355.852 20.6135 364.604 23.8291 370.61 27.4456C376.554 31.0251 380.148 35.2156 379.759 40.0536C379.55 42.6519 377.57 44.8572 374.581 46.739C371.557 48.6434 367.267 50.367 361.947 51.9305C351.296 55.061 336.283 57.6156 318.413 59.6097C282.658 63.5996 235.29 65.3639 188.09 64.9379C140.89 64.5119 93.8165 61.8954 58.6534 57.1129C41.0807 54.7229 26.4317 51.7855 16.2183 48.2905C11.1186 46.5455 7.05608 44.6389 4.28214 42.5465C1.52008 40.463 -0.145166 38.0487 0.00997281 35.2944C0.237899 31.248 2.78871 27.7426 6.88351 24.7192C10.9832 21.6921 16.7645 19.0432 23.7743 16.7156C37.8035 12.0572 57.007 8.60524 78.2023 6.08674Z" fill="#60E878"/>
</svg>
