<svg width="507" height="167" viewBox="0 0 507 167" fill="none" xmlns="http://www.w3.org/2000/svg">
<path fill-rule="evenodd" clip-rule="evenodd" d="M291.507 2.06912C186.626 0.951964 65.6213 13.5711 1.18677 25.8086C0.644182 25.9116 0.120792 25.5553 0.0177436 25.0127C-0.0853049 24.4701 0.271011 23.9468 0.813596 23.8437C65.3791 11.5814 186.516 -1.04932 291.528 0.06923C344.025 0.628417 392.564 4.62385 428.008 13.85C445.724 18.4616 460.248 24.3998 470.363 31.929C480.502 39.4751 486.284 48.6827 486.284 59.7688C486.284 69.9089 479.044 79.0428 466.939 87.1663C463.36 89.5679 459.335 91.8959 454.91 94.1496C466.115 97.0255 475.872 100.318 483.795 104.051C496.797 110.177 505.182 117.641 506.528 126.683C507.563 133.636 506.871 139.551 504.707 144.526C502.543 149.503 498.935 153.469 494.255 156.571C484.932 162.75 471.29 165.544 455.957 166.181C425.256 167.457 387.164 160.104 361.464 152.942C360.932 152.794 360.621 152.242 360.769 151.71C360.917 151.178 361.469 150.867 362.001 151.016C387.613 158.153 425.474 165.446 455.874 164.183C471.092 163.55 484.287 160.778 493.15 154.904C497.563 151.979 500.887 148.296 502.873 143.729C504.86 139.16 505.54 133.635 504.55 126.978C503.364 119.008 495.85 111.942 482.942 105.86C474.635 101.947 464.225 98.5043 452.156 95.518C442.116 100.385 430.202 104.895 416.895 109.04C375.63 121.894 320.718 131.313 266.031 136.905C211.34 142.498 156.813 144.268 116.307 141.802C96.0645 140.57 79.264 138.277 67.6826 134.848C61.9009 133.137 57.3354 131.118 54.2905 128.747C51.227 126.361 49.5777 123.504 50.0086 120.197C50.4648 116.695 52.7828 113.5 56.4503 110.599C60.1268 107.69 65.271 104.986 71.6253 102.478C84.3393 97.4607 102.099 93.1525 123.19 89.6188C165.386 82.5489 221.106 78.5483 276.917 78.2441C332.726 77.94 388.682 81.3317 431.342 89.0664C438.607 90.3835 445.492 91.8276 451.93 93.4029C457.116 90.8603 461.769 88.227 465.824 85.5055C477.769 77.4896 484.284 68.8782 484.284 59.7688C484.284 49.4943 478.964 40.8239 469.169 33.5334C459.351 26.2259 445.111 20.3689 427.504 15.7855C392.3 6.62158 343.955 2.62778 291.507 2.06912ZM449.067 94.7723C443.371 93.43 437.329 92.1845 430.985 91.0343C388.492 83.3299 332.671 79.9403 276.928 80.2441C221.188 80.5478 165.581 84.5442 123.52 91.5913C102.483 95.1161 84.8823 99.3965 72.3595 104.339C66.0952 106.811 61.1518 109.43 57.6911 112.167C54.2215 114.912 52.3526 117.686 51.9918 120.455C51.685 122.811 52.7831 125.038 55.5193 127.169C58.274 129.314 62.5606 131.246 68.2504 132.93C79.6122 136.294 96.2329 138.577 116.428 139.806C156.797 142.264 211.21 140.501 265.828 134.916C320.449 129.33 375.214 119.928 416.3 107.131C428.587 103.303 439.629 99.1786 449.067 94.7723Z" fill="#60E878"/>
</svg>
