<svg width="19" height="23" viewBox="0 0 19 23" fill="none" xmlns="http://www.w3.org/2000/svg">
<path d="M3.488 23V18.2H0.544V16.312H3.488V13.272H0.544V11.416H3.488V0.439999H10.912C12.4907 0.439999 13.8453 0.706666 14.976 1.24C16.1067 1.77333 16.96 2.53067 17.536 3.512C18.112 4.472 18.4 5.624 18.4 6.968C18.4 8.29067 18.1013 9.42133 17.504 10.36C16.9067 11.2987 16.064 12.024 14.976 12.536C13.888 13.0267 12.608 13.272 11.136 13.272H6.464V16.312H11.968V18.2H6.464V23H3.488ZM6.432 11.416H10.688C12.288 11.416 13.5147 11.0533 14.368 10.328C15.2213 9.58133 15.648 8.49333 15.648 7.064C15.648 5.61333 15.2213 4.536 14.368 3.832C13.536 3.10667 12.3093 2.744 10.688 2.744H6.432V11.416Z" fill="#60E878"/>
</svg>
