<svg width="56" height="56" viewBox="0 0 56 56" fill="none" xmlns="http://www.w3.org/2000/svg">
<g clip-path="url(#clip0_470_1663)">
<path d="M36.3851 10.2416C33.3049 8.73166 30.2814 8.05997 27.014 8.15239C21.1576 8.31956 15.6351 11.1774 12.0741 15.883C11.5668 16.5561 10.6528 18.0188 10.2702 18.7698C7.81599 23.6051 7.48591 29.2057 9.35274 34.3127C10.4977 37.4566 12.3923 40.1591 15.0497 42.4418C15.5894 42.9129 15.8666 43.0994 17.2967 43.993C18.7556 44.9046 19.0063 45.048 19.6903 45.3416C23.7907 47.0876 28.0355 47.4387 32.2637 46.3745C38.9994 44.6828 44.3347 39.487 46.2236 32.7799C47.0648 29.7999 47.169 26.6003 46.5263 23.5495C45.6328 19.2983 43.4446 15.6028 40.1071 12.7213C39.6046 12.2868 39.2519 12.0397 38.0437 11.2714C37.2435 10.7579 36.4967 10.2979 36.3851 10.2416ZM29.0803 17.137C30.1602 18.7618 28.3571 23.2279 25.6653 25.6134C24.2077 26.9103 22.8034 27.2035 22.2664 26.3328C21.7673 25.5191 21.9009 24.0773 22.6405 22.2314C23.0402 21.2502 24.0804 19.5855 24.7872 18.7962C25.8004 17.6765 26.7502 16.9788 27.5782 16.7537C28.3095 16.555 28.7716 16.6698 29.0803 17.137ZM37.0351 22.1546C37.5559 23.0085 37.3205 24.7413 36.4036 26.7105C36.1281 27.301 35.264 28.6945 34.8433 29.2076C34.0919 30.143 33.3277 30.8429 32.5504 31.3072C31.4795 31.9425 30.6055 31.9316 30.1704 31.2717C29.6879 30.5488 29.8271 28.9699 30.5198 27.2419C30.7636 26.6383 30.8965 26.3935 31.5416 25.3717C32.167 24.3709 32.3515 24.1183 32.7446 23.6815C33.7993 22.5276 34.7899 21.8287 35.6473 21.6419C36.2969 21.4993 36.7337 21.6652 37.0351 22.1546ZM16.8882 24.4105C16.8423 24.6761 16.7765 25.0164 16.7494 25.1666L16.7023 25.4449L15.919 25.3101C15.4911 25.2367 15.1286 25.1975 15.1166 25.2167C15.0534 25.3178 14.9857 26.4194 15.0012 27.078C15.0301 28.0996 15.1182 28.8236 15.3381 29.7638C15.9846 32.5094 17.5121 34.9557 19.6677 36.7174C20.5493 37.4422 22.1456 38.3795 23.1339 38.7629C26.416 40.0244 29.9895 39.9226 33.1401 38.4794C33.8241 38.1642 34.9587 37.5018 34.9594 37.4152C34.9571 37.387 34.8007 37.1354 34.6041 36.852C34.3979 36.5626 34.2703 36.329 34.3009 36.3013C34.8061 35.9413 35.4861 35.4831 35.5408 35.4704C35.5828 35.4566 36.1025 36.1626 36.8199 37.193L38.0288 38.9318L37.383 39.3779C37.0286 39.6247 36.7265 39.8306 36.7061 39.8313C36.6904 39.8349 36.5208 39.6151 36.3326 39.3504C36.1426 39.0778 35.9694 38.8424 35.9406 38.8244C35.9166 38.8094 35.6223 38.96 35.2919 39.1684C34.9646 39.3719 34.3609 39.6972 33.9514 39.8828C31.5275 41.0174 28.9674 41.4515 26.3247 41.1849C24.8338 41.0294 23.498 40.6897 22.0544 40.0953C21.2323 39.7556 19.0968 38.4212 18.4167 37.8223C15.9735 35.6667 14.4611 33.1429 13.7519 30.017C13.4018 28.4736 13.3082 27.2244 13.4281 25.687L13.4932 24.878L12.9957 24.7879L12.4951 24.7026L12.5133 24.5668C12.5713 24.1749 12.7754 23.1115 12.7988 23.1061C12.8846 23.0862 16.9507 23.8407 16.9644 23.8827C16.9698 23.9062 16.9389 24.1478 16.8882 24.4105Z" fill="#60E878"/>
</g>
<defs>
<clipPath id="clip0_470_1663">
<rect width="40" height="40" fill="white" transform="translate(21.1968) rotate(32)"/>
</clipPath>
</defs>
</svg>
