<svg width="62" height="62" viewBox="0 0 62 62" fill="none" xmlns="http://www.w3.org/2000/svg">
<path d="M28.2921 0.0189743C22.8324 0.581776 18.1604 2.23388 13.8054 5.12959C6.00066 10.3219 0.930318 18.882 0.0882783 28.2862C-0.0294261 29.6297 -0.0294261 32.3893 0.0882783 33.7327C0.857884 42.3745 5.15862 50.2537 12.0217 55.6004C16.2409 58.8955 21.103 60.9561 26.6442 61.8003C27.776 61.9818 28.3102 62 31.0083 62C33.7608 62 34.2226 61.9818 35.3996 61.8003C42.4438 60.6928 48.501 57.5702 53.336 52.5413C61.0411 44.5349 63.875 32.9611 60.7513 22.2588C59.366 17.5022 56.7947 13.0724 53.336 9.47771C48.5191 4.46694 42.4166 1.30798 35.4449 0.227753C34.3946 0.0643616 33.7065 0.0280495 31.4158 0.00989532C29.8947 -0.00825882 28.4913 0.000816345 28.2921 0.0189743ZM24.2267 15.5687C27.0698 16.8577 28.4098 24.4465 26.78 29.9656C25.9018 32.9611 24.2449 34.5497 22.7781 33.8235C21.4109 33.1427 20.3697 31.073 19.8083 27.9413C19.5186 26.271 19.5186 23.1302 19.8083 21.46C20.2338 19.0817 20.931 17.3297 21.8636 16.3221C22.6875 15.4325 23.4119 15.1965 24.2267 15.5687ZM39.2748 15.6322C40.7054 16.3494 41.8552 18.9001 42.2808 22.3496C42.4076 23.3844 42.4166 26.0078 42.2808 27.0608C42.0544 28.9671 41.6108 30.5647 40.9498 31.8537C40.0354 33.6238 38.8402 34.35 37.6903 33.8235C36.4227 33.2516 35.2729 30.9913 34.7477 28.0593C34.5666 27.0336 34.5395 26.5888 34.5485 24.6553C34.5485 22.7671 34.5847 22.2679 34.7477 21.342C35.2004 18.882 35.9519 17.0937 36.9569 16.1133C37.7175 15.369 38.4509 15.2238 39.2748 15.6322ZM13.8506 35.7752C14.0136 36.1746 14.2128 36.692 14.3034 36.9189L14.4754 37.3365L13.2983 37.8176C12.6555 38.0808 12.1303 38.335 12.1303 38.3713C12.1303 38.5619 12.9724 40.1142 13.5519 40.9947C14.4573 42.3563 15.1907 43.2641 16.2862 44.3534C19.4914 47.5305 23.6382 49.5548 28.0567 50.1176C29.8675 50.3536 32.8282 50.2719 34.4942 49.9542C40.0172 48.883 44.7797 45.715 47.831 41.0855C48.492 40.0779 49.4698 38.217 49.3974 38.099C49.3702 38.0627 48.9447 37.8539 48.4376 37.636C47.9125 37.4182 47.5413 37.2094 47.5594 37.1459C47.9397 36.229 48.4739 35.0308 48.5372 34.9673C48.5825 34.9128 49.8863 35.4302 51.7334 36.22L54.848 37.5543L54.35 38.7072C54.0784 39.3426 53.843 39.8782 53.8158 39.8963C53.7977 39.9145 53.3812 39.7602 52.9014 39.5605C52.4124 39.3517 51.9778 39.1792 51.9235 39.1792C51.8782 39.1792 51.6066 39.6331 51.335 40.1959C51.0634 40.7496 50.5201 41.7028 50.1217 42.3019C47.7948 45.8966 44.6892 48.6561 40.8774 50.5351C38.7225 51.5881 36.6219 52.2599 34.1592 52.6774C32.7558 52.9134 28.7267 52.9134 27.2961 52.6774C22.1533 51.8241 17.9612 49.6819 14.3486 46.0418C12.5649 44.2445 11.3788 42.6287 10.238 40.441L9.64045 39.2881L8.88895 39.5877L8.13745 39.8963L8.04691 39.6966C7.79339 39.1157 7.16865 37.4999 7.19582 37.4727C7.29541 37.3728 13.4523 34.9491 13.5066 34.9945C13.5337 35.0217 13.6967 35.3758 13.8506 35.7752Z" fill="#60E878"/>
</svg>
