<svg width="795" height="96" viewBox="0 0 795 96" fill="none" xmlns="http://www.w3.org/2000/svg">
<g clip-path="url(#clip0_357_590)">
<path d="M789.916 32.7931L788.959 32.1484C788.456 32.8443 787.794 33.4097 787.028 33.7974C786.262 34.1852 785.415 34.3839 784.556 34.3772C783.701 34.3825 782.856 34.183 782.094 33.7952C781.331 33.4075 780.672 32.8428 780.173 32.1484L779.215 32.8484C779.766 33.6087 780.474 34.242 781.29 34.7059C782.107 35.1698 783.013 35.4534 783.948 35.5376C783.948 40.0563 782.153 44.39 778.958 47.5852C775.763 50.7804 771.429 52.5755 766.911 52.5755C762.392 52.5755 758.058 50.7804 754.863 47.5852C751.668 44.39 749.873 40.0563 749.873 35.5376C750.808 35.4534 751.714 35.1698 752.531 34.7059C753.347 34.242 754.055 33.6087 754.606 32.8484L753.649 32.1484C753.144 32.8374 752.484 33.3978 751.722 33.7841C750.961 34.1703 750.119 34.3716 749.265 34.3716C748.411 34.3716 747.569 34.1703 746.807 33.7841C746.046 33.3978 745.386 32.8374 744.881 32.1484L743.905 32.8484C744.462 33.6114 745.176 34.2462 745.999 34.7101C746.822 35.1739 747.734 35.4561 748.675 35.5376C748.675 40.3739 750.597 45.0121 754.016 48.4318C757.436 51.8516 762.074 53.7728 766.911 53.7728C771.747 53.7728 776.385 51.8516 779.805 48.4318C783.225 45.0121 785.146 40.3739 785.146 35.5376C786.092 35.4532 787.009 35.164 787.833 34.6901C788.657 34.2162 789.368 33.5689 789.916 32.7931Z" fill="#60E878"/>
<path d="M764.884 27.3225C765.938 22.7344 765.938 17.967 764.884 13.379C763.852 10.3398 762.139 11.5371 761.071 16.2708C760.026 20.8537 760.026 25.613 761.071 30.1959C762.176 33.2535 763.889 31.9641 764.884 27.3225Z" fill="#60E878"/>
<path d="M772.62 27.3225C773.674 22.7344 773.674 17.967 772.62 13.379C771.589 10.3398 769.876 11.5371 768.826 16.2708C767.772 20.8528 767.772 25.614 768.826 30.1959C769.839 33.2535 771.552 31.9641 772.62 27.3225Z" fill="#60E878"/>
<path d="M764.073 1.88523C762.164 1.88865 760.259 2.06745 758.382 2.41939C754.736 1.67154 750.976 1.67154 747.33 2.41939C743.693 1.5929 739.916 1.5929 736.279 2.41939C732.652 1.49862 728.853 1.49862 725.227 2.41939C721.606 1.4196 717.776 1.45789 714.175 2.52991C710.575 1.37975 706.7 1.4185 703.124 2.64042C699.547 1.3324 695.613 1.38485 692.072 2.78778C690.321 2.04212 688.432 1.67163 686.529 1.70018C684.625 1.72874 682.749 2.1557 681.021 2.95356C679.298 2.09174 677.391 1.66311 675.465 1.70483C673.539 1.74656 671.653 2.25738 669.969 3.193C668.354 2.22441 666.51 1.7031 664.627 1.68262C654.662 1.88523 647 15.4603 647 32.1482C647 48.8362 654.662 62.4296 664.075 62.4296C665.959 62.4018 667.803 61.8743 669.416 60.9008C671.096 61.8473 672.984 62.3643 674.912 62.4061C676.84 62.4479 678.748 62.0131 680.468 61.1403C682.193 61.9494 684.071 62.3827 685.976 62.4112C687.881 62.4398 689.771 62.0631 691.52 61.3061C693.347 62.0387 695.297 62.4199 697.266 62.4296C699.101 62.4184 700.92 62.0945 702.645 61.4718C704.491 62.0966 706.425 62.4201 708.373 62.4296C710.253 62.4556 712.124 62.182 713.918 61.6192C715.773 62.1908 717.704 62.4825 719.646 62.4849C721.476 62.4435 723.292 62.1522 725.043 61.6192C728.666 62.5664 732.471 62.5664 736.094 61.6192C737.965 62.0658 739.881 62.2945 741.804 62.3007C743.627 62.3029 745.443 62.099 747.22 61.6929C750.864 62.4585 754.627 62.4585 758.271 61.6929C760.146 62.06 762.052 62.245 763.963 62.2454C768.001 62.3451 772.018 61.6357 775.778 60.1592C779.538 58.6826 782.965 56.4688 785.856 53.6479C788.748 50.827 791.045 47.4561 792.614 43.7337C794.183 40.0113 794.991 36.0127 794.991 31.9732C794.991 27.9338 794.183 23.9351 792.614 20.2128C791.045 16.4904 788.748 13.1195 785.856 10.2986C782.965 7.47774 779.538 5.26385 775.778 3.78731C772.018 2.31076 768.001 1.60142 763.963 1.70104L764.073 1.88523ZM753.022 3.06407C753.814 3.06407 754.587 3.06407 755.379 3.17459L754.366 3.50614L753.814 3.69033L752.543 4.20607C751.732 3.83769 750.922 3.50614 750.093 3.21143C751.048 3.11142 752.007 3.06223 752.967 3.06407H753.022ZM750.148 5.29281L749.154 5.8454L748.601 6.15852L747.607 6.78478L747.146 7.09791C746.796 7.31894 746.465 7.55839 746.133 7.81627C745.022 6.85367 743.833 5.98498 742.578 5.21914C744.097 4.57471 745.668 4.06319 747.275 3.69033C748.533 3.98274 749.765 4.37699 750.959 4.86916L750.701 5.01652L750.148 5.29281ZM744.623 8.97668L744.107 9.43716L743.72 9.78714L743.223 10.2476C743.094 10.3766 742.965 10.4871 742.854 10.616L742.375 11.0949L742.007 11.4817C741.86 11.6475 741.694 11.8133 741.547 11.9975L741.215 12.3658C741.052 12.5479 740.898 12.7385 740.755 12.9368C740.644 13.0474 740.552 13.1763 740.441 13.3052L739.962 13.9315L739.723 14.263L739.557 14.4657C738.514 12.639 737.279 10.9286 735.873 9.36349C737.561 7.91782 739.416 6.68093 741.399 5.67962C742.793 6.44994 744.108 7.35695 745.323 8.38726L745.101 8.57146L744.623 8.97668ZM738.323 16.3444L738.047 16.8233L737.771 17.2838L737.494 17.7996L737.236 18.26C737.236 18.4258 737.071 18.61 736.979 18.7758L736.758 19.2547C736.667 19.4276 736.587 19.606 736.518 19.7888L736.297 20.2493L736.076 20.8019C736.076 20.9493 735.947 21.115 735.892 21.2808L735.689 21.8334L735.413 22.386C735.413 22.5702 735.284 22.7728 735.229 22.957C735.171 23.1077 735.122 23.2614 735.081 23.4175C735.081 23.6201 734.952 23.8227 734.897 24.0069C734.863 24.1687 734.82 24.3286 734.768 24.4858C734.768 24.6884 734.768 24.891 734.621 25.0936L734.51 25.5541C734.51 25.7567 734.51 25.9593 734.381 26.1619C734.36 26.3232 734.329 26.483 734.289 26.6408C734.289 26.8435 734.289 27.0461 734.289 27.2487C734.289 27.4513 734.289 27.5618 734.197 27.7276C734.105 27.8934 734.197 28.1512 734.197 28.3538V28.8143C734.197 29.0354 734.197 29.2748 734.197 29.4958C734.206 29.6369 734.206 29.7784 734.197 29.9195C734.197 30.1774 734.197 30.4352 734.197 30.6747C734.197 30.9141 734.197 30.9141 734.197 31.0246C734.197 31.1352 734.197 31.7798 734.197 32.1482C734.197 32.5166 734.197 32.9034 734.197 33.2718C734.197 33.6402 734.197 33.4928 734.197 33.6218C734.197 33.7507 734.197 34.1191 734.197 34.377C734.206 34.518 734.206 34.6595 734.197 34.8006C734.197 35.0216 734.197 35.2611 734.197 35.4821V35.9426C734.197 36.1452 734.197 36.3663 734.197 36.5689C734.197 36.7715 734.197 36.882 734.289 37.0478C734.381 37.2136 734.289 37.453 734.289 37.674C734.331 37.8252 734.361 37.9791 734.381 38.1345C734.381 38.3371 734.381 38.5397 734.51 38.7424L734.621 39.2028C734.621 39.4055 734.713 39.6081 734.768 39.8107C734.82 39.9679 734.863 40.1277 734.897 40.2896C734.897 40.4738 735.008 40.6764 735.081 40.879C735.122 41.0351 735.171 41.1888 735.229 41.3395C735.279 41.5332 735.341 41.7239 735.413 41.9105L735.579 42.3894C735.579 42.5736 735.708 42.7578 735.781 42.9604L735.965 43.4209L736.187 43.9734L736.408 44.4339C736.476 44.6168 736.556 44.7952 736.647 44.9681L736.868 45.447C736.96 45.6128 737.052 45.797 737.126 45.9627L737.384 46.4416L737.66 46.939L737.936 47.3995L738.213 47.8968L738.507 48.3573L738.71 48.6888C737.649 50.6354 736.35 52.4422 734.842 54.0673C732.389 51.8279 730.345 49.179 728.8 46.239C732.344 37.1794 732.344 27.1171 728.8 18.0574C730.349 15.115 732.4 12.4658 734.86 10.2292C736.361 11.8471 737.659 13.6407 738.728 15.5708C738.728 15.5708 738.599 15.7734 738.526 15.8839L738.323 16.3444ZM740.441 50.8439L740.755 51.2307L741.215 51.7833L741.547 52.1516C741.694 52.3358 741.86 52.5016 742.007 52.6674L742.375 53.0542C742.526 53.2229 742.686 53.3828 742.854 53.5331C742.968 53.6649 743.091 53.7881 743.223 53.9015L743.72 54.362L744.107 54.7304L744.623 55.1724L745.028 55.504L745.249 55.6882C744.034 56.7185 742.72 57.6255 741.326 58.3958C739.342 57.3945 737.487 56.1576 735.8 54.7119C737.205 53.1468 738.44 51.4364 739.484 49.6098L739.649 49.8124C739.649 49.9413 739.815 50.0334 739.889 50.1439L740.441 50.8439ZM747.68 57.438L748.675 58.0643L749.227 58.3774L750.222 58.93L750.756 59.2063L751.033 59.3536C749.839 59.8458 748.607 60.24 747.349 60.5325C745.739 60.168 744.167 59.6563 742.652 59.0037C743.907 58.2378 745.096 57.3691 746.207 56.4065L747.22 57.1433L747.68 57.438ZM736.15 60.5325C734.466 60.0982 732.836 59.4805 731.287 58.6905C732.602 57.7945 733.835 56.7836 734.971 55.6697C736.523 56.978 738.209 58.1201 739.999 59.0773C738.763 59.6784 737.474 60.1655 736.15 60.5325ZM725.098 60.5325C723.353 60.0352 721.676 59.3237 720.106 58.4142C721.457 57.3701 722.692 56.1845 723.79 54.8777C725.346 56.4218 727.084 57.7703 728.966 58.8931C727.708 59.5404 726.387 60.0588 725.024 60.4404L725.098 60.5325ZM714.046 60.4219C712.173 59.8543 710.392 59.0166 708.76 57.9353C710.14 56.6697 711.376 55.2551 712.444 53.7173C714.001 55.5409 715.798 57.1456 717.786 58.4879C716.572 59.2503 715.274 59.8684 713.918 60.3298L714.046 60.4219ZM667.482 32.1482C667.271 24.17 669.649 16.3381 674.261 9.82398C675.998 12.5783 677.315 15.577 678.166 18.7205C675.195 27.4258 675.195 36.8706 678.166 45.5759C677.315 48.7195 675.998 51.7181 674.261 54.4725C669.642 47.962 667.263 40.1275 667.482 32.1482ZM673.561 55.4855C672.427 57.0802 671.018 58.4589 669.398 59.5562C662.656 55.5592 657.831 44.8207 657.831 32.1482C657.831 19.4757 662.656 8.75565 669.398 4.74023C671.022 5.83926 672.433 7.2249 673.561 8.82933C668.59 15.5717 665.998 23.7738 666.193 32.1482C666.001 40.528 668.592 48.735 673.561 55.4855ZM675.016 8.90301C676.546 7.07197 678.424 5.56308 680.542 4.46394C682.098 5.3389 683.498 6.46543 684.686 7.79784C682.19 10.4793 680.216 13.6026 678.865 17.0075C677.958 14.1431 676.663 11.4164 675.016 8.90301ZM678.7 20.8387C679.552 24.548 679.978 28.3423 679.971 32.1482C679.985 35.9535 679.565 39.7479 678.718 43.4577C676.581 36.0695 676.581 28.227 678.718 20.8387H678.7ZM678.829 47.3442C680.176 50.7509 682.15 53.8748 684.649 56.5539C683.458 57.8453 682.064 58.934 680.523 59.7773C678.402 58.684 676.522 57.1742 674.997 55.3382C676.635 52.8593 677.93 50.1702 678.847 47.3442H678.829ZM679.381 45.5023C681.739 36.7432 681.739 27.5164 679.381 18.7574C680.687 15.0168 682.743 11.5821 685.423 8.66355C687.042 10.7376 688.369 13.0246 689.365 15.4603C686.855 20.6654 685.551 26.3696 685.551 32.1482C685.551 37.9268 686.855 43.631 689.365 48.8362C688.366 51.2686 687.033 53.5499 685.404 55.6145C682.734 52.6954 680.691 49.2602 679.4 45.5207L679.381 45.5023ZM686.233 7.85311C687.798 6.31332 689.626 5.06574 691.63 4.16923C693.128 4.87498 694.512 5.79996 695.738 6.91371C693.472 8.96861 691.562 11.3833 690.083 14.0604C689.084 11.8375 687.796 9.7565 686.252 7.87152L686.233 7.85311ZM689.917 16.9338C693.331 26.777 693.331 37.4827 689.917 47.3258C687.792 42.5416 686.693 37.3648 686.693 32.1298C686.693 26.8948 687.792 21.718 689.917 16.9338ZM690.028 50.0887C691.502 52.769 693.413 55.1845 695.682 57.2354C694.457 58.3491 693.073 59.2741 691.575 59.9799C689.571 59.0834 687.743 57.8358 686.178 56.296C687.752 54.4278 689.071 52.3591 690.101 50.1439L690.028 50.0887ZM690.617 48.7072C694.674 38.028 694.674 26.2316 690.617 15.5524C692.099 12.6403 694.111 10.0294 696.548 7.85311C698.102 9.46822 699.434 11.2831 700.508 13.25C697.004 18.9375 695.149 25.4864 695.149 32.1666C695.149 38.8469 697.004 45.3958 700.508 51.0833C699.434 53.0502 698.102 54.8651 696.548 56.4802C694.127 54.2848 692.14 51.6544 690.691 48.7256L690.617 48.7072ZM717.878 5.90065C715.89 7.24295 714.094 8.84767 712.536 10.6713C711.468 9.13349 710.232 7.71884 708.852 6.45323C710.448 5.39032 712.184 4.55351 714.01 3.96662C715.37 4.45717 716.669 5.10632 717.878 5.90065ZM725.024 3.8561C726.372 4.27071 727.674 4.81992 728.911 5.49542C727.029 6.61828 725.29 7.96673 723.735 9.51084C722.637 8.20406 721.402 7.01848 720.051 5.97433C721.615 5.06627 723.286 4.35481 725.024 3.8561ZM736.076 3.8561C737.385 4.21031 738.661 4.67874 739.889 5.25598C738.094 6.21315 736.408 7.36184 734.86 8.68197C733.734 7.55741 732.5 6.54567 731.176 5.6612C732.758 4.8451 734.426 4.20873 736.15 3.76401L736.076 3.8561ZM733.958 9.38191C731.647 11.516 729.688 14.0028 728.156 16.7497C727.178 14.5363 725.941 12.4466 724.472 10.5239C726.114 8.86843 727.973 7.44329 729.998 6.28746C731.452 7.16009 732.805 8.19178 734.031 9.36349L733.958 9.38191ZM728.045 44.8023C726.224 40.8322 725.282 36.5159 725.282 32.1482C725.282 27.7805 726.224 23.4642 728.045 19.4941C730.919 27.6854 730.919 36.6111 728.045 44.8023ZM723.588 53.0174C720.869 50.0553 718.782 46.5708 717.454 42.7762C719.271 35.8074 719.271 28.4891 717.454 21.5203C718.778 17.7291 720.866 14.2498 723.588 11.2975C725.166 13.3526 726.467 15.6069 727.456 18.0022C725.235 22.3871 724.078 27.2331 724.078 32.1482C724.078 37.0633 725.235 41.9094 727.456 46.2943C726.486 48.6896 725.211 50.9494 723.661 53.0174H723.588ZM712.389 51.6543C708.823 46.9031 706.655 41.2514 706.126 35.3348C706.126 34.2849 706.237 33.2166 706.237 32.1482C706.237 31.0799 706.237 30.0116 706.126 28.9801C706.648 23.0619 708.817 17.4084 712.389 12.6606C714.083 15.3931 715.368 18.3595 716.202 21.465C713.868 28.3961 713.868 35.9004 716.202 42.8315C715.391 45.9386 714.131 48.9109 712.462 51.6543H712.389ZM715.704 32.1482C715.706 29.299 716.083 26.4624 716.828 23.7122C718.007 29.2744 718.007 35.022 716.828 40.5843C716.082 37.8343 715.704 34.9976 715.704 32.1482ZM722.906 10.3581C720.396 13.0499 718.387 16.1689 716.975 19.5678C716.099 16.7663 714.861 14.0912 713.291 11.6106C714.935 9.65039 716.859 7.94355 719.001 6.54533C720.45 7.65616 721.761 8.93617 722.906 10.3581ZM711.762 11.6106C708.786 15.4414 706.709 19.8918 705.684 24.6331C705.063 20.6918 703.82 16.8743 702 13.3236C703.572 10.9596 705.526 8.87413 707.784 7.15317C709.296 8.4621 710.633 9.96024 711.762 11.6106ZM701.227 49.8492C698.079 44.4812 696.42 38.371 696.42 32.1482C696.42 25.9255 698.079 19.8153 701.227 14.4472C703.417 18.9948 704.706 23.9238 705.021 28.9617C705.021 29.9932 704.874 31.0799 704.874 32.1482C704.874 33.2166 704.874 34.3033 705.021 35.3348C704.708 40.373 703.419 45.3024 701.227 49.8492ZM701.319 12.1632C700.257 10.3212 698.977 8.61422 697.506 7.07949C699.098 5.82019 700.875 4.81374 702.774 4.09556C704.218 4.67034 705.58 5.43203 706.826 6.36113C704.712 8.01018 702.855 9.96579 701.319 12.1632ZM701.319 52.1332C702.854 54.3271 704.718 56.2716 706.844 57.8985C705.605 58.8472 704.242 59.6218 702.792 60.2009C700.89 59.4901 699.112 58.483 697.524 57.217C698.997 55.6884 700.272 53.9804 701.319 52.1332ZM701.963 50.9728C703.786 47.4232 705.029 43.6053 705.647 39.6633C706.672 44.4046 708.75 48.8551 711.726 52.6858C710.608 54.334 709.283 55.832 707.784 57.1433C705.513 55.4254 703.546 53.3398 701.963 50.9728ZM713.236 52.6121C714.805 50.1316 716.044 47.4565 716.92 44.655C718.332 48.0539 720.341 51.1729 722.851 53.8647C721.681 55.2446 720.352 56.4812 718.891 57.5485C716.799 56.1849 714.919 54.5217 713.31 52.6121H713.236ZM724.49 53.8647C725.959 51.942 727.196 49.8522 728.174 47.6389C729.707 50.3858 731.665 52.8725 733.976 55.0066C732.779 56.2053 731.457 57.2735 730.034 58.1932C728.002 57.0036 726.137 55.5479 724.49 53.8647ZM741.86 3.06407C742.752 3.06675 743.643 3.11594 744.53 3.21143C743.419 3.57564 742.33 4.0062 741.27 4.50078C740.402 4.04148 739.503 3.64148 738.581 3.30352C739.667 3.1505 740.763 3.0705 741.86 3.06407ZM730.808 3.06407C731.788 3.06439 732.767 3.13828 733.737 3.28511C732.511 3.69494 731.322 4.20631 730.182 4.81391C729.239 4.26899 728.261 3.78897 727.253 3.3772C728.409 3.17558 729.58 3.07083 730.753 3.06407H730.808ZM719.756 3.06407C720.818 3.07377 721.877 3.16615 722.925 3.34036C721.591 3.84238 720.303 4.45865 719.075 5.1823C718.095 4.47566 717.053 3.85917 715.962 3.34036C717.178 3.12782 718.412 3.03528 719.646 3.06407H719.756ZM708.705 3.06407C709.851 3.06526 710.993 3.18875 712.112 3.43246C710.591 4.01219 709.139 4.75972 707.784 5.6612C706.751 4.85839 705.64 4.16111 704.468 3.57982C705.792 3.23924 707.154 3.06597 708.521 3.06407H708.705ZM697.653 3.06407C698.897 3.06064 700.136 3.22168 701.337 3.54298C699.691 4.24158 698.143 5.15179 696.732 6.25062C695.671 5.26708 694.496 4.41375 693.233 3.70875C694.587 3.28976 695.996 3.07253 697.414 3.06407H697.653ZM686.602 3.06407C687.903 3.0622 689.196 3.26738 690.433 3.67191C688.734 4.54835 687.171 5.66499 685.791 6.98739C684.705 5.7982 683.466 4.75772 682.107 3.89294C683.45 3.37912 684.87 3.09878 686.307 3.06407H686.602ZM675.55 3.06407C676.921 3.07057 678.277 3.33942 679.547 3.8561C677.711 4.94051 676.062 6.31521 674.666 7.92678C673.627 6.49136 672.386 5.2134 670.982 4.13239C672.303 3.50028 673.737 3.13714 675.2 3.06407H675.55ZM664.498 61.2324C655.731 61.2324 648.602 48.1915 648.602 32.1482C648.602 16.105 655.731 3.06407 664.498 3.06407C665.951 3.08033 667.381 3.42675 668.68 4.07713C661.883 8.58987 657.075 19.4573 657.075 32.1482C657.075 44.8392 661.883 55.725 668.68 60.2193C667.257 60.9461 665.671 61.295 664.075 61.2324H664.498ZM675.55 61.2324C673.937 61.2272 672.344 60.8623 670.89 60.1641C672.294 59.0831 673.535 57.8051 674.574 56.3697C675.965 57.9865 677.615 59.3619 679.455 60.4404C678.105 60.9904 676.657 61.2599 675.2 61.2324H675.55ZM686.602 61.2324C685.078 61.2279 683.568 60.9471 682.144 60.4035C683.507 59.5445 684.747 58.5034 685.828 57.3091C687.203 58.6374 688.767 59.7547 690.47 60.6245C689.127 61.0654 687.719 61.271 686.307 61.2324H686.602ZM697.653 61.2324C696.211 61.2312 694.776 61.0139 693.398 60.5877C694.604 59.8718 695.723 59.0189 696.732 58.0458C698.074 59.1285 699.547 60.0382 701.116 60.7535C699.909 61.0764 698.664 61.2374 697.414 61.2324H697.653ZM704.726 60.7167C705.813 60.1272 706.837 59.4299 707.784 58.6353C709.079 59.5225 710.462 60.2754 711.91 60.8824C710.788 61.111 709.647 61.2282 708.502 61.2324C707.148 61.2274 705.799 61.0542 704.487 60.7167H704.726ZM716.091 60.8272C717.178 60.3442 718.22 59.7647 719.204 59.0957C720.43 59.8231 721.718 60.4395 723.054 60.9377C720.668 61.3647 718.223 61.3272 715.852 60.8272H716.091ZM727.437 60.9193C728.445 60.5075 729.424 60.0275 730.366 59.4825C731.502 60.0867 732.684 60.598 733.903 61.0114C731.678 61.3472 729.413 61.3161 727.198 60.9193H727.437ZM738.82 60.9193C739.66 60.5897 740.478 60.2083 741.27 59.7773C742.33 60.2718 743.419 60.7024 744.53 61.0666C742.552 61.2906 740.553 61.2659 738.581 60.9929L738.82 60.9193ZM750.204 60.9193C751.033 60.6246 751.843 60.293 752.653 59.9246L753.924 60.4404L754.477 60.6245L755.49 60.9561C753.657 61.1887 751.805 61.2257 749.964 61.0666L750.204 60.9193ZM764.313 61.085C762.458 61.0782 760.609 60.8994 758.787 60.5509C756.774 60.1506 754.81 59.533 752.93 58.7089C747.765 56.4801 743.352 52.8093 740.22 48.1362C737.002 43.3568 735.283 37.7259 735.283 31.964C735.283 26.2021 737.002 20.5713 740.22 15.7918C740.662 15.1287 741.141 14.4841 741.62 13.9499C742.461 12.9067 743.372 11.9221 744.346 11.0028C745.015 10.3065 745.722 9.64853 746.465 9.03194C746.943 8.66356 747.422 8.33201 747.92 7.98204C748.417 7.63207 749.264 7.13475 749.964 6.74794C750.836 6.25819 751.734 5.81549 752.653 5.42175C754.068 4.81211 755.527 4.31328 757.019 3.92978L758.511 3.59823C760.332 3.24969 762.182 3.07087 764.037 3.06407C767.856 3.06407 771.638 3.81635 775.167 5.27797C778.695 6.73958 781.901 8.88191 784.602 11.5826C787.303 14.2833 789.445 17.4895 790.907 21.0182C792.368 24.5469 793.121 28.3288 793.121 32.1482C793.121 35.9676 792.368 39.7496 790.907 43.2783C789.445 46.8069 787.303 50.0131 784.602 52.7138C781.901 55.4146 778.695 57.5569 775.167 59.0185C771.638 60.4801 767.856 61.2324 764.037 61.2324L764.313 61.085Z" fill="#60E878"/>
<path fill-rule="evenodd" clip-rule="evenodd" d="M473.253 26.8005C469.683 31.7479 461.251 37.824 446.214 44.9521C439.211 48.2719 432.524 51.2721 426.088 53.9788C444.51 60.7784 475.655 61.8056 516.34 48.0252C553.632 35.3941 578.398 37.0154 599.277 42.5033C607.36 44.6279 614.864 47.3335 622.263 50.0015C624.4 50.7721 626.529 51.5396 628.66 52.2891C638.181 55.6374 647.783 58.6358 658.563 60.004C658.837 60.0388 659.031 60.289 658.996 60.563C658.961 60.8369 658.711 61.0308 658.437 60.996C647.55 59.6142 637.869 56.5875 628.328 53.2324C626.181 52.4775 624.042 51.7063 621.899 50.9335C614.507 48.2681 607.059 45.5826 599.023 43.4705C578.335 38.0328 553.769 36.4035 516.661 48.9724C475.133 63.038 443.338 61.7881 424.748 54.5399C403.987 63.1867 385.822 68.7657 368.046 72.1712C371.911 73.0772 375.615 74.0252 379.136 75.0165C385.584 76.8321 390.404 78.5325 393.726 80.1188C395.387 80.9117 396.69 81.6838 397.638 82.4385C398.579 83.1873 399.217 83.9549 399.47 84.7521C399.734 85.5861 399.555 86.3815 399.016 87.0912C398.495 87.7774 397.64 88.3848 396.531 88.9332C394.306 90.0325 390.872 90.9822 386.41 91.7948C368.549 95.0473 333.518 96.2172 290.551 95.1861C204.598 93.1236 86.6764 82.2472 10.3688 61.4803C10.1024 61.4078 9.94516 61.133 10.0177 60.8665C10.0902 60.6001 10.365 60.4429 10.6314 60.5154C86.8239 81.251 204.652 92.1246 290.575 94.1864C333.544 95.2175 368.482 94.0431 386.231 90.8109C390.671 90.0023 393.992 89.072 396.088 88.0367C397.138 87.5178 397.834 86.9943 398.22 86.4864C398.588 86.0019 398.671 85.5402 398.517 85.0543C398.351 84.5316 397.89 83.9168 397.016 83.221C396.148 82.5311 394.919 81.7966 393.296 81.0212C390.049 79.4709 385.291 77.7886 378.865 75.9791C374.684 74.8022 370.245 73.6864 365.583 72.6295C356.048 74.3525 346.596 75.4598 336.883 76.0902C309.532 77.8654 280.117 75.8568 241.009 73.1864C230.714 72.4834 219.747 71.7346 207.969 70.9968C179.028 69.184 158.258 67.4153 144.286 65.7684C137.302 64.945 132.008 64.1512 128.239 63.3958C126.355 63.0182 124.843 62.6485 123.687 62.2868C122.546 61.9299 121.703 61.566 121.196 61.179C120.943 60.986 120.718 60.7457 120.624 60.4443C120.52 60.1088 120.604 59.7903 120.794 59.5326C120.969 59.295 121.234 59.1038 121.53 58.9433C121.833 58.7792 122.208 58.627 122.643 58.4838C124.373 57.9149 127.278 57.4198 131.151 56.9982C138.918 56.1528 150.729 55.5883 165.199 55.3806C218.619 54.6139 308.531 58.708 365.605 71.6094C383.762 68.3125 402.237 62.7692 423.427 54.0055C421.68 53.2725 420.058 52.4848 418.566 51.651C409.982 46.8544 405.546 40.4463 406.242 34.0626C406.938 27.6885 412.72 21.6564 423.826 17.5313C432.628 14.262 442.188 12.5026 450.637 12.149C459.065 11.7962 466.468 12.8389 470.909 15.2481C473.136 16.4562 474.687 18.0474 475.174 20.0447C475.662 22.0469 475.047 24.316 473.253 26.8005ZM424.737 53.4608C422.668 52.6369 420.772 51.7379 419.054 50.7781C410.616 46.0634 406.604 39.966 407.236 34.1711C407.87 28.3667 413.194 22.5472 424.174 18.4687C432.872 15.2381 442.328 13.4976 450.679 13.1481C459.051 12.7977 466.233 13.8487 470.432 16.1271C472.525 17.2627 473.808 18.6637 474.202 20.2816C474.595 21.8946 474.14 23.8638 472.443 26.2153C469.033 30.9398 460.81 36.9263 445.786 44.0484C438.445 47.5284 431.454 50.6557 424.737 53.4608ZM363.033 72.0619C305.997 59.6014 217.897 55.6244 165.213 56.3805C150.753 56.5881 138.979 57.152 131.26 57.9923C127.39 58.4136 124.576 58.9006 122.956 59.4337C122.553 59.566 122.239 59.6967 122.006 59.8228C121.766 59.9525 121.648 60.0587 121.599 60.1253C121.59 60.138 121.585 60.1473 121.582 60.1533C121.593 60.1799 121.64 60.2603 121.803 60.3843C122.162 60.6583 122.861 60.9806 123.986 61.3324C125.095 61.6796 126.569 62.0413 128.435 62.4153C132.167 63.1631 137.43 63.9533 144.404 64.7753C158.348 66.4191 179.098 68.1864 208.032 69.9988C219.832 70.738 230.813 71.4877 241.116 72.1911C280.211 74.8603 309.54 76.8627 336.819 75.0923C345.685 74.5168 354.335 73.5425 363.033 72.0619Z" fill="#60E878"/>
</g>
<defs>
<clipPath id="clip0_357_590">
<rect width="795" height="95" fill="white" transform="translate(0 0.682617)"/>
</clipPath>
</defs>
</svg>
