<svg width="284" height="59" viewBox="0 0 284 59" fill="none" xmlns="http://www.w3.org/2000/svg">
<path fill-rule="evenodd" clip-rule="evenodd" d="M283.589 26.283C282.445 32.371 276.493 37.3316 265.186 39.4638C232.339 45.6577 199.022 43.2945 165.769 38.4474C160.352 40.8973 154.849 43.1685 149.246 45.238C151.72 45.7468 154.193 46.2523 156.668 46.7508C190.15 53.4953 224.042 58.9686 264.879 53.9885C265.428 53.9217 265.926 54.3119 265.993 54.8601C266.06 55.4084 265.67 55.907 265.121 55.9738C223.958 60.9937 189.81 55.467 156.273 48.7114C152.724 47.9965 149.182 47.2681 145.64 46.537C113.392 57.8584 77.7944 62.4363 36.3459 55.9692C31.5239 55.2169 26.8469 53.4288 23.3224 51.1474C21.5598 50.0065 20.0561 48.7232 18.968 47.3557C17.8831 45.9921 17.1686 44.4891 17.0978 42.9281C16.9496 39.6628 19.5637 36.9348 24.8191 35.0646C30.132 33.1739 38.5508 31.9811 51.0001 31.9811C85.0815 31.9811 114.626 38.086 143.821 44.1185C144.381 44.2343 144.941 44.35 145.501 44.4657C151.125 42.4765 156.647 40.2803 162.082 37.9C152.068 36.3873 142.061 34.6696 132.077 32.9128C129.418 32.445 126.761 31.9744 124.105 31.5041C82.3945 24.1175 41.1412 16.8118 1.11627 21.4932C0.56772 21.5574 0.0710251 21.1647 0.00686606 20.6161C-0.057293 20.0676 0.33538 19.5709 0.883925 19.5067C41.2126 14.7898 82.742 22.146 124.375 29.5207C127.058 29.9958 129.741 30.471 132.423 30.9431C143.443 32.882 154.467 34.7683 165.479 36.383C180.529 29.5359 194.922 21.2959 208.955 12.1613C235.774 -5.29676 261.265 -1.05787 274.458 8.84786C281.01 13.7668 284.72 20.2618 283.589 26.283ZM169.115 36.906C183.255 30.2776 196.817 22.4485 210.046 13.8375C236.226 -3.20415 260.796 1.09072 273.258 10.4472C279.534 15.1594 282.55 20.9777 281.623 25.9137C280.709 30.7829 275.818 35.4235 264.815 37.4985C233.268 43.4473 201.245 41.4358 169.115 36.906ZM141.793 45.7423C113.12 39.8211 84.2411 33.9811 51.0001 33.9811C38.6314 33.9811 30.482 35.1722 25.4896 36.9488C20.4395 38.746 19.0109 40.9688 19.0957 42.8374C19.1414 43.8434 19.6122 44.953 20.5331 46.1104C21.4508 47.2638 22.7734 48.4096 24.4092 49.4685C27.6816 51.5867 32.0899 53.281 36.6542 53.9931C76.3633 60.1888 110.65 56.1668 141.793 45.7423Z" fill="#60E878"/>
</svg>
