<svg width="48" height="48" viewBox="0 0 48 48" fill="none" xmlns="http://www.w3.org/2000/svg">
<path fill-rule="evenodd" clip-rule="evenodd" d="M0 23.4528C0 36.4055 10.5002 46.9056 23.4528 46.9056C36.4055 46.9056 46.9056 36.4055 46.9056 23.4528C46.9056 10.5002 36.4055 0 23.4528 0C10.5002 0 0 10.5002 0 23.4528ZM19.153 34.2025L19.552 28.2243L19.5517 28.224L30.4269 18.41C30.9042 17.9864 30.3227 17.7798 29.6891 18.164L16.2676 26.6315L10.4702 24.822C9.21828 24.4387 9.20929 23.5784 10.7513 22.9599L33.3423 14.2489C34.374 13.7805 35.3699 14.4967 34.976 16.0759L31.1288 34.2056C30.8601 35.4939 30.0817 35.802 29.0032 35.2069L23.1426 30.877L20.3256 33.6162C20.3167 33.6248 20.3079 33.6334 20.2991 33.642C19.9841 33.9487 19.7234 34.2025 19.153 34.2025Z" fill="white"/>
</svg>
