<svg width="48" height="48" viewBox="0 0 48 48" fill="none" xmlns="http://www.w3.org/2000/svg">
<path fill-rule="evenodd" clip-rule="evenodd" d="M23.4528 0C10.5002 0 0 10.5002 0 23.4528C0 36.4055 10.5002 46.9056 23.4528 46.9056C36.4055 46.9056 46.9056 36.4055 46.9056 23.4528C46.9056 10.5002 36.4055 0 23.4528 0ZM33.2264 15.3903C34.3028 15.6857 35.1505 16.556 35.4382 17.6612C35.961 19.6643 35.961 23.8438 35.961 23.8438C35.961 23.8438 35.961 28.0231 35.4382 30.0263C35.1505 31.1315 34.3028 32.0019 33.2264 32.2974C31.2757 32.834 23.4528 32.834 23.4528 32.834C23.4528 32.834 15.6299 32.834 13.6791 32.2974C12.6027 32.0019 11.755 31.1315 11.4673 30.0263C10.9446 28.0231 10.9446 23.8438 10.9446 23.8438C10.9446 23.8438 10.9446 19.6643 11.4673 17.6612C11.755 16.556 12.6027 15.6857 13.6791 15.3903C15.6299 14.8535 23.4528 14.8535 23.4528 14.8535C23.4528 14.8535 31.2757 14.8535 33.2264 15.3903Z" fill="white"/>
<path d="M21.1074 28.1428V20.3252L27.3615 24.2341L21.1074 28.1428Z" fill="white"/>
</svg>
